<svg xmlns="http://www.w3.org/2000/svg" width="31" height="23" viewBox="0 0 31 23" fill="none">
  <path fill-rule="evenodd" clip-rule="evenodd" d="M15.4954 0.00277513C12.5314 0.00277513 9.57437 0.996356 7.16616 2.98303C5.71675 4.17879 4.59653 5.63372 3.81854 7.22693C3.71057 7.21683 3.6055 7.1938 3.49464 7.1938C1.55874 7.1938 0 8.72629 0 10.6296V14.8759C0 16.7792 1.55874 18.3117 3.49464 18.3117C3.60551 18.3117 3.71057 18.288 3.81854 18.2785C3.95783 18.5624 4.10195 18.8442 4.26439 19.121C4.89937 20.2352 6.59581 19.2812 5.94073 18.1782C3.25856 13.6106 4.29731 7.82273 8.40658 4.43264C12.516 1.04246 18.4848 1.04246 22.5941 4.43264C26.7035 7.82273 27.7423 13.6105 25.0601 18.1782L25.0311 18.2255L25.0118 18.2728C25.0118 18.2728 23.7091 21.1061 21.1511 21.1061L17.9131 21.0776C17.6094 20.6417 17.1234 20.338 16.5432 20.338H14.4558C13.52 20.338 12.7671 21.0807 12.7671 22.0009C12.7671 22.5684 13.1334 22.9994 13.9716 22.9994L21.1511 23C24.9897 23 26.6499 19.2949 26.7255 19.1234V19.1133C26.8865 18.8389 27.0282 18.5572 27.1665 18.2758C27.2793 18.2859 27.3892 18.309 27.5054 18.309C29.4413 18.309 31 16.7765 31 14.8732V10.6268C31 8.72358 29.4413 7.19107 27.5054 7.19107C27.3935 7.19107 27.288 7.20925 27.1791 7.2242C26.4029 5.63089 25.286 4.17612 23.8364 2.98027C21.4283 0.993597 18.4588 0 15.4947 0L15.4954 0.00277513ZM11.2835 6.03924C10.5312 5.99094 9.844 6.14734 9.24352 6.76902C7.64228 8.42643 6.65307 10.6823 6.65307 13.0847C6.65307 15.0663 7.32667 17.2867 8.46138 17.3677C10.078 17.4833 12.629 16.4396 15.5004 16.4396C18.5432 16.4396 21.2284 17.6107 22.8208 17.3335C23.7859 17.1657 24.3502 14.8977 24.3502 13.0847C24.3502 10.6823 23.3585 8.42643 21.7573 6.76902C20.156 5.11155 17.9438 6.76902 15.5004 6.76902C13.9732 6.76902 12.5373 6.12017 11.2835 6.03924ZM10.9249 10.1239C11.8175 10.1243 12.5411 10.8356 12.5414 11.7133C12.5411 12.591 11.8175 13.3023 10.9249 13.3026C10.0322 13.3023 9.30864 12.591 9.30835 11.7133C9.30864 10.8356 10.0322 10.1243 10.9249 10.1239ZM20.076 10.1239C20.9688 10.1243 21.6923 10.8356 21.6926 11.7133C21.6923 12.591 20.9688 13.3023 20.076 13.3026C19.1834 13.3023 18.4599 12.591 18.4595 11.7133C18.4599 10.8356 19.1834 10.1243 20.076 10.1239Z" fill="#9d4a43"/>
</svg>