<svg xmlns="http://www.w3.org/2000/svg" width="87" height="87" viewBox="0 0 87 87" fill="none">
  <g filter="url(#filter0_d_320_6277)">
    <path d="M4 39.5C4 17.6848 21.6848 0 43.5 0H78C80.7614 0 83 2.23858 83 5V39.5C83 61.3152 65.3152 79 43.5 79C21.6848 79 4 61.3152 4 39.5Z" fill="#BA7894"/>
  </g>
  <path fill-rule="evenodd" clip-rule="evenodd" d="M42.9918 20.0868C37.9446 20.0868 32.9092 21.8077 28.8084 25.2486C26.3402 27.3197 24.4327 29.8396 23.1079 32.5991C22.924 32.5816 22.7451 32.5417 22.5563 32.5417C19.2598 32.5417 16.6055 35.1959 16.6055 38.4924V45.8471C16.6055 49.1435 19.2598 51.7978 22.5563 51.7978C22.7451 51.7978 22.924 51.7569 23.1079 51.7404C23.3451 52.2321 23.5905 52.7201 23.8671 53.1995C24.9484 55.1294 27.8371 53.4771 26.7216 51.5666C22.1543 43.6556 23.9231 33.631 30.9206 27.7593C37.9183 21.8876 48.0823 21.8876 55.0799 27.7593C62.0775 33.631 63.8464 43.6554 59.279 51.5666L59.2297 51.6485L59.1968 51.7304C59.1968 51.7304 56.9785 56.6378 52.6226 56.6378L47.1088 56.5884C46.5917 55.8333 45.7641 55.3075 44.776 55.3075H41.2216C39.6279 55.3075 38.3459 56.5938 38.3459 58.1875C38.3459 59.1705 38.9697 59.917 40.3971 59.917L52.6226 59.918C59.1592 59.918 61.9863 53.5007 62.115 53.2038V53.1862C62.3891 52.711 62.6304 52.223 62.866 51.7357C63.0581 51.7532 63.2452 51.7931 63.443 51.7931C66.7395 51.7931 69.3938 49.1389 69.3938 45.8424V38.4877C69.3938 35.1912 66.7395 32.5369 63.443 32.5369C63.2525 32.5369 63.0728 32.5684 62.8873 32.5943C61.5656 29.8347 59.6637 27.3151 57.1953 25.2439C53.0946 21.8029 48.038 20.082 42.9907 20.082L42.9918 20.0868ZM35.8195 30.542C34.5385 30.4583 33.3683 30.7292 32.3458 31.806C29.6191 34.6766 27.9347 38.5837 27.9347 42.7446C27.9347 46.1768 29.0817 50.0226 31.0139 50.1629C33.7667 50.3631 38.1107 48.5554 43.0003 48.5554C48.1818 48.5554 52.7543 50.5837 55.4659 50.1035C57.1093 49.813 58.0701 45.8848 58.0701 42.7446C58.0701 38.5837 56.3816 34.6766 53.6548 31.806C50.9281 28.9352 47.1611 31.806 43.0003 31.806C40.3998 31.806 37.9545 30.6822 35.8195 30.542ZM35.2089 37.6167C36.729 37.6173 37.9611 38.8493 37.9616 40.3695C37.9611 41.8895 36.729 43.1216 35.2089 43.1222C33.6888 43.1216 32.4567 41.8895 32.4562 40.3695C32.4567 38.8493 33.6888 37.6173 35.2089 37.6167ZM50.792 37.6167C52.3121 37.6173 53.5442 38.8493 53.5447 40.3695C53.5442 41.8895 52.3121 43.1216 50.792 43.1222C49.2719 43.1216 48.0398 41.8895 48.0393 40.3695C48.0398 38.8493 49.2719 37.6173 50.792 37.6167Z" fill="white"/>
  <g filter="url(#filter1_d_320_6277)">
    <path d="M4 39.5C4 17.6848 21.6848 0 43.5 0H78C80.7614 0 83 2.23858 83 5V39.5C83 61.3152 65.3152 79 43.5 79C21.6848 79 4 61.3152 4 39.5Z" fill="#A75E5B"/>
  </g>
  <path fill-rule="evenodd" clip-rule="evenodd" d="M42.9918 20.0868C37.9446 20.0868 32.9092 21.8077 28.8084 25.2486C26.3402 27.3197 24.4327 29.8396 23.1079 32.5991C22.924 32.5816 22.7451 32.5417 22.5563 32.5417C19.2598 32.5417 16.6055 35.1959 16.6055 38.4924V45.8471C16.6055 49.1435 19.2598 51.7978 22.5563 51.7978C22.7451 51.7978 22.924 51.7569 23.1079 51.7404C23.3451 52.2321 23.5905 52.7201 23.8671 53.1995C24.9484 55.1294 27.8371 53.4771 26.7216 51.5666C22.1543 43.6556 23.9231 33.631 30.9206 27.7593C37.9183 21.8876 48.0823 21.8876 55.0799 27.7593C62.0775 33.631 63.8464 43.6554 59.279 51.5666L59.2297 51.6485L59.1968 51.7304C59.1968 51.7304 56.9785 56.6378 52.6226 56.6378L47.1088 56.5884C46.5917 55.8333 45.7641 55.3075 44.776 55.3075H41.2216C39.6279 55.3075 38.3459 56.5938 38.3459 58.1875C38.3459 59.1705 38.9697 59.917 40.3971 59.917L52.6226 59.918C59.1592 59.918 61.9863 53.5007 62.115 53.2038V53.1862C62.3891 52.711 62.6304 52.223 62.866 51.7357C63.0581 51.7532 63.2452 51.7931 63.443 51.7931C66.7395 51.7931 69.3938 49.1389 69.3938 45.8424V38.4877C69.3938 35.1912 66.7395 32.5369 63.443 32.5369C63.2525 32.5369 63.0728 32.5684 62.8873 32.5943C61.5656 29.8347 59.6637 27.3151 57.1953 25.2439C53.0946 21.8029 48.038 20.082 42.9907 20.082L42.9918 20.0868ZM35.8195 30.542C34.5385 30.4583 33.3683 30.7292 32.3458 31.806C29.6191 34.6766 27.9347 38.5837 27.9347 42.7446C27.9347 46.1768 29.0817 50.0226 31.0139 50.1629C33.7667 50.3631 38.1107 48.5554 43.0003 48.5554C48.1818 48.5554 52.7543 50.5837 55.4659 50.1035C57.1093 49.813 58.0701 45.8848 58.0701 42.7446C58.0701 38.5837 56.3816 34.6766 53.6548 31.806C50.9281 28.9352 47.1611 31.806 43.0003 31.806C40.3998 31.806 37.9545 30.6822 35.8195 30.542ZM35.2089 37.6167C36.729 37.6173 37.9611 38.8493 37.9616 40.3695C37.9611 41.8895 36.729 43.1216 35.2089 43.1222C33.6888 43.1216 32.4567 41.8895 32.4562 40.3695C32.4567 38.8493 33.6888 37.6173 35.2089 37.6167ZM50.792 37.6167C52.3121 37.6173 53.5442 38.8493 53.5447 40.3695C53.5442 41.8895 52.3121 43.1216 50.792 43.1222C49.2719 43.1216 48.0398 41.8895 48.0393 40.3695C48.0398 38.8493 49.2719 37.6173 50.792 37.6167Z" fill="white"/>
  <defs>
    <filter id="filter0_d_320_6277" x="0" y="0" width="87" height="87" filterUnits="userSpaceOnUse" color-interpolation-filters="sRGB">
      <feFlood flood-opacity="0" result="BackgroundImageFix"/>
      <feColorMatrix in="SourceAlpha" type="matrix" values="0 0 0 0 0 0 0 0 0 0 0 0 0 0 0 0 0 0 127 0" result="hardAlpha"/>
      <feOffset dy="4"/>
      <feGaussianBlur stdDeviation="2"/>
      <feComposite in2="hardAlpha" operator="out"/>
      <feColorMatrix type="matrix" values="0 0 0 0 0 0 0 0 0 0 0 0 0 0 0 0 0 0 0.25 0"/>
      <feBlend mode="normal" in2="BackgroundImageFix" result="effect1_dropShadow_320_6277"/>
      <feBlend mode="normal" in="SourceGraphic" in2="effect1_dropShadow_320_6277" result="shape"/>
    </filter>
    <filter id="filter1_d_320_6277" x="0" y="0" width="87" height="87" filterUnits="userSpaceOnUse" color-interpolation-filters="sRGB">
      <feFlood flood-opacity="0" result="BackgroundImageFix"/>
      <feColorMatrix in="SourceAlpha" type="matrix" values="0 0 0 0 0 0 0 0 0 0 0 0 0 0 0 0 0 0 127 0" result="hardAlpha"/>
      <feOffset dy="4"/>
      <feGaussianBlur stdDeviation="2"/>
      <feComposite in2="hardAlpha" operator="out"/>
      <feColorMatrix type="matrix" values="0 0 0 0 0 0 0 0 0 0 0 0 0 0 0 0 0 0 0.25 0"/>
      <feBlend mode="normal" in2="BackgroundImageFix" result="effect1_dropShadow_320_6277"/>
      <feBlend mode="normal" in="SourceGraphic" in2="effect1_dropShadow_320_6277" result="shape"/>
    </filter>
  </defs>
</svg>