<svg xmlns="http://www.w3.org/2000/svg" width="62" height="59" viewBox="0 0 62 59" fill="none">
  <path d="M50.4082 6.25806C52.0921 6.25806 53.7762 6.25806 55.4601 6.25806C55.5679 6.25806 55.6752 6.26198 55.7828 6.26745C55.8848 6.27263 55.9865 6.28394 56.0879 6.29525C55.8694 6.27085 56.1942 6.31987 56.2108 6.32313C56.4061 6.36106 56.5975 6.41643 56.7867 6.47728C56.8804 6.50745 56.9722 6.54309 57.0639 6.5788C56.8783 6.50664 57.2272 6.66079 57.2608 6.6778C57.4342 6.76556 57.5995 6.86818 57.7613 6.97524C57.7737 6.98338 58.0298 7.17117 57.8638 7.04201C57.94 7.1013 58.0129 7.16496 58.0855 7.22847C58.2308 7.35564 58.3649 7.49494 58.4947 7.63771C58.5597 7.70921 58.6205 7.78433 58.6812 7.85937C58.5575 7.70655 58.7812 8.01198 58.8015 8.04266C58.9087 8.20488 59.0018 8.37604 59.0895 8.54934C59.0966 8.56332 59.2254 8.85596 59.1445 8.65929C59.1819 8.7503 59.214 8.84346 59.246 8.93647C59.3107 9.12457 59.3584 9.31806 59.4001 9.51236C59.4036 9.52833 59.457 9.8538 59.4281 9.63524C59.446 9.77062 59.4542 9.90696 59.4611 10.0432C59.4661 10.1424 59.4653 10.2419 59.4653 10.3413C59.4653 12.6992 59.4653 15.0572 59.4653 17.4151C59.4653 21.9769 59.4653 26.5387 59.4653 31.1005C59.4653 35.6622 59.4653 40.224 59.4653 44.7858C59.4653 47.1438 59.4653 49.5017 59.4653 51.8597C59.4653 51.9592 59.4641 52.0583 59.4611 52.1577C59.458 52.2603 59.4487 52.3625 59.4394 52.4645C59.4093 52.7935 59.4752 52.2672 59.4193 52.59C59.3852 52.7865 59.3336 52.9795 59.2763 53.1703C59.2479 53.2648 59.214 53.3575 59.1801 53.45C59.0703 53.7498 59.2642 53.2746 59.1318 53.5636C59.0373 53.77 58.9229 53.9667 58.8015 54.1583C58.7496 54.24 58.693 54.3187 58.6366 54.3972C58.7585 54.2275 58.5687 54.478 58.5582 54.4905C58.4338 54.6382 58.2971 54.775 58.1569 54.9075C58.0866 54.9737 58.0127 55.036 57.9388 55.0981C57.6983 55.3005 58.0966 54.9871 57.841 55.1707C57.657 55.3029 57.4607 55.417 57.2608 55.5231C57.1746 55.5689 57.0858 55.6096 56.9971 55.6502C57.1903 55.5617 56.8949 55.6861 56.8799 55.6916C56.6936 55.7599 56.5016 55.8113 56.3086 55.8568C56.211 55.8799 56.112 55.897 56.0131 55.9142C56.23 55.8765 55.9021 55.9248 55.8851 55.9263C55.7478 55.9389 55.6093 55.943 55.4714 55.943C54.9802 55.943 54.4891 55.943 53.9981 55.943C50.8512 55.943 47.7045 55.943 44.5576 55.943C39.8659 55.943 35.1741 55.943 30.4824 55.943C25.855 55.943 21.2276 55.943 16.6003 55.943C13.6466 55.943 10.6929 55.943 7.73923 55.943C7.45095 55.943 7.1626 55.943 6.87433 55.943C6.81496 55.943 6.75566 55.943 6.69629 55.943C6.68919 55.943 6.68209 55.943 6.67492 55.943C6.46894 55.943 6.26435 55.9287 6.05977 55.9058C6.27833 55.9301 5.95353 55.8811 5.93689 55.8778C5.80639 55.8524 5.67789 55.8181 5.54991 55.7824C5.45468 55.7559 5.36115 55.7237 5.26777 55.6916C5.25328 55.6866 4.95517 55.5652 5.15065 55.6502C4.97188 55.5724 4.80034 55.4792 4.63199 55.3814C4.23414 55.15 4.14512 55.0724 3.78424 54.7047C3.71659 54.6357 3.653 54.5631 3.58949 54.4905C3.57921 54.4787 3.38565 54.2295 3.51112 54.3972C3.39497 54.2419 3.29249 54.0769 3.19512 53.9094C3.14617 53.8252 3.10218 53.7384 3.05826 53.6515C3.05116 53.6376 2.92229 53.3449 3.00325 53.5416C2.91542 53.3282 2.84902 53.1067 2.79157 52.8835C2.76666 52.7865 2.74751 52.6882 2.72843 52.59C2.66596 52.2683 2.74507 52.7927 2.70839 52.4645C2.68939 52.2941 2.68244 52.1216 2.68244 51.9503C2.68244 51.9391 2.68244 51.9278 2.68244 51.9166C2.68244 51.842 2.68244 51.7673 2.68244 51.6928C2.68244 49.0774 2.68244 46.4621 2.68244 43.8467C2.68244 39.2039 2.68244 34.561 2.68244 29.9181C2.68244 25.4515 2.68244 20.9849 2.68244 16.5183C2.68244 14.4319 2.68244 12.3454 2.68244 10.259C2.68244 9.17396 3.09567 8.198 3.85182 7.42729C3.9645 7.31239 4.08583 7.20629 4.20886 7.10278C4.44944 6.90035 4.05115 7.21376 4.30675 7.03018C4.38541 6.97362 4.46734 6.92171 4.54911 6.86981C4.91317 6.63891 5.07531 6.57554 5.36108 6.47721C5.94761 6.27544 6.15619 6.25784 6.74627 6.25784C8.28754 6.25784 9.82874 6.25784 11.37 6.25784C11.9343 6.25784 12.4051 5.78702 12.4051 5.22273C12.4051 4.65845 11.9343 4.18763 11.37 4.18763C10.5386 4.18763 9.70726 4.18763 8.87593 4.18763C8.00903 4.18763 7.12837 4.14282 6.26273 4.20434C3.08443 4.42999 0.612305 7.13162 0.612305 10.3062C0.612305 12.5809 0.612305 14.8555 0.612305 17.1301C0.612305 21.6636 0.612305 26.1972 0.612305 30.7307C0.612305 35.3194 0.612305 39.908 0.612305 44.4967C0.612305 46.9366 0.612305 49.3765 0.612305 51.8164C0.612305 54.5934 2.39771 57.0537 5.09528 57.8053C5.95515 58.0449 6.83581 58.0132 7.71579 58.0132C10.657 58.0132 13.5983 58.0132 16.5396 58.0132C21.1626 58.0132 25.7856 58.0132 30.4086 58.0132C35.104 58.0132 39.7995 58.0132 44.4949 58.0132C47.6534 58.0132 50.8119 58.0132 53.9705 58.0132C54.4705 58.0132 54.9705 58.0132 55.4705 58.0132C58.7849 58.0132 61.5356 55.2413 61.5356 51.9332C61.5356 49.7947 61.5356 47.6562 61.5356 45.5178C61.5356 41.0323 61.5356 36.5468 61.5356 32.0613C61.5356 27.4326 61.5356 22.8039 61.5356 18.1751C61.5356 15.6069 61.5356 13.0387 61.5356 10.4706C61.5356 8.03194 60.2409 5.71862 57.9523 4.72411C56.8466 4.2436 55.7321 4.1877 54.5535 4.1877C53.4218 4.1877 52.2902 4.1877 51.1585 4.1877C50.9083 4.1877 50.6583 4.1877 50.4082 4.1877C49.8439 4.1877 49.3731 4.65853 49.3731 5.22281C49.3731 5.78709 49.8439 6.25806 50.4082 6.25806Z" fill="#9A4B44"/>
  <path d="M23.9374 6.2499C27.6022 6.2499 31.267 6.2499 34.932 6.2499C36.0976 6.2499 37.2632 6.2499 38.4289 6.2499C38.9931 6.2499 39.464 5.77907 39.464 5.21479C39.464 4.65051 38.9931 4.17969 38.4289 4.17969C34.7641 4.17969 31.0991 4.17969 27.4343 4.17969C26.2687 4.17969 25.1031 4.17969 23.9374 4.17969C23.3732 4.17969 22.9023 4.65051 22.9023 5.21479C22.9023 5.77907 23.3731 6.2499 23.9374 6.2499Z" fill="#9A4B44"/>
  <path d="M16.6553 1.14448C16.6553 4.64898 16.6553 8.15348 16.6553 11.6581C16.6553 11.7271 16.6553 11.7962 16.6553 11.8652C16.6553 12.4295 17.1261 12.9003 17.6904 12.9003C18.2547 12.9003 18.7255 12.4295 18.7255 11.8652C18.7255 8.36072 18.7255 4.85622 18.7255 1.35165C18.7255 1.28259 18.7255 1.21354 18.7255 1.14448C18.7255 0.5802 18.2547 0.109375 17.6904 0.109375C17.1261 0.109375 16.6553 0.580274 16.6553 1.14448Z" fill="#9A4B44"/>
  <path d="M1.72058 23.3749C3.19065 23.3749 4.6608 23.3749 6.13094 23.3749C9.79995 23.3749 13.469 23.3749 17.138 23.3749C21.894 23.3749 26.65 23.3749 31.4059 23.3749C36.1369 23.3749 40.8679 23.3749 45.5988 23.3749C49.1928 23.3749 52.7868 23.3749 56.3807 23.3749C57.7291 23.3749 59.0775 23.3749 60.4259 23.3749C60.9902 23.3749 61.461 22.9041 61.461 22.3398C61.461 21.7755 60.9902 21.3047 60.4259 21.3047C58.9557 21.3047 57.4857 21.3047 56.0156 21.3047C52.3466 21.3047 48.6775 21.3047 45.0085 21.3047C40.2525 21.3047 35.4966 21.3047 30.7405 21.3047C26.0096 21.3047 21.2786 21.3047 16.5477 21.3047C12.9537 21.3047 9.35974 21.3047 5.76577 21.3047C4.4174 21.3047 3.06903 21.3047 1.72065 21.3047C1.15637 21.3047 0.685547 21.7755 0.685547 22.3398C0.685547 22.9041 1.1563 23.3749 1.72058 23.3749Z" fill="#9A4B44"/>
  <path d="M14.3261 13.0155C16.5442 13.0155 18.7623 13.0155 20.9804 13.0155C21.5447 13.0155 22.0155 12.5447 22.0155 11.9804C22.0155 11.4161 21.5447 10.9453 20.9804 10.9453C18.7623 10.9453 16.5442 10.9453 14.3261 10.9453C13.7618 10.9453 13.291 11.4161 13.291 11.9804C13.291 12.5447 13.7618 13.0155 14.3261 13.0155Z" fill="#9A4B44"/>
  <path d="M43.2725 1.25386C43.2725 4.75836 43.2725 8.26285 43.2725 11.7674C43.2725 11.8365 43.2725 11.9055 43.2725 11.9746C43.2725 12.5389 43.7433 13.0097 44.3076 13.0097C44.8718 13.0097 45.3427 12.5389 45.3427 11.9746C45.3427 8.4701 45.3427 4.9656 45.3427 1.46103C45.3427 1.39197 45.3427 1.32291 45.3427 1.25386C45.3427 0.689575 44.8718 0.21875 44.3076 0.21875C43.7433 0.21875 43.2725 0.689649 43.2725 1.25386Z" fill="#9A4B44"/>
  <path d="M40.9453 13.0155C43.1633 13.0155 45.3814 13.0155 47.5995 13.0155C48.1638 13.0155 48.6346 12.5447 48.6346 11.9804C48.6346 11.4161 48.1638 10.9453 47.5995 10.9453C45.3814 10.9453 43.1633 10.9453 40.9453 10.9453C40.381 10.9453 39.9102 11.4161 39.9102 11.9804C39.9102 12.5447 40.381 13.0155 40.9453 13.0155Z" fill="#9A4B44"/>
  <path d="M11.8144 34.5936C13.2438 34.5936 14.6733 34.5936 16.1027 34.5936C16.667 34.5936 17.1378 34.1228 17.1378 33.5585C17.1378 32.9943 16.667 32.5234 16.1027 32.5234C14.6733 32.5234 13.2438 32.5234 11.8144 32.5234C11.2501 32.5234 10.7793 32.9943 10.7793 33.5585C10.7793 34.1228 11.2501 34.5936 11.8144 34.5936Z" fill="#9A4B44"/>
  <path d="M28.7431 34.5936C30.1725 34.5936 31.602 34.5936 33.0314 34.5936C33.5957 34.5936 34.0665 34.1228 34.0665 33.5585C34.0665 32.9943 33.5957 32.5234 33.0314 32.5234C31.602 32.5234 30.1725 32.5234 28.7431 32.5234C28.1788 32.5234 27.708 32.9943 27.708 33.5585C27.708 34.1228 28.1788 34.5936 28.7431 34.5936Z" fill="#9A4B44"/>
  <path d="M45.6748 34.5936C47.1042 34.5936 48.5336 34.5936 49.9631 34.5936C50.5273 34.5936 50.9982 34.1228 50.9982 33.5585C50.9982 32.9943 50.5273 32.5234 49.9631 32.5234C48.5336 32.5234 47.1042 32.5234 45.6748 32.5234C45.1105 32.5234 44.6396 32.9943 44.6396 33.5585C44.6396 34.1228 45.1105 34.5936 45.6748 34.5936Z" fill="#9A4B44"/>
  <path d="M11.8144 46.7265C13.2438 46.7265 14.6733 46.7265 16.1027 46.7265C16.667 46.7265 17.1378 46.2556 17.1378 45.6914C17.1378 45.1271 16.667 44.6562 16.1027 44.6562C14.6733 44.6562 13.2438 44.6562 11.8144 44.6562C11.2501 44.6562 10.7793 45.1271 10.7793 45.6914C10.7793 46.2556 11.2501 46.7265 11.8144 46.7265Z" fill="#9A4B44"/>
  <path d="M28.7431 46.7265C30.1725 46.7265 31.602 46.7265 33.0314 46.7265C33.5957 46.7265 34.0665 46.2556 34.0665 45.6914C34.0665 45.1271 33.5957 44.6562 33.0314 44.6562C31.602 44.6562 30.1725 44.6562 28.7431 44.6562C28.1788 44.6562 27.708 45.1271 27.708 45.6914C27.708 46.2556 28.1788 46.7265 28.7431 46.7265Z" fill="#9A4B44"/>
</svg>