<svg xmlns="http://www.w3.org/2000/svg" width="39" height="39" viewBox="0 0 39 39" fill="none">
  <g clip-path="url(#clip0_534_1136)">
    <path d="M36.6158 38.7426C37.79 38.7426 38.7421 37.7905 38.7421 36.6163V2.34115C38.7421 1.16648 37.79 0.214844 36.6158 0.214844H2.34066C1.16599 0.214844 0.214355 1.16648 0.214355 2.34115V36.6163C0.214355 37.7905 1.16599 38.7426 2.34066 38.7426H36.6158Z" fill="#3C5A99"/>
    <path d="M22.0106 35.8338V20.9137H27.0188L27.7688 15.099H22.0111V11.3866C22.0111 9.70297 22.4785 8.55613 24.8925 8.55613L27.9717 8.55484V3.35403C27.4392 3.28296 25.6117 3.125 23.485 3.125C19.0457 3.125 16.0063 5.83478 16.0063 10.8109V15.099H10.9849V20.9137H16.0059V35.8338H22.0106Z" fill="white"/>
  </g>
  <defs>
    <clipPath id="clip0_534_1136">
      <rect width="39" height="39" fill="white"/>
    </clipPath>
  </defs>
</svg>