<svg xmlns="http://www.w3.org/2000/svg" width="66" height="53" viewBox="0 0 66 53" fill="none">
  <path d="M56.5358 24.9329C54.7576 23.1496 52.5034 21.9161 50.0428 21.3798C47.5821 20.8435 45.0191 21.0272 42.6601 21.9089C40.301 22.7906 38.2458 24.3329 36.7401 26.3516C35.2343 28.3703 34.3418 30.7799 34.1691 33.2924C33.9964 35.8049 34.5509 38.3139 35.7663 40.5196C36.9817 42.7253 38.8066 44.5344 41.0229 45.7305C43.2391 46.9266 45.7529 47.4592 48.2638 47.2646C50.7746 47.07 53.1764 46.1565 55.1818 44.6332L62.0298 51.4812C62.3637 51.8138 62.816 52.0004 63.2874 52C63.7588 51.9996 64.2107 51.8121 64.544 51.4788C64.8773 51.1455 65.0648 50.6936 65.0652 50.2222C65.0656 49.7508 64.879 49.2985 64.5464 48.9646L57.6984 42.1167C59.6105 39.5942 60.5459 36.4653 60.3323 33.3073C60.1186 30.1492 58.7702 27.1749 56.5358 24.9329ZM40.5147 40.9541C39.1792 39.6186 38.2698 37.9171 37.9013 36.0647C37.5328 34.2124 37.722 32.2924 38.4447 30.5475C39.1675 28.8026 40.3914 27.3112 41.9618 26.2619C43.5321 25.2127 45.3783 24.6526 47.267 24.6526C49.1556 24.6526 51.0019 25.2127 52.5722 26.2619C54.1426 27.3112 55.3665 28.8026 56.0893 30.5475C56.812 32.2924 57.0011 34.2124 56.6327 36.0647C56.2642 37.9171 55.3547 39.6186 54.0193 40.9541C52.2269 42.742 49.7986 43.7461 47.267 43.7461C44.7353 43.7461 42.307 42.742 40.5147 40.9541ZM1 44.2165V8.77767C1.00235 6.71562 1.82254 4.73871 3.28062 3.28062C4.73871 1.82254 6.71562 1.00235 8.77767 1H42.081C44.143 1.00236 46.1199 1.82254 47.578 3.28063C49.0361 4.73871 49.8563 6.71563 49.8586 8.77767V11.808C49.8586 12.28 49.6711 12.7326 49.3374 13.0664C49.0036 13.4001 48.551 13.5876 48.079 13.5876C47.607 13.5876 47.1543 13.4001 46.8205 13.0664C46.4868 12.7326 46.2993 12.28 46.2993 11.808V8.77767C46.2981 7.65928 45.8532 6.58705 45.0624 5.79622C44.2716 5.0054 43.1993 4.56057 42.081 4.55932H8.77767C7.65927 4.56056 6.58704 5.00539 5.79622 5.79622C5.00539 6.58704 4.56056 7.65927 4.55932 8.77767V44.2165C4.56056 45.3349 5.00539 46.4072 5.79622 47.198C6.58704 47.9888 7.65927 48.4336 8.77767 48.4349H30.5528C31.0248 48.4349 31.4774 48.6224 31.8112 48.9561C32.1449 49.2899 32.3324 49.7425 32.3324 50.2145C32.3324 50.6865 32.1449 51.1392 31.8112 51.4729C31.4774 51.8067 31.0248 51.9942 30.5528 51.9942H8.77767C6.71562 51.9919 4.73871 51.1717 3.28062 49.7136C1.82254 48.2555 1.00235 46.2786 1 44.2165ZM11.769 29.0665C12.0027 29.0665 12.2342 29.1125 12.4501 29.2019C12.666 29.2914 12.8622 29.4224 13.0275 29.5877C13.1927 29.753 13.3238 29.9492 13.4133 30.1651C13.5027 30.381 13.5487 30.6124 13.5487 30.8461V38.9332C13.5487 39.4052 13.3612 39.8578 13.0274 40.1916C12.6937 40.5253 12.241 40.7128 11.769 40.7128C11.297 40.7128 10.8444 40.5253 10.5106 40.1916C10.1769 39.8578 9.98937 39.4052 9.98937 38.9332V30.8461C9.98935 30.6124 10.0354 30.381 10.1248 30.1651C10.2142 29.9492 10.3453 29.753 10.5106 29.5877C10.6758 29.4224 10.872 29.2914 11.088 29.2019C11.3039 29.1125 11.5353 29.0665 11.769 29.0665ZM20.0229 21.7045C20.2566 21.7045 20.488 21.7505 20.704 21.84C20.9199 21.9294 21.1161 22.0605 21.2813 22.2257C21.4466 22.391 21.5777 22.5872 21.6671 22.8031C21.7566 23.0191 21.8026 23.2505 21.8026 23.4842V38.9332C21.8026 39.4052 21.6151 39.8578 21.2813 40.1916C20.9476 40.5253 20.4949 40.7128 20.0229 40.7128C19.5509 40.7128 19.0982 40.5253 18.7645 40.1916C18.4307 39.8578 18.2432 39.4052 18.2432 38.9332V23.4842C18.2432 23.2505 18.2892 23.0191 18.3787 22.8031C18.4681 22.5872 18.5992 22.391 18.7644 22.2257C18.9297 22.0605 19.1259 21.9294 19.3418 21.84C19.5578 21.7505 19.7892 21.7045 20.0229 21.7045ZM28.2768 16.0353C28.5105 16.0353 28.7419 16.0813 28.9578 16.1708C29.1738 16.2602 29.3699 16.3913 29.5352 16.5566C29.7005 16.7218 29.8316 16.918 29.921 17.1339C30.0104 17.3499 30.0564 17.5813 30.0564 17.815V38.9332C30.0564 39.4052 29.8689 39.8578 29.5352 40.1916C29.2014 40.5253 28.7488 40.7128 28.2768 40.7128C27.8048 40.7128 27.3521 40.5253 27.0184 40.1916C26.6846 39.8578 26.4971 39.4052 26.4971 38.9332V17.815C26.4971 17.5813 26.5431 17.3499 26.6325 17.1339C26.722 16.918 26.853 16.7218 27.0183 16.5566C27.1836 16.3913 27.3798 16.2602 27.5957 16.1708C27.8116 16.0813 28.043 16.0353 28.2768 16.0353Z" fill="#9A4B44" stroke="#E8E8E8"/>
</svg>