<svg xmlns="http://www.w3.org/2000/svg" width="160" height="107" viewBox="0 0 160 107" fill="none">
  <path d="M121.139 41.0872C120.956 41.1606 120.778 41.2773 120.589 41.298C118.395 41.5408 116.876 42.9147 115.409 44.3922C113.022 46.7957 111.028 49.506 109.249 52.38C108.978 52.8167 108.851 53.3738 108.769 53.8933C108.365 56.4379 107.994 58.9864 107.62 61.5367C107.343 63.4188 107.276 65.2953 108.03 67.0909C108.316 67.7741 108.739 68.3971 109.096 69.0502C109.189 69.2214 109.268 69.4021 109.352 69.5772C109.313 69.6374 109.274 69.6976 109.232 69.7579C108.581 69.4661 107.895 69.2346 107.289 68.8695C105.385 67.7195 103.312 67.6292 101.252 68.0376C98.4594 68.5928 95.661 69.0408 92.8382 69.4021C91.9608 69.5151 91.1153 70.1569 90.3277 70.6688C87.6658 72.3985 85.2658 74.4557 83.1239 76.8046C82.0314 78.0016 81.257 79.385 81.1129 81.0582C81.0868 81.3594 80.9708 81.653 80.8473 82.148C80.6359 81.8318 80.4994 81.7208 80.4919 81.6003C80.3535 79.4471 79.1263 77.8473 77.7682 76.3585C75.2504 73.5956 72.2685 71.401 69.0267 69.5885C68.2878 69.1744 67.2964 69.2158 66.419 69.0577C64.5278 68.7151 62.6403 68.3594 60.7454 68.047C58.1265 67.6141 55.5749 67.6179 53.3208 69.3494C52.9972 69.5979 52.5987 69.7484 52.2358 69.9461C52.1647 69.8651 52.0918 69.7842 52.0207 69.7033C52.219 69.4454 52.378 69.1424 52.6193 68.9391C53.7417 67.9905 54.1888 66.7445 54.2823 65.3254C54.4263 63.129 53.9213 61.0266 53.4517 58.9054C53.0851 57.2473 52.8943 55.5514 52.5856 53.8782C52.479 53.306 52.3555 52.6944 52.0618 52.2106C49.8844 48.6195 47.2767 45.3879 44.0592 42.6757C43.1669 41.9247 42.2035 41.4053 41.0007 41.409C40.7145 41.409 40.4283 41.2302 40.1421 41.1323C40.1496 41.0608 40.1571 40.9874 40.1627 40.9159C40.3086 40.85 40.4732 40.7013 40.5985 40.7296C42.4149 41.1418 43.6234 40.0821 44.8075 38.9811C47.75 36.2444 50.1164 33.0523 52.2134 29.6306C52.6717 28.8834 52.7895 28.1305 52.8999 27.308C53.1169 25.6724 53.4891 24.0575 53.6762 22.4201C53.8595 20.8109 53.8969 19.1847 53.9942 17.5642C54.0877 16.0359 53.448 14.7654 52.6324 13.542C52.3275 13.0847 52.1217 12.5595 51.871 12.0645C51.9459 12.0118 52.0207 11.9573 52.0955 11.9046C52.2489 11.9629 52.4322 11.9855 52.5519 12.0852C54.9875 14.0916 57.8103 14.3419 60.7734 13.9203C63.108 13.5891 65.4706 13.3632 67.7603 12.8268C68.9313 12.552 70.0481 11.8104 71.0508 11.0858C72.9756 9.69492 74.8893 8.26072 76.644 6.66278C78.0077 5.42057 79.521 4.20094 79.9887 2.23787C80.1178 1.69205 80.1683 1.12364 80.3235 0.585346C80.3871 0.363254 80.6341 0.193861 80.7968 0C80.9296 0.191979 81.1709 0.380193 81.1784 0.575936C81.2589 2.54277 82.1755 3.99767 83.4962 5.44127C85.2845 7.39682 87.2225 9.13027 89.3737 10.6303C90.6476 11.5168 91.8448 12.6066 93.4424 12.8964C94.5741 13.1016 95.7264 13.1901 96.8638 13.3726C98.5343 13.6437 100.192 14.0013 101.866 14.2346C104.344 14.581 106.586 13.9391 108.589 12.4259C108.834 12.2396 109.154 12.153 109.438 12.0194L109.61 12.2452C109.476 12.4711 109.371 12.7233 109.199 12.9171C107.906 14.372 107.41 16.0697 107.622 17.997C107.878 20.329 108.232 22.6553 108.35 24.9949C108.488 27.7334 109.565 30.0183 111.137 32.1733C113.054 34.8027 115.097 37.3041 117.581 39.4252C118.391 40.116 119.235 40.6279 120.331 40.6355C120.606 40.6373 120.879 40.7653 121.152 40.835C121.148 40.9178 121.145 41.0006 121.139 41.0834V41.0872ZM61.8135 44.2774C61.8135 44.3207 61.8135 44.3621 61.8135 44.4054C59.6323 44.4054 57.4512 44.428 55.2719 44.3922C54.5722 44.3809 54.1925 44.6331 54.1289 45.3182C53.9287 47.4695 53.7361 49.6227 53.5621 51.7777C53.5453 51.9885 53.6294 52.2615 53.7623 52.4252C55.4589 54.52 57.2809 56.4737 59.9335 57.3432C61.0933 57.7234 62.3167 57.9794 63.4578 57.3771C64.1163 57.0289 64.6793 56.4662 65.2237 55.9354C67.2328 53.9799 69.21 51.9923 71.2116 50.0274C71.6737 49.5738 71.8065 49.154 71.4492 48.5386C70.7889 47.4055 70.1772 46.2386 69.6066 45.0566C69.3335 44.492 68.9837 44.2586 68.3552 44.268C66.1759 44.2962 63.9965 44.2793 61.8172 44.2793L61.8135 44.2774ZM99.5276 44.2755V44.3997C97.3221 44.3997 95.1147 44.4148 92.9092 44.3903C92.2975 44.3828 91.8841 44.6011 91.5979 45.1357C91.0517 46.1595 90.5148 47.1872 89.9293 48.1866C89.5907 48.7644 89.7179 49.1578 90.1744 49.602C92.623 51.9885 95.0436 54.4052 97.4923 56.7937C97.7561 57.0515 98.1059 57.2905 98.4557 57.3734C99.6623 57.6651 100.848 57.4919 102.001 57.0553C104.232 56.2064 105.923 54.648 107.386 52.8186C107.654 52.4836 107.809 51.9942 107.858 51.5575C108.099 49.4571 107.852 47.3961 107.291 45.3578C107.079 44.5898 106.745 44.2398 105.91 44.2586C103.783 44.3056 101.654 44.2736 99.5257 44.2736L99.5276 44.2755ZM94.2598 40.3117C94.7537 40.3513 95.0754 40.3983 95.3953 40.3983C98.0348 40.3983 100.678 40.3324 103.316 40.4077C105.072 40.4585 106.097 39.5099 106.823 38.119C108.093 35.6798 108.187 33.0203 108.071 30.3477C108.054 29.9581 107.919 29.4744 107.663 29.209C106.275 27.7729 104.949 26.254 103.052 25.4277C102.562 25.2151 102.313 25.2696 102.085 25.7458C101.795 26.3481 101.454 26.9259 101.134 27.5132C99.0412 31.3546 96.948 35.1923 94.8584 39.0356C94.6658 39.3914 94.5124 39.7697 94.2617 40.3117H94.2598ZM66.8867 40.2703C66.7932 40.0313 66.7539 39.8864 66.6847 39.7584C64.1817 35.2149 61.6676 30.677 59.1778 26.126C58.9065 25.6291 58.5735 25.5614 58.1919 25.8531C57.2398 26.5777 56.3718 27.4266 55.3785 28.0835C53.708 29.1864 53.2909 30.7015 53.5004 32.5987C53.6987 34.3943 53.7604 36.2105 54.6546 37.8367C55.4889 39.3537 56.5738 40.5244 58.5062 40.3776C59.0674 40.3362 59.6286 40.2703 60.1898 40.276C62.1091 40.2929 64.0284 40.3418 65.9458 40.3663C66.2376 40.3701 66.5275 40.3098 66.8867 40.2703ZM108.948 50.5449C110.39 48.7475 111.754 46.9689 113.2 45.2618C114.663 43.5358 116.388 42.0979 118.578 40.9592C114.336 38.6837 111.928 34.8234 108.974 31.1626C108.639 34.9721 108.522 38.6366 105.108 41.1098C106.801 42.0922 107.743 43.5622 108.142 45.3032C108.527 46.9896 108.679 48.7287 108.948 50.5449ZM80.9539 65.8938C79.8503 66.6523 78.9393 67.36 77.9534 67.9378C76.2025 68.9636 74.2159 69.1292 72.2555 69.3607C71.9767 69.3927 71.7017 69.4661 71.2191 69.5602C74.8874 72.3176 78.4828 74.8302 80.7687 78.8994C82.9106 74.7211 86.506 72.231 89.9648 69.5828C88.1971 69.2534 86.5584 69.0257 84.9609 68.6305C83.2773 68.2126 81.9697 67.1266 80.9558 65.8957L80.9539 65.8938ZM93.6706 68.4159C94.2056 68.3895 94.5012 68.4008 94.7911 68.3557C96.1529 68.143 97.511 67.9002 98.8766 67.6988C101.699 67.2828 104.524 66.9177 107.3 67.9717C107.334 67.9849 107.39 67.9341 107.519 67.8738C107.487 67.6819 107.483 67.456 107.409 67.2546C106.752 65.4948 106.675 63.688 106.902 61.8434C107.167 59.6696 107.407 57.4919 107.648 55.3143C107.669 55.1317 107.622 54.9416 107.598 54.6311C106.739 55.3726 106.013 56.054 105.231 56.6638C103.557 57.9681 101.733 58.9017 99.5332 58.8395C98.4838 58.8094 98.5287 58.913 98.4763 59.9914C98.4258 61.0454 98.2499 62.1389 97.887 63.1233C97.1949 64.9979 95.8256 66.4152 94.3796 67.744C94.2019 67.9077 94.0279 68.079 93.6743 68.4178L93.6706 68.4159ZM52.4304 50.5129C52.5127 50.1309 52.5538 49.9878 52.5744 49.841C52.7689 48.5423 52.8961 47.2286 53.1674 45.9469C53.5453 44.1645 54.374 42.6061 55.8536 41.4805C56.3344 41.1154 56.2483 40.8933 55.8387 40.5357C55.3392 40.1009 54.8603 39.621 54.4712 39.0865C53.0608 37.1516 52.782 34.8686 52.5894 32.5686C52.5669 32.3107 52.5145 32.0548 52.4416 31.5598C49.7422 35.2563 47.2562 38.8211 43.3933 41.1907C47.3048 43.3984 49.7067 46.982 52.4304 50.5129ZM80.6584 3.28622C78.6175 7.66032 74.5713 9.64975 71.2939 12.6028C72.2162 12.6706 73.028 12.7082 73.8361 12.7929C75.6694 12.9849 77.4278 13.4799 78.9767 14.4869C79.6894 14.9499 80.23 15.6801 80.9053 16.3426C82.9742 12.8569 86.6501 12.9943 90.3708 12.6913C86.4611 10.1466 83.1482 7.33283 80.6565 3.28434L80.6584 3.28622ZM67.3618 68.3519C67.3076 68.1919 67.3039 68.1336 67.2739 68.0997C67.0981 67.9134 66.9091 67.7383 66.7352 67.5501C64.7037 65.3273 63.0051 62.9426 63.0444 59.7298C63.05 59.2536 62.8068 59.1162 62.371 59.1068C61.7836 59.0918 61.1887 59.0767 60.6144 58.9657C58.5361 58.5666 56.8021 57.5126 55.2906 56.0502C54.9202 55.6926 54.503 55.3839 53.9755 54.9398C53.9755 55.5759 53.9287 55.99 53.983 56.3909C54.1663 57.746 54.3665 59.0993 54.5966 60.445C54.9108 62.282 55.1802 64.1171 54.8659 65.9823C54.7743 66.5225 54.6733 67.0607 54.5423 67.7929C58.9776 66.4359 63.1117 67.8701 67.3637 68.3519H67.3618ZM81.1616 64.6855C81.5638 65.2482 81.9734 65.8524 82.4168 66.4321C82.7329 66.8481 83.0584 66.8161 83.4363 66.4396C84.7289 65.1541 86.044 63.8931 87.3553 62.6283C89.5739 60.4902 91.7962 58.3558 94.0204 56.2253C94.3403 55.9185 94.6134 55.6474 94.1757 55.207C92.5987 53.6241 91.033 52.0262 89.4672 50.4339C89.1287 50.0914 88.8612 50.097 88.6516 50.5656C88.5787 50.7294 88.4721 50.8781 88.386 51.0362C86.2815 54.9285 84.1715 58.8188 82.0763 62.7168C81.7621 63.3021 81.5133 63.9232 81.1635 64.6874L81.1616 64.6855ZM69.7825 28.9963C70.3624 30.4851 71.2771 31.6426 72.4332 32.5949C73.939 33.8334 75.4991 35.006 77.0368 36.2087C78.7821 37.5732 79.7156 39.3236 79.4181 41.5822C79.2423 42.9072 78.8813 44.2096 78.7148 45.5347C78.5745 46.647 78.4005 47.814 78.5838 48.8981C79.1039 51.9641 79.7979 55 80.4302 58.0472C80.4638 58.2053 80.5574 58.3502 80.6228 58.5008C80.924 58.1149 81.083 57.7178 81.1728 57.3075C81.6199 55.2465 82.0501 53.1818 82.486 51.119C82.9163 49.0919 83.2866 47.0818 82.5889 45.0152C82.2447 43.9989 82.0146 42.9147 81.9304 41.8457C81.8612 40.9705 81.9922 40.0482 82.1998 39.1881C82.645 37.3417 84.0891 36.3254 85.5483 35.3203C87.7126 33.8277 89.7666 32.2053 91.1602 29.8997C91.3996 29.5045 91.5811 29.0735 91.8635 28.5126C91.6129 28.6142 91.5511 28.6199 91.5268 28.6519C91.3884 28.8382 91.2556 29.0283 91.1303 29.2221C89.7647 31.3094 87.9838 32.898 85.7765 34.0856C84.2482 34.9062 82.8396 35.964 81.431 36.9897C80.8773 37.3944 80.49 37.4716 79.9513 37.0161C79.2086 36.3856 78.4435 35.7701 77.6298 35.2394C76.1501 34.2738 74.5358 33.4927 73.1496 32.4105C71.9337 31.46 70.9553 30.2046 69.7862 28.9963H69.7825ZM77.7028 67.584C77.3361 67.1511 77.1752 66.9309 76.9844 66.7408C76.1782 65.9465 75.3607 65.1673 74.5545 64.3749C72.0815 61.9451 69.6197 59.5021 67.1261 57.091C66.9017 56.8746 66.3068 56.6732 66.1759 56.7918C65.233 57.6425 64.1537 58.4744 64.3351 59.9764C64.4305 60.7631 64.539 61.5687 64.7934 62.314C65.6408 64.7946 67.4591 66.5545 69.3466 68.239C69.5524 68.4234 69.9134 68.5119 70.2015 68.5081C71.5839 68.4912 72.9738 68.5062 74.3431 68.3519C75.4094 68.2314 76.4494 67.8795 77.7046 67.584H77.7028ZM72.4612 50.4584C70.8113 52.0921 69.2736 53.5978 67.7696 55.1374C67.6649 55.2447 67.736 55.6832 67.8707 55.8413C68.2841 56.3307 68.7667 56.7598 69.2231 57.2096C72.2442 60.1834 75.2616 63.1591 78.2976 66.1178C78.4828 66.2985 78.8532 66.4622 79.0702 66.3982C79.6202 66.2345 80.0972 65.0977 79.8895 64.5688C79.6351 63.9251 79.3807 63.2739 79.059 62.6641C77.4222 59.5717 75.7648 56.4906 74.1074 53.4096C73.5873 52.444 73.0411 51.4917 72.465 50.4546L72.4612 50.4584ZM77.078 14.9028C74.6199 13.8018 72.1881 13.6361 69.7151 13.7867C69.5056 13.7999 69.2867 13.9486 69.1072 14.0822C67.3244 15.3884 65.9476 17.0729 65.1433 19.1075C64.7149 20.1935 64.7037 21.464 64.6101 22.6591C64.5615 23.2972 64.9281 23.6924 65.6764 23.6435C66.4939 23.5889 67.3207 23.683 68.1363 23.6115C68.531 23.5776 69.0024 23.4101 69.2755 23.1372C71.5315 20.8843 73.7557 18.5993 75.9724 16.3069C76.3578 15.9098 76.6646 15.4336 77.078 14.9028ZM84.2519 67.5633C84.6372 67.727 84.8561 67.8381 85.0862 67.9171C87.0672 68.5834 89.1231 68.5401 91.1733 68.5458C91.3884 68.5458 91.6503 68.4648 91.8112 68.3274C93.8745 66.5714 95.9135 64.7626 96.8226 62.0975C97.3838 60.4488 97.2323 58.785 96.2053 57.3056C95.7152 56.5979 95.4945 56.6186 94.8865 57.2077C92.3424 59.6771 89.7927 62.1389 87.2487 64.6102C86.2778 65.5531 85.3219 66.5093 84.2519 67.5633ZM84.684 14.6732C84.669 14.7842 84.656 14.8972 84.641 15.0082C84.8337 15.2378 85.0151 15.4787 85.2228 15.6933C87.1028 17.6263 88.9809 19.5592 90.8702 21.4828C93.042 23.6924 93.0477 23.6698 96.1155 23.6341C96.8301 23.6265 97.0434 23.3254 97.0845 22.6704C97.1837 21.0386 96.8058 19.531 95.8985 18.1966C94.1906 15.6858 92.479 13.1411 88.7901 13.9203C87.4282 14.2083 86.0533 14.4247 84.684 14.6751V14.6732ZM54.5517 14.1594C54.7238 14.6148 54.7818 14.8369 54.8846 15.0346C56.2633 17.6827 57.6532 20.3234 59.0225 22.9734C59.2788 23.4684 59.6136 23.6849 60.1823 23.651C60.9231 23.6058 61.6695 23.6152 62.4102 23.6472C63.0818 23.6774 63.2782 23.3913 63.1548 22.7589C62.8816 21.3661 63.0762 19.9846 63.7421 18.78C64.5316 17.3515 65.5361 16.0434 66.4527 14.6864C66.6005 14.468 66.7745 14.2704 67.0251 13.9486C62.8106 13.9316 58.8186 15.4674 54.5498 14.1575L54.5517 14.1594ZM94.5142 14.1104C94.75 14.4737 94.8528 14.6977 95.0118 14.8689C97.1313 17.1576 98.77 19.6496 98.4763 22.9828C98.4351 23.4421 98.6577 23.6378 99.116 23.6247C99.8082 23.604 100.5 23.5889 101.192 23.6152C101.731 23.6359 102.032 23.3969 102.274 22.932C103.379 20.809 104.52 18.7029 105.628 16.5798C105.938 15.9832 106.174 15.347 106.498 14.6054C105.94 14.6487 105.562 14.6977 105.183 14.7033C103.783 14.7278 102.378 14.8256 100.989 14.7278C99.6136 14.6299 98.2574 14.2892 96.8844 14.1255C96.1698 14.0408 95.4365 14.1104 94.5161 14.1104H94.5142ZM91.1808 23.5042C90.7168 23.0186 90.3839 22.6572 90.0378 22.309C87.9221 20.1747 85.812 18.0347 83.6776 15.9192C83.513 15.7554 83.1557 15.6368 82.9462 15.6971C82.1811 15.9173 81.5226 16.8791 81.517 17.6921C81.5058 19.3428 81.532 20.9934 81.4946 22.6422C81.4777 23.3668 81.7228 23.6529 82.4673 23.6435C85.1068 23.6077 87.7463 23.6228 90.3857 23.6115C90.5765 23.6115 90.7673 23.5625 91.1808 23.5061V23.5042ZM70.6504 23.4948C71.1405 23.5682 71.3837 23.6341 71.6269 23.6359C74.2178 23.6416 76.8067 23.6265 79.3976 23.6435C80.0224 23.6472 80.1832 23.3612 80.1795 22.7909C80.1664 21.2946 80.1271 19.7945 80.2244 18.3057C80.2861 17.359 80.0205 16.6645 79.334 16.0509C78.8345 15.6048 78.4735 15.5841 77.9759 16.0942C76.3447 17.7731 74.663 19.4011 73.0093 21.0574C72.2723 21.7971 71.5558 22.5594 70.6504 23.4948ZM53.6631 27.4906C55.1353 26.4083 56.5196 25.4108 57.8683 24.3681C57.9955 24.2683 57.9974 23.8411 57.902 23.6397C57.2435 22.2432 56.5495 20.8636 55.8518 19.4877C55.5618 18.9155 55.2363 18.3641 54.9277 17.807C54.5012 21.0762 54.0859 24.2552 53.6612 27.4906H53.6631ZM106.546 17.6846C106.546 17.6846 106.475 17.7016 106.456 17.7392C105.429 19.6703 104.395 21.5957 103.404 23.5456C103.34 23.6717 103.548 24.0651 103.723 24.1686C105.029 24.9327 106.301 25.7289 107.315 26.8826C107.422 27.005 107.583 27.0784 107.82 27.2459C107.384 23.9766 106.965 20.8353 106.546 17.6846ZM105.824 42.9919L105.89 42.7021C105.272 42.0847 104.685 41.5219 103.63 41.6292C102.365 41.7591 101.08 41.7233 99.8063 41.7139C98.0666 41.7008 96.3288 41.6311 94.5909 41.6142C93.4405 41.6029 93.2647 41.7723 92.9354 42.9919H105.828H105.824ZM68.2018 43.0126C68.0409 41.872 67.7809 41.6066 66.8792 41.6066C63.7571 41.6066 60.6369 41.6198 57.5148 41.6255C56.5402 41.6255 55.9902 42.2428 55.328 43.0145H68.1999L68.2018 43.0126ZM60.1281 24.545C60.0364 24.6523 59.9466 24.7615 59.8549 24.8687C60.332 25.567 60.678 26.4272 61.3047 26.9353C65.1713 30.0616 69.0978 33.1107 73.0093 36.1823C73.9054 36.8862 74.8145 37.5732 75.7199 38.2677C75.4281 37.8047 75.0913 37.3944 74.7004 37.0481C72.8765 35.4332 71.0208 33.8503 69.2044 32.226C66.5257 29.832 63.8768 27.4021 61.1925 25.0137C60.9156 24.7671 60.4853 24.6975 60.1281 24.5469V24.545ZM85.1835 37.528C85.2564 37.6033 85.3275 37.6786 85.4005 37.7539C90.2454 33.4513 95.0885 29.1487 100.07 24.7257C98.9346 24.4566 98.1452 24.5017 97.4493 25.2264C96.1716 26.557 94.8472 27.8444 93.5509 29.16C91.1939 31.5541 88.8481 33.9614 86.4873 36.3536C86.0758 36.7695 85.6175 37.1384 85.1816 37.528H85.1835ZM85.7858 38.1134C85.8101 38.151 85.8345 38.1868 85.8588 38.2244C86.2198 37.9628 86.5958 37.7219 86.9381 37.4377C88.0063 36.555 89.0295 35.6158 90.1257 34.7726C92.6268 32.8453 95.1821 30.9914 97.6682 29.0471C98.6334 28.2924 99.5051 27.4059 100.358 26.5213C100.822 26.0413 101.091 25.4108 101.192 24.7521L100.929 24.5582C95.8798 29.0753 90.8328 33.5944 85.7839 38.1115L85.7858 38.1134ZM61.7162 24.8782C66.4845 29.1337 71.2528 33.3911 76.0211 37.6466C75.8564 37.2156 75.5777 36.8975 75.2803 36.5964C73.5462 34.8479 71.7971 33.1125 70.0705 31.3565C68.1064 29.3595 66.1272 27.3758 64.2248 25.3205C63.4952 24.5318 62.7189 24.5093 61.7144 24.8782H61.7162ZM80.7295 24.5883C80.6266 24.5883 80.5256 24.5883 80.4227 24.5883C79.3433 24.5883 79.2853 24.6655 79.4181 25.7308C79.5266 26.5984 79.5902 27.4718 79.6894 28.3394C79.753 28.9003 79.8334 29.4612 79.9288 30.0183C80.0298 30.6206 80.5312 30.7448 80.9764 30.6582C81.199 30.6149 81.4665 30.1877 81.502 29.9072C81.691 28.3771 81.8032 26.8356 81.9641 25.3016C82.0165 24.8048 81.8593 24.5638 81.3468 24.5902C81.1429 24.6015 80.9371 24.5902 80.7332 24.5902L80.7295 24.5883ZM67.0831 37.9478C67.2926 39.03 67.7285 39.5589 68.5983 39.8675C70.7702 40.6355 72.9457 41.3958 75.1194 42.1562C75.9874 42.4593 76.8554 42.7679 77.7327 43.0465C77.8674 43.0898 78.0488 42.9844 78.2097 42.9486C78.1237 42.7849 78.0619 42.6004 77.9459 42.463C77.873 42.3746 77.7215 42.3482 77.6036 42.2993C75.5758 41.4448 73.5499 40.5828 71.5184 39.7396C70.0836 39.1448 68.6357 38.5745 67.0831 37.9478ZM99.0786 28.9191L98.8654 28.6726C94.7051 31.923 90.5447 35.1735 86.3844 38.4221C86.4349 38.4898 86.4836 38.5576 86.5341 38.6234C90.4026 35.9489 94.3272 33.3572 98.2312 30.5735C97.9151 30.3703 97.7935 30.2912 97.6962 30.2291C98.1882 29.7623 98.6334 29.3388 99.0786 28.9172V28.9191ZM86.4368 32.2693C89.0015 31.3734 92.0188 27.0539 91.8317 25.3525C89.1361 26.9655 88.0399 29.815 86.4368 32.2693ZM83.0678 42.7529C83.1052 42.8696 83.1445 42.9881 83.1819 43.1048C83.4606 43.054 83.7468 43.0333 84.0143 42.9467C84.4034 42.8225 84.7738 42.6399 85.1592 42.5044C87.7182 41.6048 90.2754 40.7013 92.84 39.8205C93.6238 39.5513 93.8595 38.9284 93.9643 38.1002C90.3315 39.6511 86.6987 41.2001 83.0659 42.751L83.0678 42.7529ZM75.1138 32.4557C74.8744 32.0096 74.7565 31.7329 74.59 31.4864C73.7389 30.231 72.7755 29.0396 72.0478 27.7146C71.4604 26.6455 70.5625 26.0846 69.5804 25.52C69.8292 28.0496 72.6782 31.5391 75.1138 32.4538V32.4557ZM64.0078 30.9914C67.6013 33.4758 71.1181 35.9075 74.6349 38.3374C74.6854 38.2677 74.7359 38.1981 74.7846 38.1303C70.5438 34.8272 66.3049 31.524 62.0642 28.219C62.0024 28.2961 61.9426 28.3714 61.8808 28.4486C62.7619 29.1958 63.643 29.943 64.5577 30.7185C64.3445 30.8239 64.2248 30.8841 64.0078 30.9914ZM75.0614 39.461C75.1063 39.3838 75.1493 39.3085 75.1942 39.2314C71.3837 36.6641 67.5732 34.0988 63.7627 31.5315C63.8731 32.339 64.1369 32.8999 64.8309 33.2763C66.3573 34.1044 67.8258 35.0474 69.3111 35.9508C71.2303 37.1159 73.144 38.2903 75.0595 39.4591L75.0614 39.461ZM97.3894 31.8383C93.8876 34.1854 90.5129 36.4458 87.1402 38.7063C87.1907 38.7891 87.2393 38.8719 87.2898 38.9547C88.0942 38.4898 88.9023 38.0306 89.7029 37.5563C91.4614 36.5136 93.2272 35.4803 94.9669 34.4056C95.9397 33.8052 96.976 33.2405 97.3894 31.8383ZM65.2536 34.1985C65.1601 34.3115 65.0684 34.4225 64.9749 34.5354C65.3603 34.8949 65.6932 35.3485 66.1384 35.5951C67.6162 36.4119 69.1333 37.1591 70.6392 37.9252C72.0216 38.6272 73.4096 39.318 74.7939 40.0125L74.9043 39.8073C71.6868 37.9384 68.4693 36.0675 65.2536 34.1985ZM86.7099 39.7697C86.7548 39.8468 86.7978 39.9259 86.8427 40.0031C88.0905 39.3669 89.3344 38.7232 90.5859 38.0946C92.0731 37.3455 93.5658 36.6133 95.053 35.8623C95.5637 35.6045 95.9434 35.2506 95.8836 34.4394C92.7465 36.2614 89.7291 38.0155 86.7118 39.7697H86.7099ZM68.589 28.7309C68.5759 28.7422 68.5609 28.7554 68.5478 28.7667C68.2747 28.4128 67.9997 28.0571 67.678 27.6411C67.938 27.5772 68.1138 27.5357 68.3795 27.4718C67.7771 26.7377 67.2215 26.0752 66.6809 25.3995C65.972 24.5111 65.6072 24.3945 64.3613 24.7577C65.7961 26.1072 67.1916 27.4191 68.589 28.7309ZM93.0046 28.7911C92.9784 28.7686 92.9541 28.7441 92.9279 28.7215C94.3122 27.3983 95.6984 26.0771 97.1481 24.6918C96.3007 24.513 95.631 24.4264 95.0623 25.2207C94.4076 26.1373 93.6238 26.9598 92.8943 27.8218C92.9392 27.867 92.9841 27.9103 93.029 27.9555C93.2628 27.8162 93.4947 27.6788 93.7286 27.5395C93.766 27.579 93.8034 27.6186 93.8408 27.6562L93.0028 28.7911H93.0046ZM81.8013 32.9413C81.85 32.9111 81.8986 32.8829 81.9491 32.8528C81.7134 32.4632 81.5582 31.9362 81.214 31.7273C80.9446 31.5635 80.361 31.6727 80.0579 31.8741C79.4799 32.258 79.4294 33.073 79.8989 33.888C80.0804 34.2042 80.5013 34.6597 80.737 34.6164C81.4946 34.479 81.6573 33.7638 81.7864 33.0937C81.7957 33.0429 81.7976 32.9921 81.8032 32.9413H81.8013ZM79.2423 56.7504C79.1413 56.741 79.0384 56.7297 78.9374 56.7203C78.7148 57.1437 78.4361 57.5484 78.2883 57.9963C78.1686 58.3596 78.0526 58.8452 78.1966 59.1539C78.6998 60.2436 79.3153 61.2826 79.8952 62.3366C79.9195 62.3817 80.0093 62.3893 80.1252 62.4401C79.8259 60.5052 79.536 58.6287 79.246 56.7541L79.2423 56.7504ZM82.2297 56.2723C81.8949 58.2693 81.5918 60.0855 81.2869 61.8999C81.3636 61.9206 81.4422 61.9432 81.5189 61.9639C82.0052 61.0642 82.5084 60.1721 82.9742 59.263C83.397 58.4386 83.1295 57.1814 82.2279 56.2723H82.2297ZM86.0009 31.62C86.0627 31.6539 86.1244 31.6878 86.1861 31.7216C87.7425 29.4085 89.3008 27.0953 90.8871 24.7408C90.223 24.4415 89.9012 24.6994 89.6431 25.1454C88.4665 27.1687 87.2823 29.1901 86.1094 31.2153C86.0421 31.332 86.0365 31.4845 86.0009 31.62ZM75.4225 32.1677C75.4991 32.1225 75.5758 32.0755 75.6507 32.0303C75.2709 31.3508 74.8987 30.6676 74.5114 29.9938C73.5668 28.347 72.6146 26.7038 71.6662 25.0588C71.4324 24.6523 71.1349 24.4566 70.5476 24.7916C72.1862 27.2722 73.8043 29.7209 75.4206 32.1677H75.4225ZM66.2357 36.2124C66.1721 36.2877 66.1066 36.363 66.043 36.4383C66.333 36.7451 66.5724 37.1384 66.9222 37.3398C67.5639 37.7068 68.2654 37.9685 68.9481 38.2602C70.9385 39.1109 72.9307 39.956 74.923 40.803C74.9529 40.739 74.9828 40.6731 75.0128 40.6091C72.0871 39.1429 69.1614 37.6767 66.2357 36.2124ZM78.0039 51.3787C77.9029 51.0682 78.0488 50.3793 77.3567 50.7802C76.5448 51.2508 75.7928 51.8323 75.0521 52.412C74.9192 52.5174 74.8856 52.8807 74.951 53.0764C75.0203 53.2835 75.3832 53.6015 75.4112 53.5808C76.2829 52.9541 77.1322 52.2935 77.9778 51.6291C78.0189 51.5971 77.9946 51.4823 78.0021 51.3769L78.0039 51.3787ZM72.3359 47.7405C74.0251 47.5166 75.5235 47.334 77.0125 47.1006C77.1883 47.0724 77.3193 46.7694 77.4727 46.5924C77.2445 46.4889 77.0031 46.2744 76.788 46.3007C75.3401 46.4682 73.896 46.6734 72.4556 46.9011C72.2629 46.9312 72.1021 47.1571 71.9262 47.2907C72.0946 47.4752 72.2629 47.6596 72.3359 47.7387V47.7405ZM95.0137 36.7112C94.9426 36.6246 94.8697 36.5362 94.7986 36.4496C92.2339 37.7445 89.6693 39.0375 86.9419 40.4134C87.2169 40.4755 87.2749 40.5094 87.3104 40.4943C89.6431 39.5062 91.9833 38.5312 94.2991 37.5055C94.5947 37.3737 94.778 36.9822 95.0137 36.7093V36.7112ZM76.2624 32.1959C76.3222 32.1715 76.3821 32.147 76.442 32.1225C76.1557 31.5014 75.8789 30.8728 75.5796 30.2573C74.7453 28.5465 73.9166 26.8318 73.043 25.1417C72.9233 24.9102 72.5585 24.8085 72.306 24.6467C72.3359 24.9177 72.2929 25.2264 72.4088 25.4522C72.9083 26.4083 73.447 27.3438 73.9839 28.2792C74.7378 29.5892 75.5029 30.8916 76.2624 32.1959ZM89.2764 24.8273C89.1623 24.7464 89.0482 24.6655 88.9341 24.5827C87.7537 25.2508 87.649 26.6681 87.0448 27.7221C86.4162 28.8156 85.9317 29.9938 85.3836 31.1344C85.4641 31.1739 85.5445 31.2116 85.6249 31.2511C86.8427 29.1092 88.0605 26.9673 89.2783 24.8273H89.2764ZM73.737 24.5657C73.6379 24.6561 73.5406 24.7483 73.4414 24.8386C74.4086 26.8695 75.3776 28.8984 76.3447 30.9293C76.5336 30.7843 76.5729 30.6996 76.5504 30.6413C75.8059 28.7535 75.0652 26.8638 74.2907 24.9892C74.214 24.8029 73.9259 24.705 73.737 24.5657ZM74.9754 24.6109C74.8762 24.6711 74.7771 24.7295 74.6798 24.7897C75.5964 27.0727 76.513 29.3558 77.4297 31.6369C77.512 31.6049 77.5961 31.5748 77.6784 31.5428C76.9414 29.384 76.21 27.2233 75.4524 25.072C75.3869 24.8838 75.1381 24.7615 74.9754 24.609V24.6109ZM84.6036 31.0441C84.6821 31.0892 84.7607 31.1344 84.8374 31.1796C85.8027 29.2052 86.7754 27.2346 87.7201 25.2508C87.7911 25.1003 87.6658 24.8556 87.6321 24.6561C87.4432 24.7935 87.1607 24.8895 87.0803 25.0758C86.2348 27.0577 85.4229 29.0528 84.6017 31.0441H84.6036ZM83.8927 31.0949C84.0611 30.9819 84.1247 30.965 84.1397 30.9255C84.9235 29.0584 85.7129 27.1951 86.4667 25.3167C86.5359 25.1435 86.3826 24.8782 86.3321 24.6561C86.1469 24.8311 85.8644 24.9742 85.7933 25.1887C85.1517 27.1066 84.5475 29.0377 83.8927 31.0949ZM78.1461 31.5786C78.206 31.3885 78.2565 31.3151 78.2415 31.2567C77.7084 29.1883 77.1771 27.1198 76.6178 25.0588C76.5748 24.8989 76.3204 24.7972 76.1651 24.6692C76.1183 24.8518 75.9911 25.0551 76.036 25.2113C76.3073 26.1524 76.6047 27.084 76.9152 28.0138C77.3024 29.1694 77.7102 30.3194 78.1461 31.5786ZM84.2912 46.3064C84.2837 46.4061 84.2762 46.504 84.2687 46.6037C85.6867 46.9482 87.1028 47.2964 88.5226 47.6333C88.6666 47.6671 88.8499 47.6784 88.9715 47.6163C89.1137 47.541 89.2764 47.3829 89.2952 47.2418C89.3082 47.142 89.1081 46.9275 88.9827 46.9105C87.4226 46.6941 85.8569 46.504 84.293 46.3064H84.2912ZM83.4681 29.9562C83.5523 29.9788 83.6346 30.0014 83.7188 30.0239C84.2762 28.3808 84.8393 26.7396 85.378 25.0927C85.4173 24.9704 85.2901 24.7935 85.2396 24.641C85.0899 24.7088 84.8542 24.7408 84.8075 24.8537C84.6503 25.2282 84.5493 25.6291 84.4502 26.0244C84.1172 27.3344 83.7955 28.6462 83.4681 29.9562ZM78.5689 30.598C78.6531 30.5886 78.7354 30.5773 78.8195 30.5679C78.4417 28.6839 78.0694 26.7998 77.6766 24.9177C77.6541 24.8104 77.4689 24.737 77.3604 24.6467C77.2987 24.8405 77.1472 25.057 77.1883 25.2264C77.6317 27.0219 78.105 28.8081 78.5689 30.598ZM78.2976 24.5657C78.365 26.6173 78.9374 28.4505 79.203 30.3251C79.5135 29.1807 78.928 25.0174 78.2976 24.5657ZM82.8844 29.2466L83.1463 29.3106C83.5167 27.7767 83.8871 26.2446 84.2594 24.7107L83.8273 24.6053C83.1875 26.0733 83.094 27.675 82.8863 29.2466H82.8844ZM74.0008 42.2183C72.1582 41.5822 70.3175 40.9441 68.4749 40.308C68.4318 40.4435 68.387 40.5771 68.3439 40.7126C70.1323 41.5163 72.0665 41.8683 74.0008 42.2183ZM94.8472 24.8123C94.8098 24.7257 94.7705 24.6391 94.7331 24.5526C94.2318 24.6128 93.4555 24.5017 93.289 24.7728C93.0009 25.2395 93.0926 25.9416 93.0233 26.5457C93.1131 26.5702 93.2011 26.5947 93.2908 26.6191C93.809 26.0169 94.3272 25.4146 94.8472 24.8123ZM87.9165 42.0264C87.9315 42.0847 87.9464 42.1412 87.9614 42.1995C88.0587 42.1995 88.1634 42.2221 88.2532 42.1958C89.6375 41.8174 91.0236 41.4467 92.3986 41.0345C92.5931 40.9761 92.724 40.7051 92.8849 40.5338C92.8307 40.4661 92.7746 40.3983 92.7203 40.3306C91.119 40.8952 89.5178 41.4617 87.9165 42.0264ZM82.9462 24.6768C82.3943 25.0438 81.9903 28.3281 82.2765 29.2861C82.6544 27.7202 82.9724 26.2258 82.9462 24.6768ZM83.7618 50.4377L83.4606 50.7764C84.2912 51.5387 85.1199 52.3029 85.9598 53.0538C86.0028 53.0934 86.2048 53.0501 86.2198 53.0068C86.2628 52.8807 86.3115 52.6624 86.2479 52.6059C85.4304 51.8719 84.5942 51.1585 83.7618 50.4395V50.4377ZM73.8118 43.0822C72.5547 42.2993 69.4906 41.5859 68.9818 42.0207C70.5924 42.3746 72.2012 42.7284 73.8118 43.0822ZM92.1928 41.9492C92.1628 41.8306 92.1311 41.7139 92.1011 41.5954C90.5691 42.0113 89.037 42.4273 87.5031 42.8451C87.5218 42.9166 87.5405 42.9881 87.5592 43.0597C89.1193 42.7529 90.7019 42.527 92.1909 41.9473L92.1928 41.9492ZM68.0689 26.2804C68.1643 26.2389 68.2598 26.1975 68.3552 26.1561C68.2616 25.6555 68.2766 25.0852 68.0241 24.6881C67.9081 24.5036 67.2664 24.6561 66.8643 24.6561C66.8362 24.7257 66.81 24.7972 66.7819 24.8669C67.2103 25.3374 67.6406 25.8079 68.0689 26.2785V26.2804ZM73.0972 43.63C73.1066 43.549 73.1141 43.4681 73.1234 43.3853C71.9786 43.1481 70.8356 42.911 69.6908 42.6719C69.6665 42.815 69.6403 42.958 69.616 43.0992C70.7758 43.2761 71.9374 43.4511 73.0972 43.6281V43.63ZM74.2252 44.4317C74.2252 44.3753 74.2252 44.3169 74.2252 44.2605C72.9008 44.0591 71.5783 43.8596 70.2539 43.6582L70.2034 44.0892C71.5446 44.204 72.8859 44.3169 74.2252 44.4317ZM91.5923 43.118C91.5624 42.975 91.5306 42.8338 91.5006 42.6908C90.4082 42.9298 89.3176 43.1688 88.2251 43.406C88.2401 43.4907 88.2569 43.5754 88.2719 43.6582C89.3793 43.4775 90.4849 43.2968 91.5923 43.1161V43.118ZM87.2019 44.315C89.037 44.4807 90.6944 44.2191 91.0199 43.6318C89.7553 43.8577 88.5918 44.0666 87.2019 44.315ZM87.0466 46.2405C87.0373 46.2744 87.0298 46.3082 87.0204 46.3421C87.8548 46.4099 88.6891 46.4757 89.5215 46.5435C89.529 46.4419 89.5346 46.3402 89.5421 46.2386H87.0448L87.0466 46.2405ZM74.3393 46.3289C74.3356 46.2499 74.3337 46.1708 74.33 46.0918C73.4545 46.1464 72.5791 46.2028 71.7017 46.2574L71.7242 46.5793C72.5959 46.4965 73.4676 46.4118 74.3393 46.3289ZM70.8469 44.7611C70.8469 44.8176 70.8469 44.8722 70.8469 44.9286H73.7052C73.7052 44.8722 73.7052 44.8176 73.7052 44.7611H70.8469ZM90.3596 44.9456C90.3596 44.8929 90.3596 44.8402 90.3596 44.7894H87.7893C87.7893 44.8421 87.793 44.8947 87.7949 44.9456H90.3596ZM73.0804 45.7154C73.0804 45.6721 73.0785 45.6307 73.0767 45.5874H71.2565C71.2565 45.6307 71.2603 45.6721 71.2621 45.7154H73.0804ZM86.4948 52.2822C86.5565 52.1937 86.6164 52.1052 86.6781 52.0168C86.1955 51.6535 85.7129 51.2922 85.2284 50.9289C85.1816 50.9985 85.1348 51.0682 85.0881 51.1378C85.5576 51.518 86.0253 51.9001 86.4948 52.2803V52.2822ZM89.9199 45.7248C89.9237 45.6702 89.9274 45.6175 89.9312 45.5629H88.2588C88.2588 45.6175 88.2588 45.6702 88.2569 45.7248H89.9199ZM83.4269 57.7197C83.5205 57.6801 83.614 57.6387 83.7057 57.5992C83.5205 57.1701 83.3334 56.7391 83.1482 56.31L82.8695 56.4304C83.0547 56.8595 83.2417 57.2905 83.4269 57.7197Z" fill="#A75E5B"/>
  <path d="M112.972 96.4225C112.692 96.4094 112.398 96.4395 112.134 96.3679C111.979 96.3247 111.766 96.1195 111.764 95.984C111.762 95.8466 111.969 95.6076 112.115 95.5831C112.516 95.5153 112.931 95.5398 113.339 95.5191C114.252 95.4739 114.742 95.0373 114.781 94.2449C114.82 93.4789 114.345 92.9293 113.483 92.7994C113.105 92.7429 112.712 92.7881 112.336 92.7241C112.143 92.6902 111.973 92.519 111.792 92.4098C111.975 92.2705 112.14 92.056 112.344 92.0089C112.662 91.9355 113.006 91.9882 113.337 91.9619C114.053 91.9054 114.528 91.448 114.551 90.8119C114.575 90.1098 114.151 89.5941 113.414 89.4962C113.01 89.4435 112.59 89.4925 112.188 89.4304C112.031 89.4059 111.9 89.2045 111.758 89.0841C111.895 88.9561 112.035 88.7152 112.166 88.7208C112.849 88.7472 113.571 88.7133 114.199 88.9297C115.393 89.3419 115.772 90.6274 115.121 91.7247C114.933 92.0428 114.71 92.295 115.071 92.6658C115.772 93.3866 115.9 94.2524 115.484 95.1596C115.058 96.0913 114.24 96.3962 113.279 96.4075C113.176 96.4075 113.073 96.4075 112.972 96.4075C112.972 96.4131 112.972 96.4169 112.972 96.4225Z" fill="#A75E5B"/>
  <path d="M78.9058 92.6043C78.9058 91.5466 78.8759 90.4869 78.9264 89.4311C78.9395 89.16 79.2032 88.9022 79.351 88.6387C79.5194 88.9041 79.8243 89.1657 79.8355 89.4386C79.9122 91.2172 79.9402 92.9977 79.9515 94.7782C79.9552 95.3937 80.1086 95.6722 80.7989 95.5744C81.4536 95.4821 82.1345 95.4878 82.7949 95.5461C83.0231 95.5668 83.2251 95.8717 83.4402 96.0468C83.2251 96.1804 83.0137 96.4232 82.7949 96.4307C81.6781 96.4722 80.5557 96.4834 79.4408 96.4232C79.25 96.4138 78.9395 96.0129 78.9264 95.7795C78.8702 94.7236 78.902 93.664 78.902 92.6062H78.9058V92.6043Z" fill="#A75E5B"/>
  <path d="M31.3671 96.4741C31.2661 96.4045 30.9873 96.301 30.9836 96.1899C30.978 96.0074 31.137 95.8078 31.2586 95.6385C31.3091 95.5669 31.44 95.5519 31.5354 95.5142C32.0892 95.2921 32.4221 94.9138 32.3978 94.2852C32.3735 93.6641 32.0106 93.282 31.4718 93.0787C30.8246 92.8359 30.1456 92.6797 29.5058 92.42C28.7164 92.1 28.3105 91.4639 28.2992 90.6094C28.2899 89.8095 28.7052 89.2185 29.3842 88.874C29.6442 88.7423 30.0202 88.8402 30.3438 88.8326C30.1811 89.0754 30.0109 89.3145 29.8537 89.561C29.6311 89.913 29.214 90.295 29.2514 90.6207C29.2925 90.9914 29.676 91.4488 30.0296 91.6314C30.6824 91.9683 31.44 92.0906 32.1228 92.3767C33.0376 92.7607 33.3855 93.4589 33.32 94.5713C33.2714 95.3844 32.6784 96.1109 31.8478 96.3668C31.7262 96.4045 31.599 96.4233 31.369 96.4741H31.3671Z" fill="#A75E5B"/>
  <path d="M36.7321 92.5526C36.719 90.7551 37.7329 89.2231 39.3079 88.7469C39.5605 88.6697 39.8841 88.8335 40.1759 88.8843C39.9926 89.0932 39.8486 89.3944 39.6185 89.4941C38.2454 90.0907 37.6225 91.1673 37.6636 92.6109C37.7029 93.9887 38.3577 94.9956 39.6708 95.5414C39.8953 95.6355 40.0281 95.9499 40.204 96.1625C39.9065 96.2303 39.5792 96.4147 39.3192 96.3451C37.7609 95.9292 36.7452 94.4027 36.7339 92.5526H36.7321Z" fill="#A75E5B"/>
  <path d="M14.2769 92.6245C14.2769 93.6315 14.3031 94.6384 14.2582 95.6435C14.247 95.8901 14.0094 96.1272 13.8766 96.3681C13.7082 96.1253 13.4183 95.8919 13.3939 95.636C13.3378 95.0243 13.3902 94.3994 13.4295 93.7821C13.4706 93.1327 13.2293 92.8203 12.5484 92.8542C11.9086 92.8862 11.2633 92.8956 10.6273 92.8429C10.3728 92.8222 10.1371 92.6057 9.89209 92.4796C10.1428 92.3196 10.3803 92.0486 10.6441 92.0223C11.1997 91.9639 11.7683 92.0448 12.3333 92.0448C13.3004 92.0448 13.4313 91.9056 13.4407 90.9269C13.4444 90.4111 13.4108 89.8898 13.4706 89.3816C13.4987 89.152 13.7138 88.945 13.8448 88.7285C13.9813 88.9431 14.2301 89.1558 14.2376 89.376C14.2788 90.4582 14.2563 91.5423 14.2563 92.6264C14.2638 92.6264 14.2713 92.6264 14.2788 92.6264L14.2769 92.6245Z" fill="#A75E5B"/>
  <path d="M89.112 92.5593C89.2186 90.76 90.2886 89.2148 91.9217 88.7122C92.1817 88.6332 92.5109 88.7819 92.8065 88.8252C92.612 89.0454 92.4604 89.3747 92.2173 89.4707C90.891 89.994 90.1708 91.0122 90.1577 92.4972C90.1464 93.9145 90.8573 94.9873 92.1387 95.4917C92.1854 95.5105 92.2509 95.5105 92.2809 95.5444C92.466 95.7477 92.6456 95.9566 92.8271 96.1636C92.5633 96.2427 92.2696 96.4384 92.0433 96.3801C91.0387 96.1185 90.2026 95.5463 89.7499 94.5958C89.4468 93.9596 89.3177 93.2407 89.1101 92.5593H89.112Z" fill="#A75E5B"/>
  <path d="M96.9313 92.5788C96.9275 94.3405 95.8706 95.8688 94.2731 96.3374C94.0149 96.4127 93.6857 96.2452 93.3901 96.1906C93.5809 95.9667 93.7269 95.6335 93.9682 95.5357C95.2065 95.0388 95.9585 93.9998 95.9847 92.6277C96.0109 91.1653 95.2832 90.0454 94.0262 89.5071C93.7774 89.3999 93.6146 89.0912 93.4107 88.8748C93.7231 88.8333 94.0748 88.6734 94.3386 88.7675C95.9772 89.3472 96.935 90.7945 96.9313 92.5788Z" fill="#A75E5B"/>
  <path d="M68.4057 92.5919C68.3869 90.6853 69.1932 89.3998 70.8468 88.7994C71.1125 88.7034 71.4642 88.8521 71.7766 88.8878C71.5745 89.1005 71.4099 89.3903 71.163 89.5108C70.0818 90.0322 69.4177 90.8245 69.3298 92.0592C69.2306 93.4464 69.5636 94.6227 70.8674 95.3398C71.0246 95.4264 71.2322 95.4452 71.3519 95.5638C71.5296 95.7369 71.6493 95.9703 71.7953 96.1774C71.5483 96.2489 71.2827 96.4183 71.0601 96.3731C69.6309 96.0889 68.4674 94.6076 68.4075 93.0549C68.4019 92.9005 68.4075 92.7462 68.4075 92.59L68.4057 92.5919Z" fill="#A75E5B"/>
  <path d="M66.5499 106.401C66.2974 105.859 66.0935 105.423 65.8017 104.798C65.6782 105.289 65.6371 105.611 65.5136 105.897C65.4313 106.087 65.2274 106.224 65.0777 106.384C64.93 106.236 64.7074 106.111 64.6475 105.933C64.2846 104.841 63.9572 103.736 63.6018 102.586C64.2229 102.375 64.4212 102.833 64.6026 103.275C64.7728 103.689 64.9056 104.118 65.089 104.64C65.6951 103.891 65.5061 103.251 65.1488 102.577C65.768 102.353 65.9887 102.769 66.1833 103.134C66.3853 103.51 66.52 103.924 66.8867 104.361C67.1317 103.783 67.3768 103.204 67.6443 102.575C68.0652 103.157 67.4273 105.396 66.5481 106.403L66.5499 106.401Z" fill="#A75E5B"/>
  <path d="M22.8442 104.855C23.106 104.253 23.3417 103.637 23.6411 103.056C23.7533 102.838 24.0114 102.694 24.2022 102.518C24.3201 102.747 24.5296 102.975 24.5371 103.208C24.5726 104.304 24.5539 105.401 24.5539 106.591C24.1274 106.696 23.9291 106.278 23.8468 105.817C23.7664 105.373 23.7888 104.91 23.613 104.402C23.3212 105.021 23.0312 105.64 22.7394 106.259C22.6515 106.274 22.5617 106.291 22.4738 106.306C22.1371 105.634 21.8003 104.962 21.4636 104.291C21.4 104.3 21.3345 104.309 21.2709 104.319C21.2261 104.929 21.1812 105.537 21.1344 106.146C21.0858 106.154 21.0371 106.16 20.9885 106.167C20.9436 106.022 20.8613 105.877 20.8594 105.732C20.8426 104.857 20.8276 103.982 20.8538 103.107C20.8594 102.911 21.0315 102.721 21.1269 102.527C21.3289 102.649 21.6189 102.725 21.7143 102.903C22.0473 103.53 22.311 104.193 22.6028 104.842L22.846 104.853L22.8442 104.855Z" fill="#A75E5B"/>
  <path d="M60.2534 92.5785C60.2534 93.6081 60.2833 94.6395 60.2309 95.6671C60.2178 95.9137 59.9223 96.1452 59.7577 96.3842C59.5799 96.1452 59.2545 95.908 59.2488 95.6652C59.2077 93.6325 59.2039 91.596 59.2526 89.5633C59.2601 89.2735 59.6005 88.9912 59.7857 88.7051C59.9429 89.0175 60.2141 89.3224 60.2328 89.6424C60.2927 90.6173 60.2552 91.5979 60.2534 92.5766V92.5785Z" fill="#A75E5B"/>
  <path d="M130.356 88.6757C130.496 88.8395 130.695 88.9806 130.768 89.1688C131.598 91.3314 132.417 93.4978 133.209 95.6735C133.274 95.8504 133.121 96.1083 133.068 96.3285C132.861 96.2099 132.614 96.129 132.457 95.9634C132.328 95.826 132.287 95.5926 132.234 95.395C132.07 94.7833 131.763 94.4012 131.05 94.4539C130.854 94.4689 130.64 94.2544 130.435 94.1452C130.614 93.9984 130.775 93.7669 130.977 93.7199C131.475 93.6013 131.51 93.3622 131.349 92.9331C130.904 91.7549 130.478 90.5673 130.072 89.374C130.006 89.1801 130.085 88.9373 130.096 88.7171C130.182 88.7021 130.27 88.6889 130.356 88.6738V88.6757Z" fill="#A75E5B"/>
  <path d="M142.416 91.7087C142.293 92.7777 142.242 93.8599 142.025 94.9083C141.857 95.7214 141.208 96.2032 140.399 96.3764C140.222 96.414 140.003 96.254 139.803 96.1863C139.904 96.0018 139.964 95.712 140.113 95.6518C141.241 95.2 141.481 94.3135 141.449 93.2125C141.413 91.9759 141.436 90.7356 141.486 89.499C141.496 89.2431 141.735 88.9984 141.87 88.748C142.012 89.0078 142.257 89.26 142.279 89.5291C142.337 90.2462 142.3 90.9727 142.3 91.6955C142.339 91.6992 142.38 91.7049 142.42 91.7087H142.416Z" fill="#A75E5B"/>
  <path d="M59.0526 105.262C59.0227 105.479 58.9722 105.85 58.9123 106.284C58.3193 106.363 57.7001 106.506 57.0809 106.51C56.2822 106.516 55.85 105.855 56.1718 105.144C56.3944 104.656 56.4692 104.24 56.3065 103.696C56.0689 102.904 56.4917 102.385 57.2287 102.37C58.078 102.351 58.4839 103.017 58.0855 103.774C57.9209 104.088 57.4569 104.395 57.9059 104.762C58.1865 104.991 58.5887 105.067 59.0526 105.26V105.262ZM57.0884 105.023C56.9986 105.061 56.9107 105.101 56.8209 105.138C56.8658 105.394 56.8321 105.722 56.978 105.887C57.0996 106.025 57.4307 105.974 57.6702 106.006C57.7057 105.931 57.7413 105.857 57.7787 105.782C57.5486 105.53 57.3185 105.276 57.0884 105.023Z" fill="#A75E5B"/>
  <path d="M52.5447 92.5732C52.5447 93.5745 52.5821 94.5795 52.5203 95.5771C52.5035 95.8519 52.1948 96.1078 52.0209 96.3732C51.8862 96.1154 51.6449 95.8613 51.6355 95.5997C51.5701 93.725 51.5513 91.8504 51.5233 89.9758C51.5195 89.7443 51.4728 89.477 51.5701 89.2926C51.6898 89.063 51.9404 88.903 52.135 88.7129C52.2772 88.9218 52.5353 89.1251 52.5428 89.3396C52.5858 90.4162 52.5615 91.4966 52.5615 92.5751C52.5559 92.5751 52.5503 92.5751 52.5447 92.5751V92.5732Z" fill="#A75E5B"/>
  <path d="M47.3349 92.452C47.3349 91.4225 47.305 90.3911 47.3574 89.3634C47.3705 89.115 47.6623 88.8816 47.825 88.6426C47.9766 88.8722 48.2572 89.0981 48.2609 89.3296C48.2927 91.4658 48.2908 93.6039 48.2534 95.7401C48.2497 95.9547 47.9466 96.1655 47.782 96.3782C47.6324 96.1504 47.3649 95.9302 47.3555 95.6969C47.3087 94.6165 47.3349 93.5343 47.3349 92.4539V92.452Z" fill="#A75E5B"/>
  <path d="M32.7121 104.451C32.7121 104.039 32.7888 103.608 32.6953 103.219C32.5288 102.518 32.8655 102.404 33.4211 102.439C33.7541 102.46 34.0889 102.454 34.4182 102.505C35.4676 102.669 36.0232 103.397 35.9858 104.536C35.9502 105.643 35.3797 106.258 34.2984 106.358C32.8 106.495 32.7402 106.441 32.7383 104.918C32.7383 104.764 32.7383 104.609 32.7383 104.453C32.7308 104.453 32.7215 104.453 32.714 104.453L32.7121 104.451ZM33.5259 104.468C33.5259 104.724 33.4884 104.988 33.5371 105.234C33.5857 105.485 33.6849 105.891 33.8252 105.921C34.0777 105.974 34.435 105.869 34.6482 105.701C35.3217 105.172 35.3011 103.64 34.6146 103.153C34.4144 103.01 34.0683 102.944 33.842 103.013C33.6886 103.06 33.5801 103.399 33.5371 103.625C33.4847 103.896 33.524 104.186 33.5259 104.468Z" fill="#A75E5B"/>
  <path d="M9.46164 92.63C9.46164 93.6332 9.49344 94.6401 9.43919 95.6414C9.42609 95.8936 9.1455 96.1326 8.98836 96.3773C8.83684 96.1251 8.55624 95.8767 8.5525 95.6226C8.52444 93.5899 8.53193 91.5553 8.57495 89.5207C8.58056 89.2515 8.83684 88.988 8.97714 88.7227C9.13427 88.9956 9.41113 89.261 9.42609 89.5414C9.48034 90.569 9.44854 91.6005 9.44854 92.63H9.46351H9.46164Z" fill="#A75E5B"/>
  <path d="M18.5718 92.5525C18.5718 93.5839 18.5962 94.6154 18.5531 95.6449C18.5419 95.8915 18.3025 96.1286 18.1696 96.3714C17.9901 96.1418 17.6608 95.914 17.6571 95.6825C17.6234 93.5689 17.6365 91.4552 17.6739 89.3416C17.6777 89.1308 17.9339 88.9238 18.0742 88.7148C18.2314 88.9369 18.512 89.1534 18.5232 89.383C18.5718 90.437 18.5438 91.4967 18.5438 92.5525H18.5718Z" fill="#A75E5B"/>
  <path d="M111.262 92.544C111.262 93.5716 111.292 94.6012 111.24 95.6269C111.227 95.8829 110.946 96.1257 110.789 96.376C110.634 96.1295 110.347 95.8848 110.344 95.6363C110.312 93.6055 110.312 91.5747 110.357 89.5457C110.362 89.2728 110.664 89.0074 110.83 88.7383C110.965 89.0055 111.206 89.2672 111.217 89.5382C111.264 90.5376 111.236 91.5427 111.236 92.544H111.262Z" fill="#A75E5B"/>
  <path d="M119.992 92.617C119.992 93.622 120.022 94.6308 119.972 95.634C119.959 95.89 119.686 96.1328 119.53 96.3831C119.377 96.1309 119.095 95.8806 119.093 95.6265C119.07 93.59 119.083 91.5517 119.132 89.5152C119.138 89.2498 119.399 88.9901 119.543 88.7266C119.686 88.9919 119.936 89.2517 119.949 89.5227C119.998 90.5522 119.968 91.5855 119.968 92.617H119.992Z" fill="#A75E5B"/>
  <path d="M100.169 92.5698C100.169 91.5648 100.136 90.5578 100.19 89.5565C100.205 89.2723 100.476 89.0013 100.629 88.7246C100.77 88.9881 101.026 89.2497 101.032 89.5151C101.069 91.5497 101.075 93.5843 101.043 95.6189C101.039 95.8655 100.747 96.1064 100.588 96.3492C100.442 96.0932 100.182 95.8429 100.169 95.5794C100.119 94.5781 100.149 93.5711 100.149 92.5661H100.167L100.169 92.5698Z" fill="#A75E5B"/>
  <path d="M86.0926 106.117C86.0571 105.832 86.0066 105.55 85.986 105.266C85.9336 104.5 85.8887 103.734 85.8588 102.968C85.8513 102.787 85.9112 102.605 85.9392 102.424C86.1506 102.465 86.4387 102.431 86.5584 102.559C86.9232 102.949 87.2225 103.401 87.5499 103.828C87.7276 104.059 87.9109 104.289 88.242 104.711C88.3449 103.909 88.4178 103.346 88.4889 102.783C88.5563 102.772 88.6236 102.761 88.6928 102.749C88.7546 102.979 88.8612 103.209 88.8668 103.44C88.8892 104.261 88.8892 105.081 88.8724 105.902C88.8687 106.06 88.7508 106.216 88.6872 106.373C88.5132 106.299 88.2832 106.271 88.1728 106.141C87.8435 105.751 87.5686 105.315 87.2562 104.91C87.0897 104.696 86.8895 104.507 86.5696 104.163C86.4929 104.94 86.4368 105.522 86.3788 106.105L86.0908 106.118L86.0926 106.117Z" fill="#A75E5B"/>
  <path d="M129.638 89.6991C129.638 90.1358 129.714 90.5104 129.623 90.8378C129.43 91.5286 129.153 92.1949 128.904 92.8687C128.747 93.2978 128.755 93.6027 129.314 93.71C129.505 93.7476 129.653 94.0055 129.819 94.1617C129.619 94.2859 129.415 94.525 129.22 94.5156C128.495 94.4836 128.158 94.8543 127.965 95.4943C127.887 95.7559 127.741 96.0175 127.561 96.2208C127.479 96.3149 127.223 96.3224 127.08 96.2697C126.998 96.2396 126.916 95.9855 126.957 95.8801C127.741 93.853 128.543 91.8335 129.344 89.814C129.35 89.7989 129.389 89.7951 129.638 89.6973V89.6991Z" fill="#A75E5B"/>
  <path d="M137.565 91.604C137.565 92.2213 137.556 92.8387 137.567 93.456C137.584 94.4121 137.825 95.2271 138.83 95.6261C139.002 95.6939 139.081 96.0025 139.202 96.1983C138.978 96.2547 138.736 96.3921 138.529 96.3526C137.565 96.1738 136.832 95.2873 136.783 94.0865C136.72 92.5206 136.75 90.949 136.783 89.3793C136.787 89.1722 137.049 88.9708 137.191 88.7676C137.313 88.9671 137.526 89.1609 137.537 89.3661C137.58 90.1095 137.554 90.8568 137.554 91.604H137.563H137.565Z" fill="#A75E5B"/>
  <path d="M138.768 106.411C137.571 106.511 137.502 105.434 136.815 104.903C136.791 105.286 136.808 105.581 136.74 105.856C136.699 106.021 136.527 106.155 136.413 106.304C136.29 106.168 136.069 106.038 136.061 105.895C135.996 104.87 135.97 103.84 135.947 102.812C135.945 102.715 136.046 102.575 136.138 102.521C136.516 102.293 137.872 102.534 138.17 102.886C138.62 103.417 138.45 103.906 138.091 104.425C137.964 104.61 137.943 104.964 138.029 105.178C138.185 105.568 138.458 105.91 138.766 106.411H138.768ZM136.664 104.26C137.438 104.173 137.721 103.898 137.608 103.42C137.565 103.238 137.221 103.127 137.014 102.984C136.911 103.362 136.806 103.742 136.664 104.26Z" fill="#A75E5B"/>
  <path d="M157.611 94.4418C157.611 94.8785 157.649 95.3208 157.594 95.7499C157.568 95.9569 157.372 96.1451 157.252 96.3409C157.097 96.1508 156.824 95.972 156.805 95.7687C156.745 95.1307 156.844 94.4776 156.762 93.8452C156.685 93.2542 156.534 92.6444 156.272 92.1155C155.819 91.197 155.243 90.3406 154.753 89.441C154.652 89.2546 154.702 88.9874 154.684 88.7559C154.91 88.8217 155.25 88.8142 155.344 88.9648C156.073 90.1392 156.824 91.3118 157.424 92.554C157.686 93.0961 157.607 93.8038 157.684 94.4343C157.66 94.4362 157.635 94.4399 157.613 94.4418H157.611Z" fill="#A75E5B"/>
  <path d="M117.198 105.9C117.016 106.054 116.825 106.308 116.577 106.4C116.302 106.504 115.972 106.478 115.668 106.474C114.783 106.464 114.644 106.318 114.614 105.45C114.586 104.605 114.541 103.76 114.521 102.913C114.517 102.775 114.609 102.516 114.652 102.518C115.413 102.538 116.175 102.576 116.932 102.657C116.999 102.664 117.035 102.984 117.033 102.977C116.44 103.112 115.632 103.082 115.507 103.363C115.106 104.259 116.13 104.053 116.672 104.383C116.148 104.769 114.962 104.565 115.51 105.553C115.673 105.845 116.489 105.77 117.198 105.898V105.9Z" fill="#A75E5B"/>
  <path d="M111.666 103.655C111.584 103.569 111.517 103.463 111.419 103.401C111.122 103.209 110.75 102.829 110.523 102.899C110.207 102.997 109.94 103.407 109.762 103.742C109.642 103.968 109.696 104.295 109.698 104.578C109.709 105.807 110.297 106.166 111.43 105.645C111.515 105.607 111.612 105.6 111.756 105.568C111.812 106.224 111.438 106.503 110.953 106.629C110.216 106.823 109.285 106.347 108.984 105.643C108.61 104.768 108.668 103.902 109.06 103.032C109.481 102.101 111.273 102.206 111.679 102.791C111.825 103.002 111.848 103.298 111.926 103.554C111.84 103.588 111.754 103.623 111.668 103.657L111.666 103.655Z" fill="#A75E5B"/>
  <path d="M97.0116 105.32C97.1556 105.45 97.2828 105.649 97.4493 105.695C97.7449 105.774 98.0648 105.759 98.3734 105.783C98.2387 105.523 98.1489 105.22 97.9581 105.013C97.6513 104.682 97.2061 104.467 96.948 104.112C96.5776 103.602 96.6244 102.99 97.0976 102.568C97.5746 102.145 98.1695 102.226 98.6559 102.597C98.8673 102.758 98.9533 103.086 99.0974 103.338L98.8729 103.508C98.6914 103.361 98.5305 103.159 98.3229 103.082C98.1396 103.014 97.9058 103.084 97.6944 103.093C97.7206 103.3 97.67 103.577 97.7842 103.7C98.0966 104.035 98.4969 104.285 98.8261 104.607C99.3536 105.122 99.3331 105.785 98.8093 106.218C98.1639 106.752 97.2679 106.745 96.9106 106.158C96.7871 105.952 96.8264 105.648 96.7908 105.388C96.8638 105.365 96.9386 105.341 97.0116 105.318V105.32Z" fill="#A75E5B"/>
  <path d="M38.5484 105.268C38.8402 105.534 39.0179 105.792 39.2555 105.88C39.4725 105.959 39.7568 105.854 40.0131 105.829C39.9775 105.594 40.0243 105.28 39.8896 105.14C39.6109 104.851 39.2199 104.676 38.9057 104.416C38.3538 103.958 38.2491 103.347 38.6007 102.848C38.9674 102.33 39.7942 102.148 40.3124 102.562C40.5705 102.767 40.6884 103.155 40.8698 103.46C40.7744 103.527 40.6772 103.595 40.5817 103.663C40.4527 103.512 40.3404 103.341 40.187 103.219C40 103.07 39.7886 102.92 39.5641 102.861C39.4799 102.839 39.2124 103.098 39.233 103.183C39.2854 103.413 39.4032 103.665 39.5716 103.825C39.9401 104.177 40.4733 104.41 40.7127 104.824C40.8941 105.139 40.8811 105.775 40.6734 106.061C40.3255 106.541 39.7287 106.757 39.1002 106.456C38.6662 106.249 38.2902 105.999 38.5484 105.27V105.268Z" fill="#A75E5B"/>
  <path d="M64.9358 92.6462C64.9358 93.6475 64.962 94.6507 64.9171 95.652C64.9058 95.891 64.6589 96.1206 64.5186 96.354C64.3783 96.1206 64.1202 95.8872 64.1183 95.652C64.0977 93.5703 64.1108 91.4887 64.1501 89.4089C64.1538 89.1887 64.3914 88.9722 64.5205 88.7539C64.6496 88.9722 64.8797 89.1868 64.889 89.4089C64.9283 90.4874 64.9058 91.5658 64.9058 92.6462C64.9171 92.6462 64.9264 92.6462 64.9376 92.6462H64.9358Z" fill="#A75E5B"/>
  <path d="M2.09875 93.188C2.09875 92.3618 2.0632 91.5336 2.11932 90.7111C2.13616 90.4777 2.41676 90.2651 2.57576 90.043C2.71232 90.2632 2.96298 90.4796 2.96672 90.7017C3.0004 92.4051 3.00227 94.1084 2.96672 95.8117C2.96298 96.0037 2.66742 96.19 2.50842 96.3801C2.37186 96.1938 2.12681 96.0131 2.11745 95.8211C2.07443 94.946 2.09875 94.067 2.09688 93.1899L2.09875 93.188Z" fill="#A75E5B"/>
  <path d="M43.3765 102.305C44.0817 102.393 44.7776 102.344 45.3332 102.6C45.6923 102.766 46.0216 103.374 46.0384 103.795C46.0515 104.119 45.6156 104.635 45.2696 104.761C44.6597 104.983 44.1921 105.16 44.2819 105.937C44.295 106.052 44.0929 106.191 43.99 106.321C43.8647 106.189 43.6477 106.067 43.6327 105.924C43.5804 105.442 43.6215 104.949 43.5897 104.464C43.5467 103.831 43.4681 103.201 43.3783 102.308L43.3765 102.305ZM44.121 103.628C44.3642 103.916 44.5232 104.1 44.6803 104.287C44.8468 104.061 45.1236 103.844 45.1442 103.605C45.1611 103.423 44.8561 103.21 44.6934 103.01C44.5307 103.187 44.366 103.362 44.121 103.628Z" fill="#A75E5B"/>
  <path d="M122.722 102.814C122.722 103.875 122.776 104.94 122.696 105.996C122.662 106.431 122.292 106.282 122.088 106.03C121.749 105.612 121.442 105.166 121.109 104.743C120.945 104.53 120.754 104.338 120.389 104.191C120.35 104.848 120.311 105.505 120.271 106.164C120.2 106.164 120.127 106.168 120.056 106.168C119.985 104.984 119.914 103.8 119.841 102.558C120.528 102.377 120.743 102.996 121.076 103.395C121.416 103.802 121.73 104.229 122.198 104.829C122.271 104.009 122.325 103.405 122.38 102.8C122.494 102.804 122.608 102.808 122.72 102.812L122.722 102.814Z" fill="#A75E5B"/>
  <path d="M147.902 93.1731C147.902 92.3506 147.874 91.5244 147.921 90.7037C147.934 90.4779 148.17 90.2652 148.303 90.0469C148.454 90.252 148.733 90.4534 148.737 90.6623C148.776 92.3845 148.776 94.1085 148.748 95.8326C148.744 96.0039 148.475 96.1714 148.329 96.3408C148.183 96.1601 147.923 95.985 147.914 95.7968C147.869 94.9254 147.893 94.0483 147.893 93.175H147.902V93.1731Z" fill="#A75E5B"/>
  <path d="M51.3941 106.43C51.1454 106.282 50.8442 106.18 50.6552 105.975C49.7723 105.008 49.5011 105.017 48.7079 106.105C48.6555 106.176 48.5526 106.212 48.4741 106.263C48.3992 106.225 48.3263 106.189 48.2515 106.152C48.7247 104.944 49.198 103.735 49.6713 102.527L50.0024 102.514C50.5075 103.743 51.0125 104.97 51.5176 106.199C51.4765 106.276 51.4353 106.353 51.3941 106.43Z" fill="#A75E5B"/>
  <path d="M73.1778 105.974C72.8841 106.115 72.6017 106.307 72.293 106.382C71.9769 106.459 71.6009 106.514 71.3109 106.41C71.0397 106.312 70.6768 106.011 70.6524 105.77C70.5552 104.801 70.5664 103.821 70.5552 102.844C70.5552 102.736 70.6562 102.529 70.7011 102.531C71.4419 102.573 72.1808 102.639 72.9178 102.71C72.9421 102.712 72.9533 102.842 72.9758 102.93C72.5044 103.29 71.6401 102.439 71.425 103.391C71.2024 104.376 72.3024 103.894 72.669 104.46C72.0367 104.677 70.963 104.679 71.5092 105.714C71.6401 105.962 72.4913 105.827 73.0132 105.868C73.0693 105.902 73.1236 105.938 73.1797 105.972L73.1778 105.974Z" fill="#A75E5B"/>
  <path d="M93.6838 104.44C93.1376 104.726 92.12 104.578 92.4978 105.551C92.8102 106.356 93.5211 105.709 94.2768 105.805C94 106.068 93.854 106.328 93.6651 106.364C93.2442 106.447 92.8027 106.435 92.3706 106.428C91.9067 106.42 91.6822 106.168 91.6878 105.688C91.6991 104.661 91.6916 103.633 91.6916 102.594C92.8252 102.191 93.8859 102.4 94.0336 103.102C93.5155 103.162 92.814 102.506 92.5072 103.33C92.1424 104.314 93.2405 104.013 93.6819 104.438L93.6838 104.44Z" fill="#A75E5B"/>
  <path d="M103.871 103.848C103.535 103.456 103.391 103.196 103.17 103.061C102.992 102.952 102.723 102.991 102.495 102.963C102.502 103.198 102.416 103.524 102.538 103.652C102.85 103.983 103.321 104.171 103.6 104.52C103.843 104.825 104.103 105.335 104.004 105.639C103.888 105.999 103.424 106.409 103.054 106.477C102.676 106.547 102.21 106.262 101.825 106.054C101.705 105.99 101.724 105.668 101.679 105.464L102.094 105.129C102.165 105.353 102.178 105.709 102.321 105.775C102.571 105.89 102.9 105.826 103.198 105.835C103.131 105.57 103.14 105.235 102.979 105.05C102.631 104.651 102.104 104.388 101.829 103.955C101.657 103.684 101.67 103.093 101.86 102.848C102.077 102.568 102.605 102.355 102.955 102.406C103.312 102.457 103.638 102.845 103.935 103.131C104.008 103.2 103.914 103.443 103.871 103.848Z" fill="#A75E5B"/>
  <path d="M132.677 104.382C132.055 104.646 131.217 104.704 131.602 105.617C131.955 106.453 132.608 105.692 133.121 105.752C133.145 105.794 133.201 105.85 133.188 105.879C132.778 106.822 131.957 106.293 131.323 106.364C130.781 106.424 130.803 105.916 130.79 105.53C130.762 104.683 130.741 103.836 130.721 102.988C130.719 102.888 130.721 102.702 130.739 102.698C131.323 102.615 131.907 102.504 132.492 102.504C132.73 102.504 132.967 102.75 133.162 102.969C132.597 103.234 131.839 102.425 131.572 103.387C131.334 104.241 132.165 104.13 132.676 104.382H132.677Z" fill="#A75E5B"/>
  <path d="M60.9793 89.5898C61.8361 91.5642 63.5646 93.1452 63.7067 95.6071C62.6797 95.129 60.5753 90.5083 60.9793 89.5898Z" fill="#A75E5B"/>
  <path d="M27.5939 102.562C28.7031 102.201 29.7208 102.399 29.8817 103.089C29.3579 103.223 28.546 102.395 28.3197 103.445C28.1139 104.395 29.0567 104.025 29.588 104.362C29.0286 104.744 27.7791 104.665 28.4038 105.737C28.5591 106.005 29.3392 105.905 29.9378 105.99C29.8124 106.106 29.6909 106.323 29.5487 106.336C29.0417 106.383 28.518 106.424 28.0241 106.336C27.8464 106.304 27.6238 105.903 27.6144 105.66C27.5695 104.642 27.5957 103.618 27.5957 102.562H27.5939Z" fill="#A75E5B"/>
  <path d="M75.8509 104.331C75.8247 103.895 75.7816 103.46 75.7835 103.023C75.7835 102.848 75.8883 102.675 75.9444 102.502C76.1408 102.628 76.47 102.722 76.5074 102.884C76.6085 103.326 76.5935 103.799 76.6122 104.26C76.6253 104.569 76.6328 104.877 76.6197 105.186C76.5916 105.841 76.9209 106.037 77.5288 105.993C77.8375 105.973 78.1555 106.072 78.4623 106.142C78.481 106.146 78.466 106.464 78.4417 106.468C78.1274 106.515 77.8019 106.586 77.4933 106.545C75.8284 106.326 75.8303 106.317 75.8265 104.642C75.8265 104.538 75.8265 104.437 75.8265 104.333C75.834 104.333 75.8415 104.333 75.849 104.333L75.8509 104.331Z" fill="#A75E5B"/>
  <path d="M2.49918 89.4735C1.85755 89.4735 1.21405 89.5037 0.576159 89.4566C0.376 89.4416 0.190806 89.2213 0 89.0952C0.181453 88.9578 0.359164 88.7075 0.542487 88.7019C1.87626 88.6661 3.21003 88.6642 4.5438 88.6981C4.72899 88.7019 4.9067 88.9597 5.08815 89.1009C4.89174 89.2251 4.7028 89.4415 4.4989 89.4547C3.83482 89.4999 3.16513 89.4717 2.49918 89.4735Z" fill="#A75E5B"/>
  <path d="M128.141 102.759C126.848 102.835 127.107 103.721 127.101 104.464C127.097 104.929 127.123 105.396 127.078 105.855C127.064 106.019 126.882 106.166 126.775 106.32C126.639 106.168 126.399 106.023 126.386 105.859C126.34 105.27 126.341 104.673 126.375 104.082C126.441 102.927 126.442 102.914 125.359 103.07C125.391 102.415 126.895 102.176 128.139 102.759H128.141Z" fill="#A75E5B"/>
  <path d="M148.366 88.6885C148.978 88.6885 149.593 88.6546 150.2 88.7073C150.417 88.7261 150.617 88.9576 150.824 89.0912C150.632 89.2136 150.439 89.4375 150.243 89.4432C148.969 89.4752 147.693 89.4752 146.419 89.4432C146.221 89.4375 146.028 89.2173 145.833 89.0969C146.039 88.9614 146.238 88.7261 146.455 88.7092C147.087 88.6565 147.728 88.6903 148.364 88.6903L148.366 88.6885Z" fill="#A75E5B"/>
  <path d="M80.8999 102.514C81.3582 102.397 81.6201 102.662 81.65 103.182C81.6855 103.795 81.7042 104.414 81.6668 105.028C81.6201 105.772 81.9306 106.065 82.6508 106.007C82.8696 105.988 83.0941 106.043 83.3598 106.069C82.98 106.468 81.7716 106.698 81.3226 106.361C81.0682 106.171 80.941 105.689 80.9186 105.327C80.8643 104.416 80.8999 103.5 80.8999 102.515V102.514Z" fill="#A75E5B"/>
  <path d="M72.7736 96.5303C72.7156 96.4889 72.4519 96.391 72.4332 96.2611C72.4088 96.0767 72.5155 95.7417 72.6502 95.6908C73.4414 95.3859 74.0644 94.906 74.5657 94.2134C74.6761 94.0609 75.0614 94.1136 75.3214 94.0703C75.3027 94.3188 75.3645 94.6124 75.2522 94.8081C74.7154 95.7454 73.6023 96.5359 72.7717 96.5303H72.7736Z" fill="#A75E5B"/>
  <path d="M41.1767 96.5227C41.0682 96.4418 40.8325 96.3534 40.7969 96.2122C40.7576 96.0616 40.868 95.7379 40.9802 95.7002C41.8632 95.4142 42.5572 94.9041 43.1109 94.155C43.1988 94.0364 43.5187 94.0929 43.732 94.0703C43.732 94.2773 43.8068 94.5239 43.7226 94.6839C43.2007 95.6739 42.3477 96.2348 41.1785 96.5209L41.1767 96.5227Z" fill="#A75E5B"/>
  <path d="M160 88.9388C159.431 89.9024 158.87 90.8717 158.281 91.8241C158.208 91.9408 157.905 92.0593 157.849 92.0123C157.718 91.8994 157.553 91.6227 157.608 91.5229C158.1 90.6007 158.616 89.6897 159.179 88.8108C159.261 88.6828 159.628 88.7411 159.862 88.7129C159.907 88.7882 159.953 88.8635 159.998 88.9406L160 88.9388Z" fill="#A75E5B"/>
  <path d="M41.1186 88.6003C41.9884 88.5646 43.7001 89.8482 43.8011 90.5709C43.8179 90.6952 43.5486 90.9549 43.3877 90.9775C43.2399 90.9982 43.0566 90.7874 42.8938 90.6688C42.327 90.2585 41.7527 89.8595 41.2065 89.4228C41.0344 89.2854 40.9128 89.0558 40.8342 88.8431C40.8155 88.7942 41.0662 88.6436 41.1186 88.6003Z" fill="#A75E5B"/>
  <path d="M72.8953 88.5859C73.9971 88.904 74.8183 89.4273 75.314 90.3683C75.3926 90.517 75.3439 90.7353 75.3552 90.9198C75.1438 90.9047 74.8276 90.9725 74.736 90.8596C74.1804 90.1651 73.5631 89.5948 72.682 89.3444C72.5754 89.3143 72.4594 88.9812 72.5043 88.8419C72.5473 88.7102 72.798 88.6443 72.8953 88.5859Z" fill="#A75E5B"/>
  <path d="M30.08 96.4225C29.2045 96.3736 28.185 95.4607 28.1233 94.7417C28.1064 94.5554 28.2711 94.354 28.3534 94.1602C28.5404 94.2505 28.7574 94.3051 28.9071 94.4387C29.3336 94.8151 29.7451 95.2123 30.1361 95.6263C30.2783 95.7769 30.4092 95.9934 30.4186 96.1872C30.4223 96.2813 30.1342 96.3867 30.08 96.4225Z" fill="#A75E5B"/>
  <path d="M20.5361 96.3854C20.1806 96.3854 19.8177 96.4211 19.4698 96.3684C19.3089 96.344 19.1742 96.1463 19.0283 96.0278C19.148 95.8847 19.2603 95.6231 19.3875 95.6156C20.147 95.5761 20.9102 95.5761 21.6715 95.6156C21.7969 95.6212 22.0026 95.8904 22.0008 96.0334C22.0008 96.1539 21.7595 96.3515 21.6042 96.3741C21.2544 96.4249 20.8934 96.391 20.5379 96.391C20.5379 96.3891 20.5379 96.3854 20.5379 96.3835L20.5361 96.3854Z" fill="#A75E5B"/>
  <path d="M121.962 96.3822C121.607 96.3822 121.244 96.4198 120.896 96.3653C120.748 96.3408 120.567 96.1432 120.522 95.9888C120.496 95.9004 120.707 95.6331 120.819 95.6275C121.579 95.5898 122.342 95.5804 123.1 95.6162C123.227 95.6218 123.438 95.8928 123.433 96.0359C123.429 96.1601 123.186 96.3559 123.029 96.3784C122.681 96.4311 122.318 96.3954 121.962 96.3954C121.962 96.3916 121.962 96.3879 121.962 96.3841V96.3822Z" fill="#A75E5B"/>
  <path d="M54.5199 96.4239C54.1645 96.4089 53.8016 96.4277 53.4574 96.3599C53.3021 96.3298 53.0758 96.1322 53.0702 96.0004C53.0646 95.8649 53.2797 95.6052 53.4088 95.5977C54.1177 95.5563 54.8305 95.5506 55.5376 95.5977C55.6853 95.6071 55.8163 95.8894 55.9547 96.0456C55.8069 96.1604 55.6722 96.3505 55.5095 96.375C55.1877 96.4277 54.851 96.39 54.5218 96.39C54.5218 96.4013 54.5218 96.4107 54.5218 96.422L54.5199 96.4239Z" fill="#A75E5B"/>
  <path d="M103.432 88.5391C103.583 88.5598 103.847 88.5315 104.025 88.6426C104.186 88.7423 104.354 89.0115 104.328 89.1752C104.305 89.3258 104.029 89.5441 103.862 89.5479C103.252 89.5573 102.639 89.5102 102.031 89.435C101.872 89.4143 101.737 89.211 101.591 89.0924C101.746 88.9588 101.887 88.748 102.062 88.7066C102.483 88.6106 102.921 88.5955 103.432 88.5391Z" fill="#A75E5B"/>
  <path d="M31.4006 88.6562C32.1526 88.7296 33.0019 89.473 33.0936 90.1035C33.1216 90.3012 32.9477 90.5308 32.8654 90.7454C32.6764 90.6531 32.4557 90.5967 32.306 90.4593C31.945 90.1299 31.6027 89.7761 31.2828 89.4072C31.15 89.2547 31.0901 89.0383 30.9966 88.8519C31.1668 88.7691 31.337 88.6863 31.3988 88.6543L31.4006 88.6562Z" fill="#A75E5B"/>
  <path d="M20.493 89.4289C20.1376 89.4289 19.7765 89.4685 19.4323 89.4101C19.2901 89.3875 19.1835 89.156 19.0601 89.0186C19.1835 88.9114 19.3051 88.7175 19.4323 88.7118C20.1151 88.6817 20.8016 88.6798 21.4844 88.7194C21.6154 88.7269 21.7313 88.9716 21.8529 89.1071C21.7295 89.2163 21.6154 89.3969 21.4788 89.4177C21.1552 89.4628 20.8222 89.4327 20.493 89.4327C20.493 89.4327 20.493 89.4327 20.493 89.4308V89.4289Z" fill="#A75E5B"/>
  <path d="M54.4152 88.6989C54.7444 88.6989 55.0793 88.6688 55.4029 88.7139C55.5376 88.7327 55.6517 88.9134 55.7751 89.0207C55.6535 89.1562 55.5376 89.4047 55.4066 89.4122C54.7238 89.4517 54.0373 89.4536 53.3545 89.4122C53.2236 89.4047 53.1076 89.1544 52.9841 89.017C53.13 88.904 53.2666 88.7177 53.4275 88.6913C53.7492 88.6405 54.0859 88.6763 54.4152 88.6763C54.4152 88.6838 54.4152 88.6913 54.4152 88.6989Z" fill="#A75E5B"/>
  <path d="M121.953 88.7033C122.284 88.7033 122.621 88.6713 122.946 88.7184C123.074 88.7372 123.266 88.9367 123.264 89.0515C123.264 89.1739 123.072 89.396 122.956 89.3997C122.269 89.4261 121.577 89.4242 120.892 89.3772C120.767 89.3677 120.66 89.108 120.544 88.9631C120.681 88.8709 120.812 88.7184 120.958 88.7015C121.285 88.6619 121.622 88.6883 121.953 88.6883C121.953 88.6921 121.953 88.6977 121.953 88.7015V88.7033Z" fill="#A75E5B"/>
  <path d="M81.8313 88.6844C82.1362 88.6844 82.4542 88.6355 82.7442 88.7032C82.9144 88.7428 83.0435 88.9667 83.1913 89.1079C83.051 89.2265 82.9144 89.4373 82.7666 89.4467C82.1568 89.4787 81.5432 89.4787 80.9353 89.4241C80.7707 89.409 80.6285 89.1644 80.4751 89.0251C80.6472 88.9103 80.8062 88.7352 80.9933 88.6957C81.2608 88.6392 81.5507 88.6807 81.8313 88.6807C81.8313 88.6807 81.8313 88.6825 81.8313 88.6844Z" fill="#A75E5B"/>
  <path d="M81.5377 93.0086C81.1599 92.8109 80.7839 92.6152 80.406 92.4176C80.8101 92.3047 81.2085 92.1578 81.6201 92.092C81.9399 92.0412 82.2785 92.0694 82.604 92.107C82.7275 92.1221 82.9445 92.2896 82.9332 92.3385C82.8958 92.4891 82.7892 92.7018 82.6676 92.7338C82.3309 92.8241 81.9736 92.8354 81.6238 92.8787C81.5957 92.922 81.5677 92.9634 81.5396 93.0067L81.5377 93.0086Z" fill="#A75E5B"/>
  <path d="M102.887 92.8875C102.558 92.8668 102.223 92.8781 101.905 92.8103C101.782 92.784 101.645 92.5901 101.613 92.4508C101.596 92.3756 101.791 92.1723 101.896 92.1666C102.526 92.1384 103.16 92.1347 103.791 92.1704C103.899 92.1761 104.086 92.417 104.073 92.5299C104.058 92.6485 103.86 92.8103 103.722 92.8367C103.452 92.8856 103.166 92.8517 102.887 92.8517C102.887 92.8649 102.887 92.8781 102.887 92.8913V92.8875Z" fill="#A75E5B"/>
  <path d="M20.1675 93.0317C19.7653 92.8209 19.4042 92.6327 19.0432 92.4426C19.4211 92.3203 19.7952 92.1057 20.175 92.0982C20.5996 92.0907 21.2225 91.8084 21.3591 92.5029C21.3759 92.5894 20.6464 92.8228 20.1675 93.0317Z" fill="#A75E5B"/>
  <path d="M54.2713 93.0578C53.8055 92.8244 53.4351 92.64 53.0647 92.4536C53.4613 92.3275 53.8578 92.1073 54.2563 92.1017C54.636 92.096 55.0177 92.3143 55.3974 92.4348C55.042 92.6305 54.6884 92.8282 54.2713 93.0597V93.0578Z" fill="#A75E5B"/>
  <path d="M121.702 91.9258C122.121 92.1178 122.752 92.289 122.744 92.4208C122.705 93.0795 122.105 92.8593 121.736 92.8349C121.334 92.8085 120.943 92.5958 120.546 92.466C120.921 92.2909 121.295 92.1178 121.702 91.9258Z" fill="#A75E5B"/>
  <path d="M65.5924 29.9256C64.4832 28.9902 63.3739 28.0548 62.2627 27.1194C62.3487 27.0177 62.4348 26.9161 62.5227 26.8145C63.6376 27.748 64.7525 28.6815 65.8674 29.6151C65.7758 29.7186 65.6841 29.8221 65.5924 29.9238V29.9256Z" fill="#A75E5B"/>
  <path d="M96.3644 27.5005C95.7602 28.0689 95.156 28.6354 94.5518 29.2038C94.462 29.106 94.3722 29.0062 94.2805 28.9083C94.8903 28.3399 95.502 27.7715 96.1119 27.2031L96.3644 27.5005Z" fill="#A75E5B"/>
  <path d="M99.2769 27.1436C98.2126 28.0395 97.1463 28.9354 96.0819 29.8313C96.0014 29.7354 95.921 29.6375 95.8406 29.5415C96.905 28.6475 97.9675 27.7553 99.0319 26.8613C99.1142 26.9554 99.1965 27.0514 99.2788 27.1455L99.2769 27.1436Z" fill="#A75E5B"/>
  <path d="M65.4894 27.2031C66.1123 27.7847 66.7353 28.3682 67.4723 29.057C66.724 29.0683 65.6297 28.0877 65.3435 27.348C65.3921 27.2991 65.4408 27.2521 65.4894 27.2031Z" fill="#A75E5B"/>
</svg>