<svg xmlns="http://www.w3.org/2000/svg" width="30" height="30" viewBox="0 0 30 30" fill="none">
  <g clip-path="url(#clip0_534_1144)">
    <path fill-rule="evenodd" clip-rule="evenodd" d="M5.00294 0H24.9971C27.7472 0 30 2.25228 30 5.00294V24.9976C30 27.7477 27.7472 30.0005 24.9971 30.0005H5.00294C2.25229 30.0005 0 27.7477 0 24.9976V5.00294C0 2.25228 2.25229 0 5.00294 0Z" fill="url(#paint0_linear_534_1144)"/>
    <path fill-rule="evenodd" clip-rule="evenodd" d="M21.9808 15.0008C21.9808 11.1444 18.8562 8.01984 14.9998 8.01984C11.1434 8.01984 8.0188 11.1444 8.0188 15.0008C8.0188 18.8572 11.1434 21.9818 14.9998 21.9818C18.8562 21.9818 21.9808 18.8572 21.9808 15.0008ZM21.8486 7.07101C21.2252 7.07101 20.7252 7.57599 20.7252 8.1944C20.7252 8.81282 21.2252 9.31779 21.8486 9.31779C22.472 9.31779 22.972 8.81722 22.972 8.1944C22.972 7.57158 22.467 7.07101 21.8486 7.07101ZM9.29362 5.45697H20.7065C22.8211 5.45697 24.5436 7.18445 24.5436 9.29411V20.707C24.5436 22.8216 22.8211 24.5447 20.7065 24.5447H9.29362C7.18396 24.5447 5.45593 22.8216 5.45593 20.707V9.29411C5.45593 7.18445 7.18341 5.45697 9.29362 5.45697ZM20.7065 4.17773H9.29362C6.48019 4.17773 4.17725 6.48123 4.17725 9.29411V20.707C4.17725 23.5248 6.48074 25.8239 9.29362 25.8239H20.7065C23.5243 25.8239 25.8229 23.5254 25.8229 20.707V9.29411C25.8229 6.48123 23.5243 4.17773 20.7065 4.17773ZM9.46819 15.0008C9.46819 11.9467 11.9463 9.46868 15.0003 9.46868C18.0544 9.46868 20.5325 11.9467 20.5325 15.0008C20.5325 18.0549 18.0544 20.5324 15.0003 20.5324C11.9463 20.5324 9.46819 18.0549 9.46819 15.0008Z" fill="white"/>
  </g>
  <defs>
    <linearGradient id="paint0_linear_534_1144" x1="25.0488" y1="24.1033" x2="4.51999" y2="5.5057" gradientUnits="userSpaceOnUse">
      <stop stop-color="#FEC053"/>
      <stop offset="0.33" stop-color="#F2203E"/>
      <stop offset="0.65" stop-color="#B729A8"/>
      <stop offset="1" stop-color="#5342D6"/>
    </linearGradient>
    <clipPath id="clip0_534_1144">
      <rect width="30" height="30" fill="white"/>
    </clipPath>
  </defs>
</svg>