<svg xmlns="http://www.w3.org/2000/svg" width="23" height="24" viewBox="0 0 23 24" fill="none">
  <path d="M22.9963 12.0038C22.9442 12.0253 22.8938 12.0594 22.8401 12.0654C22.2172 12.1364 21.7859 12.5378 21.3695 12.9694C20.6918 13.6716 20.1257 14.4635 19.6206 15.3031C19.5436 15.4307 19.5075 15.5935 19.4841 15.7452C19.3694 16.4887 19.2642 17.2332 19.158 17.9783C19.0794 18.5282 19.0603 19.0764 19.2743 19.601C19.3556 19.8006 19.4756 19.9826 19.577 20.1734C19.6036 20.2234 19.6259 20.2762 19.6498 20.3274C19.6386 20.345 19.6275 20.3626 19.6158 20.3801C19.431 20.2949 19.2361 20.2273 19.064 20.1206C18.5233 19.7846 17.9349 19.7582 17.3501 19.8776C16.5572 20.0398 15.7626 20.1706 14.9612 20.2762C14.7121 20.3092 14.4721 20.4967 14.2485 20.6463C13.4927 21.1516 12.8113 21.7526 12.2032 22.4389C11.893 22.7886 11.6731 23.1928 11.6322 23.6816C11.6248 23.7696 11.5919 23.8554 11.5568 24C11.4968 23.9076 11.458 23.8752 11.4559 23.84C11.4166 23.2109 11.0682 22.7435 10.6826 22.3086C9.96776 21.5014 9.12118 20.8602 8.20078 20.3307C7.99099 20.2097 7.70951 20.2218 7.46042 20.1756C6.92347 20.0755 6.38759 19.9716 5.84958 19.8803C5.10604 19.7538 4.38161 19.7549 3.74163 20.2608C3.64975 20.3334 3.53662 20.3774 3.43359 20.4351C3.41341 20.4115 3.39269 20.3878 3.37251 20.3642C3.42881 20.2889 3.47395 20.2003 3.54247 20.141C3.86113 19.8638 3.98806 19.4998 4.01462 19.0852C4.05551 18.4435 3.91211 17.8293 3.77881 17.2095C3.67471 16.7251 3.62054 16.2297 3.5329 15.7408C3.50263 15.5737 3.46758 15.395 3.3842 15.2536C2.76599 14.2045 2.02563 13.2603 1.11213 12.4679C0.858796 12.2485 0.585277 12.0968 0.243777 12.0979C0.162518 12.0979 0.0812589 12.0456 0 12.017C0.00212442 11.9962 0.00424887 11.9747 0.00584218 11.9538C0.0472683 11.9346 0.0940056 11.8911 0.12959 11.8994C0.645292 12.0198 0.988385 11.7102 1.32457 11.3885C2.16 10.589 2.83185 9.65642 3.42722 8.65674C3.55734 8.43844 3.5908 8.21848 3.62213 7.97819C3.68374 7.50034 3.78943 7.02855 3.84254 6.55015C3.89459 6.08001 3.90521 5.60491 3.93283 5.13147C3.95938 4.68497 3.77774 4.3138 3.54618 3.95638C3.45961 3.82276 3.40119 3.66934 3.33002 3.52472C3.35127 3.50932 3.37251 3.49338 3.39376 3.47798C3.43731 3.49503 3.48935 3.50163 3.52335 3.53077C4.21484 4.11694 5.01628 4.19007 5.85755 4.0669C6.52037 3.97012 7.19115 3.90414 7.84122 3.74742C8.17369 3.66714 8.49076 3.45049 8.77544 3.23878C9.32194 2.83242 9.86526 2.41342 10.3634 1.94657C10.7506 1.58365 11.1803 1.22733 11.3131 0.653806C11.3497 0.494341 11.364 0.328277 11.4081 0.171012C11.4262 0.106127 11.4963 0.0566375 11.5425 0C11.5802 0.0560876 11.6487 0.111075 11.6508 0.168263C11.6737 0.742886 11.9339 1.16794 12.3089 1.5897C12.8166 2.16102 13.3668 2.66746 13.9776 3.10571C14.3393 3.36471 14.6792 3.68309 15.1328 3.76777C15.4541 3.8277 15.7812 3.85355 16.1041 3.90689C16.5784 3.98607 17.049 4.09055 17.5243 4.15873C18.228 4.25991 18.8643 4.0724 19.4331 3.6303C19.5027 3.57586 19.5935 3.55057 19.6742 3.51152L19.7231 3.57751C19.6848 3.6435 19.6551 3.71718 19.6062 3.77382C19.2393 4.19887 19.0985 4.69486 19.1585 5.25794C19.2313 5.93924 19.3317 6.61889 19.3651 7.30239C19.4044 8.10246 19.7103 8.77001 20.1565 9.39962C20.7008 10.1678 21.2808 10.8986 21.9861 11.5183C22.2161 11.7201 22.4556 11.8697 22.7668 11.8719C22.8449 11.8724 22.9225 11.9098 23 11.9302C22.9989 11.9544 22.9979 11.9786 22.9963 12.0027V12.0038ZM6.15284 12.9359C6.15284 12.9485 6.15284 12.9606 6.15284 12.9733C5.53358 12.9733 4.91431 12.9799 4.29557 12.9694C4.09694 12.9661 3.98912 13.0398 3.97107 13.24C3.91424 13.8685 3.85953 14.4975 3.81014 15.1272C3.80536 15.1887 3.82926 15.2685 3.86697 15.3163C4.34868 15.9283 4.86598 16.4991 5.61908 16.7532C5.94837 16.8642 6.29571 16.939 6.61968 16.763C6.80663 16.6613 6.96649 16.4969 7.12105 16.3418C7.69145 15.7705 8.25283 15.1898 8.82111 14.6158C8.95229 14.4833 8.99 14.3606 8.88856 14.1808C8.70108 13.8498 8.52741 13.5089 8.36542 13.1635C8.28788 12.9986 8.18857 12.9304 8.01011 12.9331C7.39138 12.9414 6.77264 12.9364 6.1539 12.9364L6.15284 12.9359ZM16.8604 12.9353V12.9716C16.2343 12.9716 15.6076 12.976 14.9814 12.9689C14.8077 12.9667 14.6903 13.0305 14.6091 13.1866C14.454 13.4858 14.3016 13.786 14.1353 14.078C14.0392 14.2468 14.0753 14.3617 14.2049 14.4915C14.9001 15.1887 15.5874 15.8948 16.2826 16.5926C16.3575 16.6679 16.4568 16.7378 16.5561 16.7619C16.8987 16.8472 17.2354 16.7966 17.5626 16.669C18.1962 16.421 18.6763 15.9657 19.0916 15.4312C19.1676 15.3334 19.2116 15.1904 19.2254 15.0628C19.294 14.4492 19.2238 13.847 19.0645 13.2515C19.0045 13.0272 18.9094 12.9249 18.6726 12.9304C18.0687 12.9441 17.4643 12.9348 16.8599 12.9348L16.8604 12.9353ZM15.3648 11.7773C15.5051 11.7888 15.5964 11.8026 15.6872 11.8026C16.4366 11.8026 17.1871 11.7833 17.9359 11.8053C18.4346 11.8202 18.7257 11.5431 18.9317 11.1367C19.2924 10.424 19.3189 9.64707 19.286 8.86624C19.2812 8.75242 19.243 8.6111 19.1702 8.53356C18.7761 8.11401 18.3996 7.67026 17.861 7.42886C17.7219 7.36672 17.6512 7.38267 17.5865 7.52179C17.5041 7.69775 17.4075 7.86656 17.3167 8.03812C16.7223 9.16043 16.128 10.2816 15.5348 11.4045C15.4801 11.5084 15.4365 11.6189 15.3654 11.7773H15.3648ZM7.5932 11.7652C7.56664 11.6954 7.55549 11.653 7.53584 11.6156C6.82522 10.2882 6.11142 8.96247 5.40452 7.63286C5.32751 7.4877 5.23297 7.4679 5.12462 7.55313C4.85429 7.76483 4.60786 8.01283 4.32584 8.20474C3.85157 8.52697 3.73313 8.96962 3.79262 9.5239C3.84891 10.0485 3.86644 10.5791 4.12031 11.0542C4.35718 11.4974 4.66522 11.8394 5.21385 11.7965C5.37318 11.7844 5.53251 11.7652 5.69184 11.7669C6.23676 11.7718 6.78167 11.7861 7.32605 11.7932C7.4089 11.7943 7.49122 11.7767 7.5932 11.7652ZM19.5351 14.767C19.9446 14.2419 20.3317 13.7222 20.7423 13.2235C21.1576 12.7192 21.6473 12.2991 22.2692 11.9665C21.0647 11.3017 20.3811 10.1739 19.5425 9.10434C19.4474 10.2173 19.414 11.2879 18.4447 12.0104C18.9254 12.2975 19.193 12.7269 19.3062 13.2356C19.4156 13.7283 19.4586 14.2364 19.5351 14.767ZM11.5871 19.2512C11.2737 19.4728 11.0151 19.6796 10.7352 19.8484C10.2381 20.1481 9.67406 20.1965 9.11747 20.2641C9.03833 20.2735 8.96026 20.2949 8.82323 20.3224C9.86473 21.128 10.8855 21.8621 11.5345 23.0509C12.1426 21.8302 13.1634 21.1027 14.1454 20.329C13.6435 20.2328 13.1783 20.1662 12.7247 20.0508C12.2467 19.9287 11.8755 19.6114 11.5876 19.2518L11.5871 19.2512ZM15.1975 19.9881C15.3494 19.9804 15.4334 19.9837 15.5157 19.9705C15.9023 19.9084 16.2879 19.8374 16.6756 19.7786C17.477 19.6571 18.279 19.5504 19.0672 19.8583C19.0767 19.8622 19.0927 19.8473 19.1293 19.8297C19.1203 19.7736 19.1192 19.7076 19.098 19.6488C18.9116 19.1347 18.8898 18.6068 18.954 18.0679C19.0295 17.4328 19.0974 16.7966 19.166 16.1604C19.1718 16.107 19.1585 16.0515 19.1516 15.9608C18.9078 16.1774 18.7018 16.3765 18.4798 16.5546C18.0044 16.9357 17.4866 17.2084 16.862 17.1903C16.5641 17.1815 16.5768 17.2118 16.562 17.5268C16.5476 17.8348 16.4977 18.1542 16.3947 18.4418C16.1981 18.9895 15.8094 19.4036 15.3988 19.7918C15.3484 19.8396 15.299 19.8897 15.1986 19.9886L15.1975 19.9881ZM3.48882 14.7576C3.51219 14.646 3.52388 14.6042 3.52972 14.5613C3.58495 14.1819 3.62107 13.7981 3.69808 13.4236C3.80536 12.9029 4.04064 12.4476 4.46074 12.1188C4.59724 12.0121 4.57281 11.9472 4.4565 11.8427C4.31469 11.7157 4.17873 11.5755 4.06826 11.4193C3.66781 10.8541 3.58867 10.187 3.53397 9.5151C3.52759 9.43976 3.51272 9.36498 3.49201 9.22036C2.72563 10.3003 2.01979 11.3418 0.923059 12.0341C2.0336 12.6791 2.71554 13.7261 3.48882 14.7576ZM11.5032 0.960088C10.9238 2.23801 9.77497 2.81923 8.84448 3.68199C9.10631 3.70178 9.33681 3.71278 9.56625 3.73752C10.0867 3.79361 10.586 3.93823 11.0257 4.23242C11.2281 4.36769 11.3816 4.58104 11.5733 4.7746C12.1607 3.75622 13.2043 3.79636 14.2607 3.70783C13.1507 2.9644 12.2101 2.14233 11.5027 0.959538L11.5032 0.960088ZM7.7281 19.9694C7.7127 19.9226 7.71163 19.9056 7.70314 19.8957C7.65321 19.8413 7.59957 19.7901 7.55018 19.7351C6.9734 19.0857 6.49116 18.389 6.50231 17.4504C6.5039 17.3113 6.43486 17.2711 6.31111 17.2684C6.14435 17.264 5.97545 17.2596 5.8124 17.2271C5.22235 17.1106 4.73001 16.8026 4.30088 16.3754C4.19572 16.2709 4.07729 16.1807 3.92752 16.051C3.92752 16.2368 3.91424 16.3578 3.92964 16.4749C3.98169 16.8708 4.03852 17.2662 4.10384 17.6594C4.19307 18.196 4.26955 18.7322 4.18032 19.2771C4.1543 19.4349 4.12562 19.5922 4.08844 19.8061C5.34769 19.4096 6.52143 19.8286 7.72863 19.9694H7.7281ZM11.6461 18.8982C11.7602 19.0626 11.8766 19.2392 12.0024 19.4085C12.0922 19.53 12.1846 19.5207 12.2919 19.4107C12.6589 19.0351 13.0322 18.6667 13.4045 18.2972C14.0344 17.6725 14.6654 17.049 15.2969 16.4265C15.3877 16.3369 15.4652 16.2577 15.3409 16.129C14.8932 15.6666 14.4487 15.1997 14.0042 14.7345C13.908 14.6345 13.8321 14.6361 13.7726 14.773C13.7519 14.8209 13.7216 14.8643 13.6972 14.9105C13.0997 16.0477 12.5006 17.1843 11.9058 18.3231C11.8165 18.4941 11.7459 18.6755 11.6466 18.8988L11.6461 18.8982ZM8.41535 8.47143C8.57999 8.90638 8.8397 9.24456 9.16792 9.5228C9.59546 9.88462 10.0384 10.2272 10.475 10.5786C10.9705 10.9772 11.2355 11.4886 11.1511 12.1485C11.1011 12.5356 10.9986 12.9161 10.9514 13.3032C10.9115 13.6282 10.8621 13.9691 10.9142 14.2858C11.0618 15.1816 11.2589 16.0686 11.4384 16.9588C11.448 17.005 11.4745 17.0473 11.4931 17.0913C11.5786 16.9786 11.6237 16.8626 11.6492 16.7427C11.7762 16.1406 11.8983 15.5374 12.0221 14.9347C12.1442 14.3425 12.2494 13.7552 12.0513 13.1514C11.9536 12.8545 11.8882 12.5378 11.8643 12.2254C11.8447 11.9698 11.8819 11.7003 11.9408 11.449C12.0672 10.9096 12.4772 10.6127 12.8915 10.319C13.506 9.88297 14.0891 9.40897 14.4848 8.73537C14.5528 8.6199 14.6043 8.49397 14.6845 8.33011C14.6133 8.3598 14.5958 8.36145 14.5889 8.3708C14.5496 8.42524 14.5119 8.48078 14.4763 8.53741C14.0886 9.14723 13.583 9.61133 12.9563 9.9583C12.5224 10.198 12.1225 10.5071 11.7225 10.8068C11.5653 10.925 11.4554 10.9475 11.3024 10.8145C11.0916 10.6303 10.8744 10.4504 10.6433 10.2954C10.2232 10.0133 9.76488 9.78509 9.37133 9.46891C9.02612 9.19122 8.74835 8.82445 8.41641 8.47143H8.41535ZM10.664 19.745C10.5599 19.6186 10.5143 19.5542 10.4601 19.4987C10.2312 19.2666 9.9991 19.039 9.77019 18.8075C9.06807 18.0976 8.36914 17.3839 7.66118 16.6795C7.59745 16.6162 7.42856 16.5574 7.39138 16.592C7.1237 16.8406 6.81725 17.0836 6.86877 17.5224C6.89586 17.7523 6.92666 17.9876 6.99889 18.2054C7.23948 18.9301 7.75571 19.4443 8.2916 19.9364C8.35002 19.9903 8.45252 20.0161 8.53431 20.015C8.9268 20.0101 9.32141 20.0145 9.71018 19.9694C10.0129 19.9342 10.3082 19.8314 10.6646 19.745H10.664ZM9.17589 14.7417C8.70745 15.219 8.27089 15.6589 7.84388 16.1087C7.81414 16.14 7.83432 16.2682 7.87256 16.3143C7.98993 16.4573 8.12696 16.5827 8.25655 16.7141C9.11428 17.5829 9.97095 18.4523 10.8329 19.3167C10.8855 19.3695 10.9907 19.4173 11.0523 19.3986C11.2084 19.3508 11.3439 19.0187 11.2849 18.8641C11.2127 18.6761 11.1404 18.4858 11.0491 18.3077C10.5844 17.4042 10.1138 16.5041 9.64326 15.6039C9.49561 15.3218 9.34053 15.0436 9.17695 14.7406L9.17589 14.7417ZM10.4867 4.35394C9.78878 4.03226 9.09835 3.98387 8.39623 4.02786C8.33674 4.03171 8.2746 4.07515 8.22362 4.11419C7.71747 4.49581 7.32658 4.98795 7.09821 5.58237C6.97658 5.89965 6.9734 6.27081 6.94684 6.61999C6.93304 6.8064 7.03713 6.92187 7.24957 6.90757C7.48167 6.89163 7.71641 6.91912 7.94797 6.89823C8.06004 6.88833 8.19388 6.83939 8.27142 6.75966C8.91193 6.10145 9.54341 5.4339 10.1728 4.76415C10.2822 4.64812 10.3693 4.509 10.4867 4.35394ZM12.5234 19.739C12.6328 19.7868 12.695 19.8193 12.7603 19.8424C13.3227 20.037 13.9064 20.0244 14.4885 20.026C14.5496 20.026 14.624 20.0024 14.6696 19.9622C15.2554 19.4492 15.8343 18.9208 16.0925 18.1421C16.2518 17.6604 16.2088 17.1744 15.9172 16.7422C15.778 16.5354 15.7154 16.5414 15.5428 16.7136C14.8205 17.435 14.0966 18.1542 13.3743 18.8762C13.0986 19.1517 12.8272 19.4311 12.5234 19.739ZM12.6461 4.28685C12.6419 4.3193 12.6382 4.35229 12.6339 4.38473C12.6886 4.45182 12.7401 4.5222 12.7991 4.58489C13.3328 5.14961 13.8661 5.71434 14.4025 6.27631C15.0191 6.92187 15.0207 6.91527 15.8917 6.90482C16.0946 6.90263 16.1551 6.81465 16.1668 6.62329C16.195 6.14654 16.0877 5.70609 15.8301 5.31623C15.3452 4.58269 14.8592 3.83925 13.8119 4.0669C13.4253 4.15103 13.0349 4.21427 12.6461 4.2874V4.28685ZM4.0911 4.13674C4.13996 4.26981 4.15642 4.33469 4.18563 4.39243C4.57706 5.16611 4.97167 5.93759 5.36043 6.71182C5.4332 6.85644 5.52826 6.91967 5.68972 6.90977C5.90004 6.89658 6.11195 6.89933 6.32227 6.90867C6.51293 6.91747 6.5687 6.83389 6.53364 6.64913C6.4561 6.24222 6.51134 5.83861 6.70041 5.48669C6.92454 5.06933 7.20974 4.68716 7.46998 4.2907C7.51194 4.22692 7.56133 4.16918 7.6325 4.07515C6.43592 4.0702 5.30254 4.5189 4.09056 4.13619L4.0911 4.13674ZM15.4371 4.12244C15.504 4.22857 15.5332 4.294 15.5783 4.34404C16.1801 5.01269 16.6453 5.74073 16.562 6.71457C16.5503 6.84874 16.6135 6.90592 16.7436 6.90208C16.9401 6.89603 17.1366 6.89163 17.3331 6.89933C17.4861 6.90538 17.5716 6.83554 17.6401 6.69972C17.954 6.07946 18.278 5.46414 18.5924 4.84388C18.6805 4.66957 18.7474 4.48371 18.8393 4.26706C18.6811 4.2797 18.5738 4.294 18.466 4.29565C18.0687 4.3028 17.6698 4.33139 17.2752 4.3028C16.8849 4.27421 16.4998 4.17468 16.11 4.12684C15.9071 4.10209 15.6989 4.12244 15.4376 4.12244H15.4371ZM14.4906 6.86688C14.3589 6.72502 14.2644 6.61944 14.1661 6.51771C13.5655 5.89415 12.9664 5.26894 12.3604 4.65087C12.3137 4.60303 12.2122 4.56839 12.1527 4.58599C11.9355 4.65032 11.7486 4.93131 11.747 5.16886C11.7438 5.6511 11.7512 6.13335 11.7406 6.61504C11.7358 6.82674 11.8054 6.91032 12.0168 6.90757C12.7662 6.89713 13.5155 6.90153 14.2649 6.89823C14.3191 6.89823 14.3733 6.88393 14.4906 6.86743V6.86688ZM8.66178 6.86413C8.80093 6.88558 8.86997 6.90483 8.93901 6.90538C9.67459 6.90702 10.4096 6.90263 11.1452 6.90757C11.3226 6.90867 11.3683 6.82509 11.3672 6.65848C11.3635 6.22133 11.3524 5.78307 11.38 5.34812C11.3975 5.07153 11.3221 4.86862 11.1272 4.68936C10.9854 4.55904 10.8829 4.55299 10.7416 4.70201C10.2785 5.1925 9.801 5.66815 9.3315 6.15204C9.12225 6.36814 8.91883 6.59084 8.66178 6.86413ZM3.83882 8.03153C4.2568 7.71535 4.64982 7.42391 5.03274 7.11928C5.06886 7.09013 5.06939 6.96531 5.0423 6.90647C4.85535 6.49846 4.65832 6.0954 4.46021 5.69344C4.37789 5.52628 4.28548 5.36517 4.19785 5.2024C4.07676 6.15754 3.95885 7.08628 3.83829 8.03153H3.83882ZM18.8531 5.16666C18.8531 5.16666 18.833 5.17161 18.8276 5.18261C18.5361 5.74678 18.2424 6.30931 17.9609 6.87898C17.9428 6.91582 18.0018 7.03075 18.0517 7.06099C18.4224 7.28424 18.7836 7.51684 19.0714 7.85392C19.1017 7.88966 19.1474 7.9111 19.2148 7.96004C19.0911 7.0049 18.9721 6.08716 18.8531 5.16666ZM18.6481 12.5603L18.6667 12.4756C18.4915 12.2953 18.3247 12.1309 18.0251 12.1622C17.6661 12.2002 17.3013 12.1897 16.9396 12.187C16.4456 12.1831 15.9522 12.1628 15.4589 12.1578C15.1322 12.1545 15.0823 12.204 14.9888 12.5603H18.6492H18.6481ZM7.96656 12.5664C7.92089 12.2331 7.84706 12.1556 7.59107 12.1556C6.70466 12.1556 5.81878 12.1595 4.93236 12.1611C4.65566 12.1611 4.49951 12.3415 4.3115 12.5669H7.96603L7.96656 12.5664ZM5.67432 7.17097C5.64829 7.20231 5.6228 7.2342 5.59678 7.26554C5.73221 7.46955 5.83046 7.72084 6.00838 7.86931C7.10617 8.78266 8.22096 9.67346 9.3315 10.5709C9.5859 10.7765 9.84402 10.9772 10.1011 11.1801C10.0182 11.0449 9.92262 10.925 9.81162 10.8238C9.29379 10.352 8.76694 9.88957 8.25124 9.41502C7.49069 8.71558 6.73865 8.00568 5.97652 7.30789C5.89791 7.23585 5.77576 7.21551 5.67432 7.17152V7.17097ZM12.7879 10.964C12.8086 10.986 12.8288 11.008 12.8495 11.03C14.2251 9.77299 15.6001 8.51597 17.0145 7.22375C16.6921 7.14512 16.4679 7.15832 16.2704 7.37002C15.9076 7.75879 15.5316 8.1349 15.1636 8.51927C14.4944 9.21871 13.8284 9.92201 13.1581 10.6209C13.0413 10.7424 12.9111 10.8502 12.7874 10.964H12.7879ZM12.9589 11.135C12.9658 11.146 12.9728 11.1565 12.9797 11.1675C13.0822 11.0911 13.1889 11.0207 13.2861 10.9376C13.5894 10.6797 13.8799 10.4054 14.1911 10.159C14.9012 9.59593 15.6267 9.0543 16.3325 8.48628C16.6066 8.26577 16.8541 8.00678 17.0962 7.74834C17.228 7.60812 17.3044 7.42391 17.3331 7.23145L17.2582 7.17482C15.8248 8.49452 14.3919 9.81478 12.9584 11.1345L12.9589 11.135ZM6.12523 7.26829C7.47901 8.51157 8.8328 9.75539 10.1866 10.9987C10.1398 10.8727 10.0607 10.7798 9.97626 10.6918C9.48393 10.181 8.98734 9.67401 8.49714 9.16098C7.93948 8.57755 7.37757 7.99798 6.83744 7.39752C6.6303 7.16712 6.4099 7.16052 6.12469 7.26829H6.12523ZM11.5234 7.18361C11.4942 7.18361 11.4655 7.18361 11.4363 7.18361C11.1298 7.18361 11.1134 7.20616 11.1511 7.51739C11.1819 7.77088 11.1999 8.02603 11.2281 8.27952C11.2461 8.44339 11.269 8.60725 11.2961 8.77001C11.3247 8.94597 11.4671 8.98227 11.5935 8.95697C11.6567 8.94432 11.7326 8.8195 11.7427 8.73757C11.7964 8.29052 11.8282 7.84017 11.8739 7.39202C11.8888 7.24685 11.8442 7.17646 11.6986 7.18416C11.6407 7.18746 11.5823 7.18416 11.5244 7.18416L11.5234 7.18361ZM7.64896 11.0867C7.70845 11.4028 7.83219 11.5573 8.07916 11.6475C8.69577 11.8719 9.31344 12.094 9.93059 12.3162C10.177 12.4047 10.4235 12.4949 10.6725 12.5763C10.7108 12.5889 10.7623 12.5581 10.808 12.5477C10.7835 12.4998 10.766 12.446 10.7331 12.4058C10.7124 12.38 10.6694 12.3723 10.6359 12.358C10.0602 12.1083 9.48499 11.8565 8.90821 11.6101C8.50085 11.4364 8.08978 11.2698 7.64896 11.0867ZM16.733 8.44888L16.6724 8.37685C15.4912 9.32649 14.3101 10.2761 13.1289 11.2252C13.1432 11.245 13.157 11.2648 13.1714 11.2841C14.2697 10.5027 15.384 9.7455 16.4924 8.93223C16.4026 8.87284 16.3681 8.84975 16.3405 8.8316C16.4802 8.69523 16.6066 8.57151 16.733 8.44833V8.44888ZM13.1438 9.42767C13.8719 9.16593 14.7286 7.90395 14.6755 7.40686C13.9102 7.87811 13.5989 8.71063 13.1438 9.42767ZM12.1872 12.4905C12.1979 12.5246 12.209 12.5592 12.2196 12.5933C12.2988 12.5785 12.38 12.5724 12.456 12.5471C12.5665 12.5108 12.6716 12.4575 12.781 12.4179C13.5076 12.1551 14.2336 11.8911 14.9617 11.6338C15.1843 11.5551 15.2512 11.3731 15.2809 11.1312C14.2495 11.5843 13.2181 12.0368 12.1867 12.4899L12.1872 12.4905ZM9.92899 9.48211C9.86101 9.35178 9.82755 9.27095 9.78028 9.19892C9.53863 8.83215 9.26511 8.48408 9.05851 8.09696C8.89175 7.78463 8.63682 7.62077 8.35799 7.4558C8.42862 8.19484 9.2375 9.21431 9.92899 9.48156V9.48211ZM6.77583 9.0543C7.79608 9.78014 8.79456 10.4906 9.79303 11.2005C9.80737 11.1801 9.82171 11.1598 9.83552 11.14C8.63151 10.175 7.42802 9.20992 6.22401 8.24433C6.20648 8.26687 6.18949 8.28887 6.17196 8.31141C6.42211 8.52972 6.67226 8.74802 6.93197 8.97457C6.87143 9.00536 6.83744 9.02296 6.77583 9.0543ZM9.91412 11.5288C9.92687 11.5062 9.93908 11.4842 9.95183 11.4617C8.86997 10.7116 7.78811 9.96215 6.70625 9.21212C6.73759 9.44801 6.81247 9.61188 7.00951 9.72185C7.44289 9.9638 7.85981 10.2393 8.28151 10.5032C8.82642 10.8436 9.36974 11.1867 9.91359 11.5282L9.91412 11.5288ZM16.2534 9.30175C15.2592 9.98744 14.301 10.6478 13.3435 11.3083C13.3578 11.3324 13.3716 11.3566 13.386 11.3808C13.6143 11.245 13.8438 11.1108 14.0711 10.9723C14.5703 10.6676 15.0717 10.3658 15.5656 10.0518C15.8418 9.87637 16.136 9.7114 16.2534 9.30175ZM7.12954 9.99129C7.10299 10.0243 7.07696 10.0567 7.05041 10.0897C7.15982 10.1947 7.25435 10.3273 7.38076 10.3993C7.80033 10.6379 8.23105 10.8563 8.65859 11.0801C9.05108 11.2852 9.44516 11.487 9.83817 11.6899L9.86951 11.6299C8.95601 11.0839 8.04251 10.5373 7.12954 9.99129ZM13.2213 11.6189C13.2341 11.6415 13.2463 11.6646 13.259 11.6871C13.6133 11.5013 13.9664 11.3132 14.3218 11.1295C14.744 10.9107 15.1678 10.6968 15.59 10.4774C15.735 10.4021 15.8428 10.2987 15.8258 10.0617C14.9352 10.594 14.0785 11.1064 13.2218 11.6189H13.2213ZM8.0765 8.3939C8.07278 8.39719 8.06854 8.40104 8.06482 8.40434C7.98728 8.30097 7.9092 8.19704 7.81785 8.07552C7.89168 8.05682 7.9416 8.04472 8.01702 8.02603C7.846 7.81157 7.68826 7.61802 7.53478 7.42061C7.33349 7.16107 7.22992 7.12698 6.87621 7.2331C7.28356 7.62737 7.67977 8.01063 8.0765 8.3939ZM15.0085 8.41149C15.001 8.40489 14.9941 8.39775 14.9867 8.39115C15.3797 8.00458 15.7733 7.61857 16.1849 7.21386C15.9443 7.16162 15.7541 7.13632 15.5927 7.36837C15.4068 7.63616 15.1843 7.87646 14.9771 8.1283C14.9899 8.1415 15.0026 8.15415 15.0154 8.16735C15.0818 8.12665 15.1476 8.08651 15.214 8.04582C15.2246 8.05737 15.2353 8.06892 15.2459 8.07992L15.0079 8.41149H15.0085ZM11.8277 9.62397C11.8415 9.61518 11.8553 9.60693 11.8696 9.59813C11.8027 9.4843 11.7586 9.33034 11.6609 9.2693C11.5844 9.22146 11.4187 9.25336 11.3327 9.31219C11.1686 9.42437 11.1543 9.66247 11.2876 9.90056C11.3391 9.99294 11.4586 10.126 11.5255 10.1134C11.7406 10.0732 11.7868 9.86427 11.8234 9.66851C11.8261 9.65367 11.8266 9.63882 11.8282 9.62397H11.8277ZM11.1011 16.5799C11.0725 16.5772 11.0433 16.5739 11.0146 16.5711C10.9514 16.6949 10.8722 16.8131 10.8303 16.944C10.7963 17.0501 10.7634 17.192 10.8043 17.2821C10.9471 17.6005 11.1219 17.904 11.2865 18.212C11.2934 18.2252 11.3189 18.2274 11.3518 18.2422C11.2668 17.6769 11.1845 17.1287 11.1022 16.581L11.1011 16.5799ZM11.9493 16.4403C11.8542 17.0237 11.7682 17.5543 11.6816 18.0844C11.7034 18.0905 11.7257 18.0971 11.7475 18.1031C11.8856 17.8403 12.0284 17.5796 12.1607 17.314C12.2807 17.0732 12.2048 16.7059 11.9488 16.4403H11.9493ZM13.02 9.23796C13.0375 9.24786 13.0551 9.25776 13.0726 9.26765C13.5145 8.59185 13.9569 7.91605 14.4073 7.22815C14.2187 7.14072 14.1274 7.21606 14.0541 7.34638C13.72 7.9375 13.3838 8.52807 13.0508 9.11974C13.0317 9.15383 13.0301 9.19837 13.02 9.23796ZM10.0166 9.39797C10.0384 9.38478 10.0602 9.37103 10.0814 9.35783C9.97361 9.15933 9.86792 8.95972 9.75798 8.76287C9.48977 8.28172 9.21944 7.80168 8.95017 7.32108C8.88378 7.20231 8.79933 7.14512 8.63257 7.243C9.09782 7.96774 9.55722 8.68313 10.0161 9.39797H10.0166ZM7.40837 10.5797C7.39031 10.6017 7.37173 10.6237 7.35367 10.6456C7.43599 10.7353 7.50397 10.8502 7.60329 10.909C7.78546 11.0163 7.98462 11.0927 8.17847 11.1779C8.74357 11.4265 9.30919 11.6734 9.87482 11.9208C9.88332 11.9021 9.89182 11.8829 9.90031 11.8642C9.06967 11.4358 8.23902 11.0075 7.40837 10.5797ZM10.7495 15.0106C10.7209 14.9199 10.7623 14.7186 10.5658 14.8357C10.3353 14.9732 10.1218 15.1431 9.91147 15.3125C9.87376 15.3433 9.8642 15.4494 9.88279 15.5066C9.90244 15.5671 10.0055 15.66 10.0134 15.6539C10.2609 15.4708 10.5021 15.2778 10.7421 15.0837C10.7538 15.0744 10.7469 15.0408 10.749 15.01L10.7495 15.0106ZM9.1403 13.9477C9.61989 13.8822 10.0453 13.8289 10.4681 13.7607C10.518 13.7525 10.5552 13.6639 10.5987 13.6122C10.5339 13.582 10.4654 13.5193 10.4043 13.527C9.99326 13.576 9.58324 13.6359 9.17429 13.7024C9.11959 13.7112 9.07392 13.7772 9.02399 13.8162C9.07179 13.8701 9.11959 13.924 9.1403 13.9471V13.9477ZM15.5789 10.7254C15.5587 10.7001 15.538 10.6742 15.5178 10.6489C14.7897 11.0273 14.0615 11.405 13.2872 11.807C13.3652 11.8251 13.3817 11.835 13.3918 11.8306C14.0541 11.542 14.7185 11.2571 15.376 10.9574C15.4599 10.9189 15.512 10.8046 15.5789 10.7248V10.7254ZM10.2551 9.40622C10.2721 9.39907 10.2891 9.39193 10.3061 9.38478C10.2248 9.20332 10.1462 9.01966 10.0612 8.83985C9.82437 8.34001 9.58909 7.83907 9.34106 7.34528C9.30707 7.27764 9.2035 7.24795 9.13181 7.20066C9.1403 7.27984 9.12809 7.37002 9.16102 7.43601C9.30282 7.71535 9.45578 7.98864 9.60821 8.26193C9.82224 8.64464 10.0395 9.02516 10.2551 9.40622ZM13.95 7.25345C13.9176 7.2298 13.8852 7.20616 13.8528 7.18196C13.5177 7.37717 13.4879 7.79123 13.3164 8.09916C13.1379 8.41864 13.0004 8.76286 12.8448 9.09609C12.8676 9.10764 12.8904 9.11864 12.9133 9.13018C13.259 8.50442 13.6048 7.87866 13.9505 7.25345H13.95ZM9.5381 7.17701C9.50995 7.20341 9.48234 7.23035 9.45419 7.25675C9.72877 7.85007 10.0039 8.44284 10.2785 9.03615C10.3321 8.99381 10.3433 8.96907 10.3369 8.95202C10.1255 8.40049 9.91518 7.84842 9.69531 7.30074C9.67353 7.2463 9.59174 7.21771 9.5381 7.17701ZM9.88969 7.19021C9.86154 7.20781 9.8334 7.22485 9.80578 7.24245C10.066 7.90945 10.3263 8.57646 10.5865 9.24291C10.6099 9.23356 10.6338 9.22476 10.6571 9.21541C10.4479 8.5847 10.2402 7.95344 10.0251 7.32493C10.0065 7.26994 9.9359 7.2342 9.88969 7.18966V7.19021ZM12.6233 9.0697C12.6456 9.08289 12.6679 9.09609 12.6897 9.10929C12.9637 8.53246 13.2399 7.95674 13.5081 7.37717C13.5283 7.33318 13.4927 7.2617 13.4831 7.20341C13.4295 7.24355 13.3493 7.27159 13.3265 7.32603C13.0864 7.90505 12.8559 8.48792 12.6228 9.0697H12.6233ZM12.4215 9.08454C12.4693 9.05155 12.4873 9.0466 12.4916 9.03505C12.7141 8.48957 12.9382 7.94519 13.1523 7.39642C13.1719 7.34583 13.1284 7.26829 13.114 7.20341C13.0614 7.25455 12.9812 7.29634 12.9611 7.35903C12.7789 7.91935 12.6074 8.48353 12.4215 9.08454ZM10.7899 9.22586C10.8069 9.17032 10.8212 9.14888 10.817 9.13183C10.6656 8.52752 10.5148 7.9232 10.356 7.32108C10.3438 7.27434 10.2716 7.24465 10.2275 7.20726C10.2142 7.2606 10.1781 7.31998 10.1908 7.36562C10.2678 7.64056 10.3523 7.91275 10.4404 8.18439C10.5504 8.52202 10.6662 8.85799 10.7899 9.22586ZM12.5346 13.5287C12.5325 13.5578 12.5303 13.5864 12.5282 13.6155C12.9308 13.7162 13.3328 13.8179 13.7359 13.9163C13.7768 13.9262 13.8289 13.9295 13.8634 13.9114C13.9038 13.8894 13.95 13.8432 13.9553 13.802C13.959 13.7728 13.9022 13.7101 13.8666 13.7052C13.4237 13.6419 12.9791 13.5864 12.5351 13.5287H12.5346ZM12.3009 8.75187C12.3248 8.75846 12.3482 8.76506 12.3721 8.77166C12.5303 8.29162 12.6902 7.81212 12.8432 7.33098C12.8543 7.29524 12.8182 7.24355 12.8039 7.19901C12.7614 7.21881 12.6945 7.22815 12.6812 7.26115C12.6366 7.37057 12.6079 7.4877 12.5797 7.60317C12.4852 7.98589 12.3938 8.36915 12.3009 8.75187ZM10.9099 8.93937C10.9338 8.93663 10.9572 8.93333 10.9811 8.93058C10.8738 8.38015 10.7681 7.82972 10.6566 7.27984C10.6502 7.2485 10.5977 7.22705 10.5668 7.20066C10.5493 7.2573 10.5063 7.32053 10.518 7.37002C10.6439 7.89461 10.7782 8.41644 10.9099 8.93937ZM10.8329 7.17701C10.8521 7.77638 11.0146 8.31196 11.09 8.85964C11.1782 8.52532 11.0119 7.30899 10.8329 7.17701ZM12.1352 8.54456L12.2096 8.56326C12.3147 8.11511 12.4199 7.66751 12.5256 7.21936L12.4029 7.18856C12.2212 7.61747 12.1947 8.08541 12.1357 8.54456H12.1352ZM9.61299 12.3343C9.08985 12.1485 8.56724 11.9621 8.0441 11.7762C8.03189 11.8158 8.01914 11.8548 8.00693 11.8944C8.51466 12.1292 9.06382 12.232 9.61299 12.3343ZM15.5316 7.24905C15.521 7.22375 15.5098 7.19846 15.4992 7.17317C15.3569 7.19076 15.1365 7.15832 15.0892 7.2375C15.0074 7.37387 15.0334 7.57898 15.0138 7.75549C15.0393 7.76264 15.0642 7.76978 15.0897 7.77693C15.2368 7.60097 15.384 7.42501 15.5316 7.24905ZM13.5639 12.2782C13.5681 12.2953 13.5724 12.3118 13.5766 12.3288C13.6042 12.3288 13.634 12.3354 13.6595 12.3277C14.0525 12.2172 14.446 12.1089 14.8364 11.9885C14.8916 11.9714 14.9288 11.8922 14.9745 11.8422C14.9591 11.8224 14.9431 11.8026 14.9277 11.7828C14.4731 11.9478 14.0185 12.1133 13.5639 12.2782ZM12.1527 7.20946C11.9961 7.31668 11.8813 8.27622 11.9626 8.55611C12.0699 8.09861 12.1602 7.66201 12.1527 7.20946ZM12.3843 14.7356L12.2988 14.8346C12.5346 15.0573 12.7699 15.2806 13.0083 15.5C13.0206 15.5115 13.0779 15.4989 13.0822 15.4862C13.0944 15.4494 13.1082 15.3856 13.0901 15.3691C12.858 15.1547 12.6206 14.9462 12.3843 14.7362V14.7356ZM9.55934 12.5867C9.20244 12.358 8.33249 12.1496 8.18803 12.2766C8.64532 12.38 9.10206 12.4833 9.55934 12.5867ZM14.778 12.2557C14.7695 12.2211 14.7604 12.187 14.752 12.1523C14.317 12.2738 13.882 12.3954 13.4465 12.5174C13.4518 12.5383 13.4571 12.5592 13.4624 12.5801C13.9054 12.4905 14.3547 12.4245 14.7774 12.2551L14.778 12.2557ZM7.92885 7.67795C7.95594 7.66586 7.98303 7.65376 8.01011 7.64166C7.98356 7.49539 7.98781 7.32878 7.91611 7.21276C7.88318 7.15887 7.70101 7.20341 7.58682 7.20341C7.57886 7.22375 7.57142 7.24465 7.56346 7.265C7.68508 7.40246 7.80723 7.53993 7.92885 7.6774V7.67795ZM9.35646 12.7467C9.35912 12.7231 9.36124 12.6994 9.3639 12.6753C9.03886 12.606 8.71436 12.5367 8.38932 12.4668C8.38242 12.5086 8.37498 12.5504 8.36808 12.5917C8.69736 12.6434 9.02718 12.6945 9.35646 12.7462V12.7467ZM9.67672 12.981C9.67672 12.9645 9.67672 12.9474 9.67672 12.9309C9.3007 12.8721 8.92521 12.8138 8.54918 12.755L8.53485 12.8809C8.91565 12.9144 9.29645 12.9474 9.67672 12.981ZM14.6075 12.5972C14.599 12.5554 14.59 12.5141 14.5815 12.4723C14.2713 12.5422 13.9617 12.612 13.6515 12.6813C13.6558 12.706 13.6605 12.7308 13.6648 12.755C13.9792 12.7022 14.2931 12.6494 14.6075 12.5966V12.5972ZM13.361 12.9469C13.882 12.9953 14.3526 12.9188 14.445 12.7473C14.0859 12.8133 13.7556 12.8743 13.361 12.9469ZM13.3169 13.5094C13.3143 13.5193 13.3121 13.5292 13.3095 13.5391C13.5463 13.5589 13.7832 13.5782 14.0196 13.5979C14.0217 13.5683 14.0233 13.5386 14.0254 13.5089H13.3164L13.3169 13.5094ZM9.70912 13.5353C9.70805 13.5122 9.70752 13.4891 9.70646 13.466C9.4579 13.4819 9.20935 13.4984 8.96026 13.5144L8.96663 13.6084C9.21413 13.5842 9.46162 13.5595 9.70912 13.5353ZM8.71755 13.0772C8.71755 13.0937 8.71755 13.1097 8.71755 13.1262H9.52907C9.52907 13.1097 9.52907 13.0937 9.52907 13.0772H8.71755ZM14.2575 13.1311C14.2575 13.1157 14.2575 13.1003 14.2575 13.0855H13.5278C13.5278 13.1009 13.5288 13.1163 13.5293 13.1311H14.2575ZM9.35168 13.356C9.35168 13.3434 9.35115 13.3313 9.35062 13.3186H8.83386C8.83386 13.3313 8.83492 13.3434 8.83545 13.356H9.35168ZM13.1602 15.2745C13.1778 15.2487 13.1948 15.2228 13.2123 15.197C13.0753 15.0909 12.9382 14.9853 12.8007 14.8792C12.7874 14.8995 12.7741 14.9199 12.7608 14.9402C12.8941 15.0513 13.0269 15.1629 13.1602 15.274V15.2745ZM14.1327 13.3587C14.1337 13.3428 14.1348 13.3274 14.1359 13.3115H13.6611C13.6611 13.3274 13.6611 13.3428 13.6605 13.3587H14.1327ZM12.2892 16.8631C12.3158 16.8516 12.3423 16.8395 12.3684 16.8279C12.3158 16.7026 12.2627 16.5766 12.2101 16.4513L12.131 16.4865C12.1835 16.6118 12.2366 16.7378 12.2892 16.8631Z" fill="#BF8560"/>
</svg>