<svg xmlns="http://www.w3.org/2000/svg" width="54" height="53" viewBox="0 0 54 53" fill="none">
  <path d="M52.2938 35.0184C52.8554 33.8904 53.1317 32.6419 53.0988 31.3823C53.0659 30.1227 52.7246 28.8904 52.1049 27.7932C51.4853 26.6961 50.606 25.7676 49.5443 25.0891C48.4825 24.4106 47.2706 24.0028 46.0146 23.9013V7.24185C46.0146 3.79997 43.378 1 40.1368 1H4.74606C2.51379 1 0.253906 2.72209 0.253906 6.01384V14.8716C0.253906 16.9618 1.76778 18.662 3.62791 18.662H7.98489V45.7582C7.98489 49.2 10.6215 52 13.8626 52H49.2534C51.4857 52 53.7456 50.2779 53.7456 46.9862V38.1284C53.7531 37.5342 53.6265 36.9459 53.3752 36.4075C53.1238 35.869 52.7542 35.3942 52.2938 35.0184ZM51.8475 31.5875C51.8475 32.8653 51.4686 34.1144 50.7586 35.1768C50.0487 36.2392 49.0397 37.0673 47.8591 37.5562C46.6786 38.0452 45.3795 38.173 44.1263 37.9237C42.8731 37.6743 41.7219 37.0589 40.8185 36.1553C39.915 35.2516 39.2998 34.1004 39.0507 32.8471C38.8015 31.5938 38.9296 30.2948 39.4188 29.1144C39.9079 27.9339 40.7361 26.925 41.7987 26.2153C42.8613 25.5055 44.1104 25.1268 45.3882 25.127C47.1009 25.129 48.7429 25.8103 49.9538 27.0215C51.1648 28.2327 51.8458 29.8748 51.8475 31.5875ZM3.62791 17.4087C2.45857 17.4087 1.5078 16.2704 1.5078 14.8716V6.01384C1.5078 3.43013 3.18617 2.25389 4.74606 2.25389C5.15687 2.25086 5.56415 2.32988 5.94401 2.48633C6.32388 2.64278 6.66868 2.87351 6.9582 3.16497C7.30898 3.54851 7.58031 3.99773 7.75653 4.4867C7.93275 4.97567 8.01037 5.49471 7.98489 6.01384V17.4087H3.62791ZM13.8626 50.7461C11.3129 50.7461 9.23821 48.5087 9.23821 45.7582V6.01326C9.26472 5.33059 9.15532 4.64946 8.91637 4.00943C8.67741 3.3694 8.31367 2.78322 7.84627 2.28495L7.81694 2.25677H40.1368C42.6866 2.25677 44.7613 4.49421 44.7613 7.24472V23.9013C43.0439 24.0437 41.4234 24.756 40.1573 25.9251C38.8913 27.0943 38.0524 28.6531 37.774 30.3537H22.5594C22.3931 30.3537 22.2336 30.4198 22.116 30.5373C21.9985 30.6549 21.9324 30.8144 21.9324 30.9806C21.9324 31.1469 21.9985 31.3064 22.116 31.424C22.2336 31.5415 22.3931 31.6076 22.5594 31.6076H37.6751C37.6776 32.7474 37.9333 33.8725 38.4236 34.9015C38.9139 35.9305 39.6265 36.8378 40.5101 37.5578C40.4458 37.5361 40.3784 37.525 40.3105 37.525H22.5594C22.4755 37.5225 22.3919 37.5368 22.3137 37.5672C22.2354 37.5975 22.1641 37.6433 22.1038 37.7017C22.0436 37.7602 21.9957 37.8301 21.963 37.9074C21.9303 37.9847 21.9134 38.0678 21.9134 38.1517C21.9134 38.2356 21.9303 38.3187 21.963 38.396C21.9957 38.4733 22.0436 38.5432 22.1038 38.6017C22.1641 38.6601 22.2354 38.7059 22.3137 38.7362C22.3919 38.7666 22.4755 38.7809 22.5594 38.7784H40.3105C40.4766 38.7782 40.6359 38.7122 40.7533 38.5947C40.8707 38.4773 40.9368 38.3181 40.9369 38.152C40.9377 38.0294 40.902 37.9093 40.8345 37.8069C41.9822 38.6501 43.3418 39.1573 44.7613 39.2719V46.9862C44.7334 47.6769 44.8456 48.3661 45.0912 49.0122C45.3367 49.6584 45.7105 50.2482 46.19 50.7461H13.8626ZM52.4917 46.9862C52.4917 49.5699 50.8133 50.7461 49.2534 50.7461C47.6936 50.7461 46.0146 49.5699 46.0146 46.9862V39.2736C47.1256 39.1824 48.2036 38.8515 49.1744 38.3037C50.1452 37.7559 50.9857 37.0042 51.6381 36.1003C51.9137 36.3604 52.132 36.6751 52.2789 37.0243C52.4259 37.3735 52.4984 37.7496 52.4917 38.1284V46.9862ZM19.7525 22.3012H15.9224C15.7561 22.3012 15.5966 22.3672 15.479 22.4848C15.3615 22.6024 15.2954 22.7619 15.2954 22.9281V26.7571C15.2954 26.9234 15.3615 27.0828 15.479 27.2004C15.5966 27.318 15.7561 27.3841 15.9224 27.3841H19.7525C19.9188 27.3841 20.0782 27.318 20.1958 27.2004C20.3134 27.0828 20.3794 26.9234 20.3794 26.7571V22.9281C20.3794 22.7619 20.3134 22.6024 20.1958 22.4848C20.0782 22.3672 19.9188 22.3012 19.7525 22.3012ZM19.1255 26.1307H16.5487V23.5551H19.1244L19.1255 26.1307ZM22.5605 23.1829H40.3105C40.4735 23.1879 40.628 23.2561 40.7415 23.373C40.855 23.49 40.9185 23.6466 40.9185 23.8096C40.9185 23.9726 40.855 24.1292 40.7415 24.2462C40.628 24.3631 40.4735 24.4313 40.3105 24.4363H22.5594C22.4755 24.4388 22.3919 24.4245 22.3137 24.3941C22.2354 24.3638 22.1641 24.318 22.1038 24.2596C22.0436 24.2011 21.9957 24.1312 21.963 24.0539C21.9303 23.9766 21.9134 23.8935 21.9134 23.8096C21.9134 23.7257 21.9303 23.6426 21.963 23.5653C21.9957 23.488 22.0436 23.4181 22.1038 23.3596C22.1641 23.3012 22.2354 23.2554 22.3137 23.2251C22.3919 23.1947 22.4755 23.1804 22.5594 23.1829H22.5605ZM32.3265 25.8759C32.3265 26.0421 32.2605 26.2015 32.1431 26.319C32.0256 26.4366 31.8663 26.5027 31.7001 26.5029H22.5594C22.3931 26.5029 22.2336 26.4368 22.116 26.3192C21.9985 26.2017 21.9324 26.0422 21.9324 25.8759C21.9324 25.7097 21.9985 25.5502 22.116 25.4326C22.2336 25.315 22.3931 25.249 22.5594 25.249H31.699C31.8651 25.2491 32.0245 25.3153 32.1419 25.4328C32.2594 25.5504 32.3253 25.7098 32.3253 25.8759H32.3265ZM19.7525 29.4725H15.9224C15.7562 29.4725 15.5968 29.5385 15.4793 29.656C15.3617 29.7734 15.2956 29.9327 15.2954 30.0989V33.9284C15.2954 34.0947 15.3615 34.2542 15.479 34.3718C15.5966 34.4893 15.7561 34.5554 15.9224 34.5554H19.7525C19.9188 34.5554 20.0782 34.4893 20.1958 34.3718C20.3134 34.2542 20.3794 34.0947 20.3794 33.9284V30.0989C20.3793 29.9327 20.3132 29.7734 20.1956 29.656C20.078 29.5385 19.9187 29.4725 19.7525 29.4725ZM19.1255 33.3015H16.5487V30.7258H19.1244L19.1255 33.3015ZM21.9336 33.0467C21.9336 32.9644 21.9498 32.8828 21.9813 32.8068C22.0128 32.7307 22.059 32.6616 22.1172 32.6034C22.1754 32.5452 22.2445 32.499 22.3206 32.4675C22.3967 32.436 22.4782 32.4197 22.5605 32.4197H31.699C31.8652 32.4197 32.0247 32.4858 32.1423 32.6034C32.2599 32.7209 32.3259 32.8804 32.3259 33.0467C32.3259 33.213 32.2599 33.3724 32.1423 33.49C32.0247 33.6076 31.8652 33.6736 31.699 33.6736H22.5594C22.3931 33.6736 22.2336 33.6076 22.116 33.49C21.9985 33.3724 21.9324 33.213 21.9324 33.0467H21.9336ZM19.7525 36.6433H15.9224C15.7561 36.6433 15.5966 36.7093 15.479 36.8269C15.3615 36.9445 15.2954 37.104 15.2954 37.2702V41.0998C15.2956 41.266 15.3617 41.4253 15.4793 41.5427C15.5968 41.6602 15.7562 41.7261 15.9224 41.7261H19.7525C19.9187 41.7261 20.078 41.6602 20.1956 41.5427C20.3132 41.4253 20.3793 41.266 20.3794 41.0998V37.2702C20.3794 37.104 20.3134 36.9445 20.1958 36.8269C20.0782 36.7093 19.9188 36.6433 19.7525 36.6433ZM19.1255 40.4728H16.5487V37.8972H19.1244L19.1255 40.4728ZM32.3265 40.218C32.3265 40.3842 32.2605 40.5436 32.1431 40.6611C32.0256 40.7787 31.8663 40.8448 31.7001 40.845H22.5594C22.3931 40.845 22.2336 40.7789 22.116 40.6613C21.9985 40.5438 21.9324 40.3843 21.9324 40.218C21.9324 40.0518 21.9985 39.8923 22.116 39.7747C22.2336 39.6571 22.3931 39.5911 22.5594 39.5911H31.699C31.8651 39.5912 32.0245 39.6574 32.1419 39.7749C32.2594 39.8925 32.3253 40.0518 32.3253 40.218H32.3265ZM13.0626 15.2449C13.0625 15.1626 13.0786 15.0811 13.1101 15.005C13.1415 14.929 13.1877 14.8598 13.2458 14.8016C13.304 14.7434 13.3731 14.6972 13.4491 14.6657C13.5251 14.6342 13.6066 14.6179 13.6889 14.6179H36.565C36.7313 14.6179 36.8907 14.684 37.0083 14.8016C37.1259 14.9191 37.1919 15.0786 37.1919 15.2449C37.1919 15.4112 37.1259 15.5706 37.0083 15.6882C36.8907 15.8058 36.7313 15.8718 36.565 15.8718H13.6889C13.6066 15.8718 13.5251 15.8556 13.4491 15.8241C13.3731 15.7926 13.304 15.7464 13.2458 15.6882C13.1877 15.6299 13.1415 15.5608 13.1101 15.4848C13.0786 15.4087 13.0625 15.3272 13.0626 15.2449ZM28.9876 19.2165H13.6878C13.5215 19.2165 13.3621 19.1505 13.2445 19.0329C13.1269 18.9153 13.0609 18.7558 13.0609 18.5896C13.0609 18.4233 13.1269 18.2638 13.2445 18.1462C13.3621 18.0287 13.5215 17.9626 13.6878 17.9626H28.9876C29.1538 17.9626 29.3133 18.0287 29.4309 18.1462C29.5485 18.2638 29.6145 18.4233 29.6145 18.5896C29.6145 18.7558 29.5485 18.9153 29.4309 19.0329C29.3133 19.1505 29.1538 19.2165 28.9876 19.2165ZM13.0626 11.9008C13.0625 11.8185 13.0786 11.737 13.1101 11.6609C13.1415 11.5849 13.1877 11.5157 13.2458 11.4575C13.304 11.3993 13.3731 11.3531 13.4491 11.3216C13.5251 11.2901 13.6066 11.2739 13.6889 11.2739H36.565C36.7313 11.2739 36.8907 11.3399 37.0083 11.4575C37.1259 11.5751 37.1919 11.7345 37.1919 11.9008C37.1919 12.0671 37.1259 12.2265 37.0083 12.3441C36.8907 12.4617 36.7313 12.5277 36.565 12.5277H13.6889C13.6066 12.5277 13.5251 12.5115 13.4491 12.48C13.3731 12.4485 13.304 12.4023 13.2458 12.3441C13.1877 12.2859 13.1415 12.2167 13.1101 12.1407C13.0786 12.0646 13.0625 11.9831 13.0626 11.9008ZM44.3213 33.0703L48.6167 28.7748C48.6751 28.7166 48.7443 28.6704 48.8205 28.639C48.8967 28.6075 48.9783 28.5913 49.0608 28.5914C49.1432 28.5915 49.2248 28.6078 49.301 28.6394C49.3771 28.671 49.4463 28.7173 49.5045 28.7757C49.5627 28.834 49.6089 28.9033 49.6404 28.9795C49.6719 29.0557 49.688 29.1373 49.6879 29.2198C49.6879 29.3022 49.6715 29.3838 49.6399 29.46C49.6083 29.5361 49.562 29.6053 49.5036 29.6635L44.7647 34.4024C44.6472 34.5199 44.4878 34.5859 44.3216 34.5859C44.1554 34.5859 43.9959 34.5199 43.8784 34.4024L41.2722 31.7968C41.2141 31.7386 41.1679 31.6695 41.1364 31.5934C41.1049 31.5173 41.0887 31.4358 41.0888 31.3534C41.0888 31.2711 41.105 31.1896 41.1366 31.1135C41.1681 31.0375 41.2143 30.9684 41.2725 30.9102C41.3308 30.852 41.3999 30.8058 41.476 30.7743C41.552 30.7429 41.6336 30.7267 41.7159 30.7267C41.7982 30.7267 41.8798 30.743 41.9558 30.7745C42.0319 30.806 42.101 30.8522 42.1592 30.9105L44.3213 33.0703Z" fill="#9A4B44" stroke="#9A4B44" stroke-width="0.5"/>
</svg>