<svg xmlns="http://www.w3.org/2000/svg" width="27" height="27" viewBox="0 0 27 27" fill="none">
  <g clip-path="url(#clip0_36_5286)">
    <path d="M24.0624 22.995L17.9264 16.859C19.4008 15.0888 20.1361 12.8184 19.9792 10.5199C19.8223 8.22149 18.7853 6.07202 17.0839 4.51868C15.3826 2.96534 13.1479 2.12771 10.8447 2.18005C8.54151 2.23239 6.34716 3.17066 4.71814 4.79968C3.08912 6.42871 2.15084 8.62306 2.0985 10.9262C2.04617 13.2294 2.88379 15.4641 4.43714 17.1655C5.99048 18.8668 8.13994 19.9038 10.4384 20.0607C12.7368 20.2176 15.0073 19.4824 16.7774 18.0079L22.9135 24.144L24.0624 22.995ZM3.74995 11.144C3.74995 9.69772 4.17882 8.28392 4.98233 7.08138C5.78583 5.87885 6.92789 4.94159 8.26408 4.38812C9.60026 3.83466 11.0706 3.68984 12.489 3.972C13.9075 4.25415 15.2105 4.9506 16.2332 5.97327C17.2558 6.99594 17.9523 8.29891 18.2344 9.71739C18.5166 11.1359 18.3718 12.6062 17.8183 13.9424C17.2649 15.2785 16.3276 16.4206 15.1251 17.2241C13.9225 18.0276 12.5087 18.4565 11.0624 18.4565C9.12371 18.4543 7.265 17.6832 5.8941 16.3123C4.52321 14.9414 3.7521 13.0827 3.74995 11.144Z" fill="white"/>
  </g>
  <defs>
    <clipPath id="clip0_36_5286">
      <rect width="26" height="26" fill="white" transform="translate(0.5 0.581055)"/>
    </clipPath>
  </defs>
</svg>