<svg xmlns="http://www.w3.org/2000/svg" width="74" height="51" viewBox="0 0 74 51" fill="none">
  <path d="M17.3193 16.2748C19.8521 14.7307 21.5451 11.9577 21.5451 8.78201C21.5451 3.94119 17.6015 0 12.7577 0C7.91399 0 3.97716 3.94119 3.97716 8.78201C3.97716 11.9577 5.67686 14.7307 8.20284 16.2748C3.41283 17.8326 0 21.7603 0 26.3661V40.8551C0 42.8022 1.58545 44.3799 3.52707 44.3799C4.08464 44.3799 4.60196 44.239 5.07218 44.0107V49.9929C5.07218 50.5502 5.52228 51 6.07994 51C6.63751 51 7.08761 50.5502 7.08761 49.9929V28.7093C7.08761 28.1521 6.63751 27.7022 6.07994 27.7022C5.52228 27.7022 5.07218 28.1521 5.07218 28.7093V40.6133C5.05206 40.6872 5.03861 40.7677 5.03861 40.8483C5.03861 41.6809 4.36004 42.359 3.52707 42.359C2.69401 42.359 2.01543 41.6809 2.01543 40.8483V26.3594C2.01543 21.5051 6.8391 17.5573 12.7645 17.5573C18.6898 17.5573 23.5135 21.5051 23.5135 26.3594V40.8483C23.5135 41.6809 22.8349 42.359 22.0019 42.359C21.1688 42.359 20.4903 41.6809 20.4903 40.8483C20.4903 40.8147 20.4836 40.7812 20.4769 40.7409V28.7026C20.4769 28.1453 20.0268 27.6955 19.4691 27.6955C18.9115 27.6955 18.4614 28.1453 18.4614 28.7026V49.9862C18.4614 50.5434 18.9115 50.9933 19.4691 50.9933C20.0268 50.9933 20.4769 50.5434 20.4769 49.9862V44.0107C20.9404 44.2322 21.451 44.3732 22.0019 44.3732C23.9502 44.3732 25.5289 42.7887 25.5289 40.8483V26.3594C25.5289 21.7603 22.1161 17.8258 17.3261 16.2682L17.3193 16.2748ZM5.99259 8.78201C5.99259 5.049 9.02913 2.01422 12.7645 2.01422C16.4997 2.01422 19.5363 5.049 19.5363 8.78201C19.5363 12.515 16.4997 15.5498 12.7645 15.5498C9.02913 15.5498 5.99259 12.515 5.99259 8.78201Z" fill="#9A4B44"/>
  <path d="M65.0517 16.2748C67.5844 14.7307 69.2773 11.9577 69.2773 8.78201C69.2773 3.94119 65.3338 0 60.49 0C55.6463 0 51.7027 3.94119 51.7027 8.78201C51.7027 11.9577 53.4024 14.7307 55.9284 16.2748C51.1384 17.8326 47.7256 21.767 47.7256 26.3661V40.8551C47.7256 42.8022 49.311 44.3799 51.2527 44.3799C51.8102 44.3799 52.3275 44.239 52.7978 44.0107V49.9929C52.7978 50.5502 53.2479 51 53.8055 51C54.3631 51 54.8132 50.5502 54.8132 49.9929V28.7093C54.8132 28.1521 54.3631 27.7022 53.8055 27.7022C53.2479 27.7022 52.7978 28.1521 52.7978 28.7093V40.6133C52.7776 40.6872 52.7642 40.7677 52.7642 40.8483C52.7642 41.6809 52.0856 42.359 51.2527 42.359C50.4196 42.359 49.741 41.6809 49.741 40.8483V26.3594C49.741 21.5051 54.5647 17.5573 60.49 17.5573C66.4154 17.5573 71.2391 21.5051 71.2391 26.3594V40.8483C71.2391 41.6809 70.5605 42.359 69.7274 42.359C68.8945 42.359 68.2159 41.6809 68.2159 40.8483C68.2159 40.8081 68.2092 40.7745 68.2025 40.7409V28.7093C68.2025 28.1521 67.7524 27.7022 67.1948 27.7022C66.6371 27.7022 66.187 28.1521 66.187 28.7093V49.9929C66.187 50.5502 66.6371 51 67.1948 51C67.7524 51 68.2025 50.5502 68.2025 49.9929V44.0174C68.666 44.239 69.1766 44.3799 69.7274 44.3799C71.6757 44.3799 73.2545 42.7954 73.2545 40.8551V26.3661C73.2545 21.767 69.8417 17.8326 65.0517 16.2748ZM53.7249 8.78201C53.7249 5.049 56.7615 2.01422 60.4967 2.01422C64.2321 2.01422 67.2687 5.049 67.2687 8.78201C67.2687 12.515 64.2321 15.5498 60.4967 15.5498C56.7615 15.5498 53.7249 12.515 53.7249 8.78201Z" fill="#9A4B44"/>
  <path d="M48.5584 14.3062C48.5584 14.3062 48.5584 14.2996 48.5584 14.2928C48.6054 14.1787 48.6323 14.0578 48.6323 13.9235C48.6323 13.796 48.6054 13.6685 48.5584 13.5543V13.5409C48.5046 13.4133 48.4307 13.3059 48.3367 13.2119L43.802 8.67991C43.4056 8.28378 42.7674 8.28378 42.3777 8.67991C41.9814 9.07604 41.9814 9.71382 42.3777 10.1033L45.1926 12.9164H28.4846L31.2996 10.1033C31.6959 9.70714 31.6959 9.06927 31.2996 8.67991C30.9032 8.28378 30.2649 8.28378 29.8753 8.67991L25.3405 13.2119C25.2465 13.3059 25.1726 13.42 25.1188 13.5409V13.5543C25.0718 13.6685 25.0449 13.7893 25.0449 13.9235C25.0449 14.0511 25.0718 14.1787 25.1188 14.2928V14.3062C25.1726 14.4338 25.2465 14.5413 25.3405 14.6352L30.1843 19.4761C30.3792 19.6708 30.6411 19.7715 30.8965 19.7715C31.1518 19.7715 31.4137 19.6708 31.6085 19.4761C32.0049 19.0799 32.0049 18.4421 31.6085 18.0527L28.4846 14.9307H45.1926L42.0687 18.0527C41.6723 18.4488 41.6723 19.0867 42.0687 19.4761C42.2635 19.6708 42.5255 19.7715 42.7808 19.7715C43.0361 19.7715 43.2981 19.6708 43.4929 19.4761L48.3367 14.6352C48.4307 14.5413 48.5046 14.4271 48.5584 14.3062Z" fill="#9A4B44"/>
</svg>