<svg xmlns="http://www.w3.org/2000/svg" width="41" height="41" viewBox="0 0 41 41" fill="none">
  <g clip-path="url(#clip0_534_1140)">
    <path d="M11.4268 10.5801L26.233 30.3728H29.5858L14.7795 10.5801H11.4268Z" fill="black"/>
    <path d="M32.785 0.224609H8.16874C3.78131 0.224609 0.225098 3.78082 0.225098 8.16825V32.7849C0.225098 37.1719 3.78131 40.7281 8.16874 40.7281H32.7854C37.1724 40.7281 40.7286 37.1719 40.7286 32.7845V8.16825C40.7286 3.78082 37.1724 0.224609 32.785 0.224609ZM25.4417 31.9542L18.701 22.9412L10.3582 31.9542H8.21374L17.7429 21.66L8.2736 8.99857H15.5719L21.7797 17.2991L29.4628 8.99857H31.6072L22.7378 18.5808L32.74 31.9542H25.4417Z" fill="black"/>
  </g>
  <defs>
    <clipPath id="clip0_534_1140">
      <rect width="41" height="41" fill="white"/>
    </clipPath>
  </defs>
</svg>