<svg width="296" height="156" viewBox="0 0 296 156" fill="none" xmlns="http://www.w3.org/2000/svg">
<g clip-path="url(#clip0_669_3261)">
<path d="M5.38829 119.294H0.137207V118.412H11.7809V119.294H6.52983V133.284H5.38372V119.294H5.38829Z" fill="url(#paint0_linear_669_3261)" stroke="#7D4E3F"/>
<path d="M18.5118 118.408V124.962H27.3884V118.408H28.5345V133.281H27.3884V125.844H18.5118V133.281H17.3657V118.408H18.5118Z" fill="url(#paint1_linear_669_3261)" stroke="#7D4E3F"/>
<path d="M43.8991 125.89H37.4791V132.399H44.6617V133.281H36.333V118.408H44.2781V119.29H37.4791V125.004H43.8991V125.886V125.89Z" fill="url(#paint2_linear_669_3261)" stroke="#7D4E3F"/>
<path d="M55.4701 131.652C56.4883 132.3 57.6573 132.622 58.9769 132.622C61.5704 132.622 62.8672 131.593 62.8672 129.53C62.8672 127.987 61.7759 126.83 59.5979 126.067C58.2463 125.613 57.2372 125.066 56.5659 124.432C55.8354 123.757 55.4701 122.93 55.4701 121.961C55.4701 120.872 55.9084 119.968 56.7806 119.247C57.6573 118.539 58.776 118.186 60.1458 118.186C60.8444 118.186 61.4974 118.259 62.1001 118.406C62.607 118.525 63.0225 118.677 63.3421 118.87L62.9129 119.775C62.6435 119.6 62.2919 119.444 61.8627 119.311C61.2919 119.15 60.6937 119.067 60.0727 119.067C58.8947 119.067 57.9906 119.375 57.3513 119.995C56.8399 120.496 56.5888 121.093 56.5888 121.782C56.5888 123.178 57.7029 124.285 59.9312 125.094C61.333 125.622 62.3421 126.191 62.9631 126.793C63.648 127.486 63.9905 128.359 63.9905 129.42C63.9905 130.568 63.5704 131.515 62.7257 132.268C61.8033 133.09 60.5202 133.503 58.8856 133.503C57.2509 133.503 56.0134 133.173 55.0454 132.511L55.4746 131.652H55.4701Z" fill="url(#paint3_linear_669_3261)" stroke="#7D4E3F"/>
<path d="M81.881 132.752C81.4198 132.959 80.8399 133.129 80.1413 133.257C79.3285 133.418 78.4609 133.501 77.5385 133.501C75.4061 133.501 73.6482 132.899 72.2646 131.691C71.534 131.043 70.9678 130.258 70.5706 129.33C70.1414 128.329 69.9268 127.199 69.9268 125.931C69.9268 123.681 70.6482 121.834 72.1003 120.392C73.5934 118.922 75.5934 118.188 78.091 118.188C78.9997 118.188 79.8171 118.27 80.5476 118.431C80.817 118.491 81.0728 118.555 81.3102 118.628C81.502 118.688 81.6663 118.752 81.8125 118.826L81.4563 119.708C80.5339 119.281 79.4198 119.069 78.1139 119.069C75.9358 119.069 74.2235 119.68 72.9861 120.902C71.7441 122.138 71.1231 123.823 71.1231 125.954C71.1231 128.086 71.7213 129.61 72.913 130.786C74.1231 131.994 75.7943 132.596 77.9221 132.596C79.3239 132.596 80.5294 132.366 81.5476 131.912L81.881 132.752Z" fill="url(#paint4_linear_669_3261)" stroke="#7D4E3F"/>
<path d="M89.6612 118.408V133.281H88.5151V118.408H89.6612Z" fill="url(#paint5_linear_669_3261)" stroke="#7D4E3F"/>
<path d="M105.05 125.89H98.6295V132.399H105.812V133.281H97.4834V118.408H105.429V119.29H98.6295V125.004H105.05V125.886V125.89Z" fill="url(#paint6_linear_669_3261)" stroke="#7D4E3F"/>
<path d="M112.565 133.284V118.412H113.638L119.889 127.194C120.588 128.195 121.163 129.027 121.606 129.688C122.113 130.469 122.551 131.195 122.917 131.874L122.962 131.851C122.885 130.924 122.825 129.959 122.793 128.962C122.793 128.508 122.784 128.007 122.771 127.46V118.412H123.867V133.284H122.816L115.803 123.377L114.99 122.165C114.401 121.297 113.926 120.516 113.556 119.827L113.51 119.85C113.574 120.718 113.616 121.623 113.629 122.564C113.643 123.373 113.652 124.438 113.652 125.766V133.289H112.556L112.565 133.284Z" fill="url(#paint7_linear_669_3261)" stroke="#7D4E3F"/>
<path d="M142.606 132.752C142.145 132.959 141.565 133.129 140.866 133.257C140.054 133.418 139.186 133.501 138.264 133.501C136.131 133.501 134.373 132.899 132.99 131.691C132.259 131.043 131.693 130.258 131.296 129.33C130.866 128.329 130.652 127.199 130.652 125.931C130.652 123.681 131.373 121.834 132.825 120.392C134.318 118.922 136.318 118.188 138.816 118.188C139.725 118.188 140.542 118.27 141.273 118.431C141.542 118.491 141.798 118.555 142.035 118.628C142.227 118.688 142.391 118.752 142.538 118.826L142.181 119.708C141.259 119.281 140.145 119.069 138.839 119.069C136.661 119.069 134.949 119.68 133.711 120.902C132.469 122.138 131.848 123.823 131.848 125.954C131.848 128.086 132.446 129.61 133.638 130.786C134.848 131.994 136.519 132.596 138.647 132.596C140.049 132.596 141.254 132.366 142.273 131.912L142.606 132.752Z" fill="url(#paint8_linear_669_3261)" stroke="#7D4E3F"/>
<path d="M156.802 125.89H150.382V132.399H157.565V133.281H149.236V118.408H157.181V119.29H150.382V125.004H156.802V125.886V125.89Z" fill="url(#paint9_linear_669_3261)" stroke="#7D4E3F"/>
<path d="M179.875 131.542C178.505 132.952 176.774 133.659 174.674 133.659C172.573 133.659 170.888 132.966 169.569 131.583C168.217 130.173 167.542 128.308 167.542 125.998C167.542 123.568 168.236 121.63 169.619 120.174C170.875 118.865 172.468 118.158 174.391 118.057V118.961C172.642 119.063 171.249 119.802 170.217 121.166C169.245 122.461 168.761 124.051 168.761 125.934C168.761 127.716 169.245 129.25 170.217 130.545C171.331 132.015 172.843 132.754 174.751 132.754C176.66 132.754 178.235 132.024 179.331 130.568C180.318 129.273 180.811 127.661 180.811 125.736C180.811 124.046 180.359 122.567 179.45 121.299C178.464 119.944 177.158 119.173 175.537 118.984V118.08C177.432 118.227 178.971 118.975 180.167 120.33C181.409 121.726 182.03 123.513 182.03 125.69C182.03 128.12 181.313 130.067 179.884 131.537L179.875 131.542Z" fill="url(#paint10_linear_669_3261)" stroke="#7D4E3F"/>
<path d="M188.418 118.408H196.364V119.29H189.565V125.206H195.816V126.088H189.565V133.281H188.418V118.408Z" fill="url(#paint11_linear_669_3261)" stroke="#7D4E3F"/>
<path d="M210.322 118.014H210.655C213.121 118.014 214.728 118.758 215.477 120.241C215.669 120.742 215.765 121.234 215.765 121.72C215.765 122.836 215.199 123.787 214.071 124.568C213.738 124.789 213.372 124.958 212.975 125.073V125.138C213.993 125.39 214.797 125.813 215.386 126.419C216.071 127.14 216.413 128.008 216.413 129.023C216.413 130.364 215.843 131.453 214.697 132.289C213.601 132.964 212.135 133.304 210.304 133.304H209.541L209.518 133.258V132.441L209.541 132.395H210.473C212.669 132.395 214.13 131.77 214.865 130.521C215.089 130.066 215.199 129.556 215.199 128.996C215.199 127.42 214.267 126.369 212.409 125.84C211.788 125.693 211.153 125.62 210.5 125.62H209.546L209.523 125.574V124.779L209.546 124.733H210.669C212.468 124.733 213.692 124.118 214.345 122.878C214.505 122.497 214.582 122.129 214.582 121.775C214.582 120.393 213.834 119.511 212.34 119.125C211.802 118.978 211.181 118.905 210.477 118.905H210.286C209.441 118.905 208.806 118.955 208.377 119.061V133.226L208.354 133.249H208.281C207.564 133.221 207.208 133.189 207.208 133.162V118.354C207.208 118.308 207.651 118.23 208.546 118.11C209.199 118.037 209.792 118 210.336 118L210.322 118.014Z" fill="url(#paint12_linear_669_3261)" stroke="#7D4E3F"/>
<path d="M230.317 125.89H223.897V132.399H231.08V133.281H222.751V118.408H230.696V119.29H223.897V125.004H230.317V125.886V125.89Z" fill="url(#paint13_linear_669_3261)" stroke="#7D4E3F"/>
<path d="M242.843 118.188C242.874 118.188 243.043 118.615 243.345 119.469L248.737 133.262L248.715 133.285H247.568C247.537 133.285 247.226 132.49 246.637 130.901L245.491 127.989H240.267C240.491 127.401 240.619 127.107 240.651 127.107H245.112L243.824 123.575C243.235 122.046 242.728 120.663 242.299 119.428C242.267 119.428 242.18 119.657 242.039 120.112C240.418 124.466 238.756 128.857 237.053 133.285H235.907L235.861 133.239L241.756 118.188H242.852H242.843Z" fill="url(#paint14_linear_669_3261)" stroke="#7D4E3F"/>
<path d="M255.824 118.409V127.388C255.824 129.184 256.24 130.53 257.066 131.426C257.815 132.234 258.824 132.638 260.098 132.638C261.5 132.638 262.586 132.22 263.367 131.38C264.194 130.484 264.609 129.152 264.609 127.384V118.404H265.755V127.296C265.755 129.446 265.185 131.054 264.039 132.128C263.052 133.056 261.723 133.52 260.052 133.52C258.477 133.52 257.23 133.079 256.308 132.197C255.226 131.168 254.687 129.588 254.687 127.453V118.404H255.833L255.824 118.409Z" fill="url(#paint15_linear_669_3261)" stroke="#7D4E3F"/>
<path d="M275.604 119.294H270.353V118.412H281.997V119.294H276.746V133.284H275.6V119.294H275.604Z" fill="url(#paint16_linear_669_3261)" stroke="#7D4E3F"/>
<path d="M289.919 133.284V126.84L284.814 118.412H286.079L289.682 124.48C290.015 125.054 290.312 125.577 290.563 126.046H290.609C290.814 125.619 291.093 125.104 291.444 124.502C291.572 124.31 291.737 124.039 291.947 123.685L295.216 118.412H296.481L291.066 126.863V133.284H289.919Z" fill="url(#paint17_linear_669_3261)" stroke="#7D4E3F"/>
<path d="M43.7727 145.473L42.5809 148.734C42.2841 149.583 42.0421 150.323 41.8732 151.003H41.8458C41.6768 150.305 41.4485 149.56 41.17 148.734L40.0239 145.473H38.9189L38.4531 152.215H39.2796L39.4577 149.322C39.517 148.311 39.5673 147.181 39.5855 146.341H39.6038C39.791 147.14 40.0604 148.013 40.38 148.963L41.4622 152.174H42.1197L43.3024 148.904C43.6403 147.971 43.9188 147.131 44.1471 146.341H44.1791C44.17 147.181 44.2293 148.311 44.2795 149.253L44.4485 152.215H45.2932L44.8731 145.473H43.7681H43.7727Z" fill="url(#paint18_linear_669_3261)" stroke="#7B4D3E" stroke-width="0.5"/>
<path d="M51.6859 149.051H54.2932V148.334H51.6859V146.203H54.4393V145.473H50.8184V152.215H54.59V151.485H51.6859V149.051Z" fill="url(#paint19_linear_669_3261)" stroke="#7B4D3E" stroke-width="0.5"/>
<path d="M61.7498 145.42C61.0649 145.42 60.4348 145.48 59.9097 145.562V152.195C60.348 152.245 60.864 152.273 61.4804 152.273C62.7818 152.273 63.8183 151.933 64.4439 151.304C65.0694 150.684 65.4073 149.783 65.4073 148.681C65.4073 147.579 65.0603 146.812 64.4621 146.26C63.8731 145.709 62.9918 145.42 61.7453 145.42H61.7498ZM61.6494 151.575C61.3115 151.575 60.9918 151.565 60.7727 151.524V146.201C61.001 146.15 61.3389 146.109 61.7864 146.109C63.6174 146.109 64.5124 147.119 64.5032 148.709C64.5032 150.532 63.4987 151.57 61.6494 151.57V151.575Z" fill="url(#paint20_linear_669_3261)" stroke="#7B4D3E" stroke-width="0.5"/>
<path d="M72.7357 148.393C71.8087 148.034 71.4024 147.722 71.4024 147.093C71.4024 146.634 71.7494 146.082 72.6672 146.082C73.2745 146.082 73.722 146.285 73.9411 146.404L74.1786 145.692C73.8818 145.522 73.3841 145.361 72.6946 145.361C71.3932 145.361 70.5257 146.142 70.5257 147.194C70.5257 148.145 71.2015 148.714 72.2973 149.105C73.2014 149.454 73.5621 149.817 73.5621 150.446C73.5621 151.126 73.0462 151.599 72.1603 151.599C71.5622 151.599 70.996 151.397 70.6078 151.158L70.3887 151.888C70.7448 152.127 71.4526 152.32 72.101 152.32C73.6809 152.32 74.448 151.42 74.448 150.377C74.448 149.334 73.8726 148.834 72.7357 148.397V148.393Z" fill="url(#paint21_linear_669_3261)" stroke="#7B4D3E" stroke-width="0.5"/>
<path d="M81.4892 145.42C80.7952 145.42 80.2472 145.48 79.8271 145.549V152.213H80.6902V149.512C80.8911 149.563 81.1285 149.572 81.3842 149.572C82.2289 149.572 82.9778 149.324 83.4344 148.833C83.7723 148.483 83.9504 148.001 83.9504 147.39C83.9504 146.779 83.7312 146.302 83.3614 145.98C82.9641 145.622 82.3385 145.42 81.4801 145.42H81.4892ZM81.4116 148.874C81.1239 148.874 80.8865 148.856 80.6947 148.805V146.182C80.8454 146.141 81.1331 146.113 81.5121 146.113C82.4664 146.113 83.092 146.545 83.092 147.432C83.092 148.318 82.4573 148.874 81.4116 148.874Z" fill="url(#paint22_linear_669_3261)" stroke="#7B4D3E" stroke-width="0.5"/>
<path d="M91.0871 145.473L88.8086 152.215H89.7036L90.3976 150.093H92.7766L93.4935 152.215H94.4204L92.1328 145.473H91.0871ZM90.5803 149.413L91.2378 147.461C91.3656 147.053 91.4752 146.639 91.5757 146.24H91.594C91.6944 146.63 91.7949 147.03 91.941 147.471L92.5985 149.413H90.5803Z" fill="url(#paint23_linear_669_3261)" stroke="#7B4D3E" stroke-width="0.5"/>
<path d="M110.996 148.531H110.201C110.074 149.38 109.864 150.032 109.553 150.501C109.124 150.019 108.489 149.279 107.923 148.618V148.59C108.987 148.062 109.393 147.502 109.393 146.79C109.393 145.922 108.745 145.361 107.909 145.361C106.795 145.361 106.211 146.202 106.211 147.024C106.211 147.506 106.421 147.993 106.768 148.434V148.462C106.001 148.884 105.453 149.513 105.453 150.432C105.453 151.443 106.211 152.324 107.512 152.324C108.247 152.324 108.896 152.095 109.471 151.553C109.731 151.833 109.909 152.021 110.096 152.214H111.133C110.736 151.782 110.389 151.406 110.028 151.025C110.526 150.437 110.813 149.596 110.991 148.535L110.996 148.531ZM107.854 145.958C108.402 145.958 108.631 146.418 108.631 146.827C108.631 147.396 108.192 147.759 107.517 148.149C107.229 147.791 107.01 147.419 107.01 146.937C107.01 146.418 107.297 145.954 107.854 145.954V145.958ZM107.667 151.663C106.864 151.663 106.293 151.075 106.293 150.303C106.293 149.592 106.8 149.164 107.16 148.935C107.905 149.794 108.654 150.616 109.051 151.057C108.731 151.406 108.247 151.668 107.667 151.668V151.663Z" fill="url(#paint24_linear_669_3261)" stroke="#7B4D3E" stroke-width="0.5"/>
<path d="M127.872 148.872C127.662 149.712 127.475 150.461 127.334 151.205H127.315C127.215 150.493 127.037 149.694 126.85 148.894L126.032 145.473H125.128L124.233 148.876C124.005 149.744 123.795 150.548 123.685 151.219H123.667C123.548 150.566 123.37 149.726 123.169 148.885L122.375 145.473H121.461L123.16 152.215H124.064L125.018 148.702C125.265 147.833 125.416 147.172 125.534 146.501H125.553C125.644 147.181 125.781 147.843 125.991 148.702L126.836 152.215H127.74L129.639 145.473H128.754L127.868 148.876L127.872 148.872Z" fill="url(#paint25_linear_669_3261)" stroke="#7B4D3E" stroke-width="0.5"/>
<path d="M135.534 149.051H138.141V148.334H135.534V146.203H138.292V145.473H134.671V152.215H138.438V151.485H135.534V149.051Z" fill="url(#paint26_linear_669_3261)" stroke="#7B4D3E" stroke-width="0.5"/>
<path d="M144.626 145.473H143.758V152.215H147.489V151.485H144.626V145.473Z" fill="url(#paint27_linear_669_3261)" stroke="#7B4D3E" stroke-width="0.5"/>
<path d="M153.516 145.473H152.648V152.215H156.379V151.485H153.516V145.473Z" fill="url(#paint28_linear_669_3261)" stroke="#7B4D3E" stroke-width="0.5"/>
<path d="M165.758 148.292C165.758 149.343 165.776 150.161 165.858 151.061L165.84 151.07C165.52 150.381 165.132 149.669 164.634 148.879L162.484 145.467H161.539V152.209H162.356V149.33C162.356 148.209 162.338 147.4 162.287 146.546L162.319 146.537C162.657 147.267 163.105 148.039 163.571 148.788L165.698 152.209H166.575V145.467H165.758V148.287V148.292Z" fill="url(#paint29_linear_669_3261)" stroke="#7B4D3E" stroke-width="0.5"/>
<path d="M173.145 149.051H175.753V148.334H173.145V146.203H175.899V145.473H172.278V152.215H176.049V151.485H173.145V149.051Z" fill="url(#paint30_linear_669_3261)" stroke="#7B4D3E" stroke-width="0.5"/>
<path d="M183.378 148.393C182.451 148.034 182.045 147.722 182.045 147.093C182.045 146.634 182.392 146.082 183.31 146.082C183.917 146.082 184.365 146.285 184.584 146.404L184.821 145.692C184.524 145.522 184.027 145.361 183.337 145.361C182.036 145.361 181.168 146.142 181.168 147.194C181.168 148.145 181.844 148.714 182.94 149.105C183.844 149.454 184.205 149.817 184.205 150.446C184.205 151.126 183.689 151.599 182.803 151.599C182.205 151.599 181.639 151.397 181.25 151.158L181.031 151.888C181.387 152.127 182.095 152.32 182.744 152.32C184.323 152.32 185.091 151.42 185.091 150.377C185.091 149.334 184.515 148.834 183.378 148.397V148.393Z" fill="url(#paint31_linear_669_3261)" stroke="#7B4D3E" stroke-width="0.5"/>
<path d="M192.479 148.393C191.552 148.034 191.146 147.722 191.146 147.093C191.146 146.634 191.493 146.082 192.41 146.082C193.018 146.082 193.465 146.285 193.684 146.404L193.922 145.692C193.625 145.522 193.127 145.361 192.438 145.361C191.136 145.361 190.269 146.142 190.269 147.194C190.269 148.145 190.945 148.714 192.04 149.105C192.945 149.454 193.305 149.817 193.305 150.446C193.305 151.126 192.789 151.599 191.904 151.599C191.305 151.599 190.739 151.397 190.351 151.158L190.132 151.888C190.488 152.127 191.196 152.32 191.844 152.32C193.424 152.32 194.191 151.42 194.191 150.377C194.191 149.334 193.616 148.834 192.479 148.397V148.393Z" fill="url(#paint32_linear_669_3261)" stroke="#7B4D3E" stroke-width="0.5"/>
<path d="M209.004 146.092C209.561 146.092 210.027 146.211 210.356 146.372L210.566 145.66C210.337 145.54 209.808 145.361 208.972 145.361C206.894 145.361 205.47 146.79 205.47 148.903C205.47 151.015 206.89 152.315 208.78 152.315C209.598 152.315 210.232 152.154 210.552 151.994L210.374 151.305C210.027 151.475 209.488 151.585 208.963 151.585C207.333 151.585 206.388 150.524 206.388 148.875C206.388 147.102 207.433 146.092 209.004 146.092Z" fill="url(#paint33_linear_669_3261)" stroke="#7B4D3E" stroke-width="0.5"/>
<path d="M216.702 149.051H219.305V148.334H216.702V146.203H219.455V145.473H215.834V152.215H219.606V151.485H216.702V149.051Z" fill="url(#paint34_linear_669_3261)" stroke="#7B4D3E" stroke-width="0.5"/>
<path d="M229.141 148.292C229.141 149.343 229.159 150.161 229.241 151.061L229.223 151.07C228.903 150.381 228.515 149.669 228.017 148.879L225.867 145.467H224.921V152.209H225.739V149.33C225.739 148.209 225.72 147.4 225.67 146.546L225.702 146.537C226.04 147.267 226.488 148.039 226.953 148.788L229.081 152.209H229.958V145.467H229.141V148.287V148.292Z" fill="url(#paint35_linear_669_3261)" stroke="#7B4D3E" stroke-width="0.5"/>
<path d="M234.492 146.212H236.528V152.215H237.405V146.212H239.455V145.473H234.492V146.212Z" fill="url(#paint36_linear_669_3261)" stroke="#7B4D3E" stroke-width="0.5"/>
<path d="M245.259 149.051H247.866V148.334H245.259V146.203H248.017V145.473H244.396V152.215H248.168V151.485H245.259V149.051Z" fill="url(#paint37_linear_669_3261)" stroke="#7B4D3E" stroke-width="0.5"/>
<path d="M257.337 150.365C257.177 149.667 256.871 149.184 256.35 149.005V148.973C257.058 148.734 257.615 148.142 257.615 147.251C257.615 146.732 257.428 146.268 257.09 145.969C256.674 145.588 256.076 145.418 255.149 145.418C254.551 145.418 253.926 145.468 253.487 145.56V152.216H254.35V149.295H255.168C255.953 149.322 256.314 149.676 256.51 150.604C256.697 151.444 256.848 152.023 256.958 152.216H257.853C257.711 151.954 257.556 151.306 257.337 150.365ZM255.236 148.633H254.35V146.171C254.487 146.13 254.789 146.093 255.204 146.093C256.117 146.102 256.748 146.484 256.748 147.352C256.748 148.123 256.159 148.633 255.236 148.633Z" fill="url(#paint38_linear_669_3261)" stroke="#7B4D3E" stroke-width="0.5"/>
</g>
<path d="M197.938 50.1637C198.189 49.8229 197.608 49.7529 197.445 49.7468C196.489 49.7042 195.833 49.8047 194.793 49.26C192.589 47.6928 188.071 43.819 183.293 35.7854C183.293 35.7854 183.069 35.4629 182.658 34.9547C182.522 33.0467 182.256 30.8983 181.826 28.4852V28.4943C181.563 26.1238 181.3 23.7533 181.188 21.3736C181.085 19.1614 181.835 17.0921 183.375 15.4002C183.492 15.2724 183.58 15.0898 183.601 14.9072C183.616 14.6425 183.359 14.7551 183.335 14.7733C182.969 15.0563 182.622 15.3606 182.253 15.6375C179.223 17.9137 175.818 17.8437 172.322 17.2595C169.773 16.8334 167.224 16.38 164.662 16.0331C164.033 15.9479 163.419 15.8627 162.854 15.6741C156.011 11.5507 152.204 7.6222 150.277 5.18777C149.585 4.06794 149.107 2.81421 148.901 1.41442C148.838 0.985352 148.796 0.553242 148.744 0.124175C148.699 -0.0310191 148.563 -0.0492773 148.469 0.118089C148.336 0.881889 148.251 1.65786 148.067 2.40645C148.058 2.43992 148.049 2.47339 148.043 2.50687C147.652 3.86406 146.957 4.88043 146.567 5.37644C144.52 7.82912 140.785 11.4868 134.441 15.3089C134.441 15.3089 134.187 15.4884 133.776 15.8171C132.007 15.9723 130.419 16.2492 129.137 16.5322C127.22 16.803 125.299 17.0617 123.373 17.2686C120.004 17.6307 116.726 17.3842 114.056 14.8646C113.941 14.7551 113.666 14.3929 113.473 14.5451C113.379 14.7033 113.539 15.0654 113.633 15.1659H113.627C113.627 15.1659 114.371 16.1853 115.487 18.288L115.629 18.5588C116.312 20.6707 116.237 22.9591 115.973 25.2809C115.834 26.5133 115.677 27.7427 115.511 28.9721C115 31.3791 114.682 33.5123 114.519 35.405C114.192 35.8189 114.014 36.0745 114.014 36.0745C109.487 43.6851 105.193 47.565 102.88 49.2813C102.378 49.6525 101.779 49.8716 101.156 49.902C100.663 49.9264 100.146 49.8746 99.6048 49.7864C99.4173 49.756 99.0423 49.7986 99 49.972C99 50.3433 99.5443 50.3281 99.8104 50.3372C100.706 50.3767 101.534 50.538 102.305 50.8028C104.207 52.0443 109.118 55.842 114.35 64.6181C114.495 67.3721 114.973 70.6464 116.022 74.4258C116.161 75.1957 116.288 75.9656 116.385 76.7385C116.76 79.745 116.509 82.6359 113.833 84.7051C113.663 84.836 113.6 85.1068 113.485 85.3138C114.492 84.8695 115.242 84.1757 116.113 83.7131C118.432 82.4777 120.951 82.3803 123.488 82.7211C124.132 82.8063 124.773 82.9067 125.414 83.0102C128.928 83.8622 131.783 84.273 134.033 84.4435C134.302 84.6534 134.462 84.766 134.462 84.766C134.501 84.7904 134.544 84.8147 134.583 84.839L134.426 84.766C135.856 85.6241 137.141 86.4579 138.296 87.2643C140.371 88.7311 142.07 90.1339 143.446 91.412C146.21 94.0472 147.501 96.1987 148.097 97.6898C148.245 98.2771 148.345 98.8917 148.384 99.5399C148.393 99.6829 148.442 99.9416 148.548 99.9872C148.548 99.9872 148.557 99.9903 148.56 99.9903C148.593 99.9994 148.723 100.045 148.78 99.8138C148.78 99.8138 148.814 99.6708 148.808 99.5004C148.856 98.77 148.977 98.0823 149.161 97.4372C149.431 96.5882 149.887 95.5657 150.652 94.4489C152.663 92.0115 156.38 88.3324 162.751 84.4739C165.624 84.3217 169.132 83.8409 173.371 82.8215C175.316 82.572 177.26 82.4442 179.168 83.071C180.732 83.5853 182.171 84.48 183.713 85.2255C183.683 85.1525 183.665 85.0125 183.586 84.9242C181.303 82.3985 180.741 79.3707 181.122 76.1116C181.206 75.3996 181.3 74.6875 181.4 73.9785C181.657 72.9043 182.476 69.207 182.679 64.7672C182.688 64.7368 182.7 64.7064 182.709 64.6759C182.851 64.4903 182.924 64.3838 182.924 64.3838C187.164 57.2601 191.195 53.4076 193.589 51.5331C194.527 50.9914 195.555 50.5867 196.704 50.3707C197.112 50.2946 197.524 50.2307 197.935 50.1637H197.938ZM181.228 45.0362C180.632 46.7981 179.728 48.2497 178.204 49.1261C177.868 49.2782 177.508 49.3908 177.121 49.4578L164.665 49.4517L174.923 30.4662C176.794 31.1539 179.059 32.6268 181.551 35.5572C181.551 35.5572 181.551 35.5572 181.554 35.5602C181.66 35.685 181.766 35.8128 181.875 35.9437C181.959 36.0958 182.014 36.2662 182.023 36.4214C182.159 39.3306 182.18 42.2245 181.228 45.0393V45.0362ZM125.538 35.0977L124.546 33.2384C131.737 38.8589 138.928 44.4794 146.116 50.0998C146.116 50.185 146.116 50.2702 146.116 50.3554C139.597 45.9096 133.077 41.4637 126.557 37.0179L125.705 35.4142C126.82 36.2297 127.933 37.0452 129.049 37.8608C129.082 37.8212 129.116 37.7817 129.149 37.7421C127.945 36.8627 126.742 35.9832 125.538 35.1007V35.0977ZM133.718 33.0863L131.087 30.0341C131.012 30.095 130.939 30.1558 130.863 30.2197C131.849 31.3609 132.832 32.505 133.818 33.6462C133.9 34.057 134.005 34.4678 134.123 34.8756C133.673 34.4008 133.219 33.9261 132.769 33.4514C132.708 33.5062 132.648 33.5579 132.587 33.6127C133.165 34.2487 133.742 34.8847 134.323 35.5207C134.501 36.0289 134.719 36.5127 134.961 36.9813C132.645 34.623 130.331 32.2677 128.015 29.9093L133.597 29.9032C133.494 30.804 133.528 31.9147 133.715 33.0863H133.718ZM134.78 29.9032H135.52C136.4 31.2604 137.277 32.6237 138.175 33.9718C139.663 36.2023 141.157 38.4298 142.651 40.6543C141.726 40.0883 140.812 39.507 139.941 38.8741C136.739 36.5371 135.1 33.4301 134.229 29.9306H134.492C134.492 29.9306 134.495 29.9306 134.498 29.9306C135.043 30.6884 135.59 31.443 136.134 32.2007C136.207 32.1642 136.279 32.1277 136.352 32.0912L134.776 29.9063L134.78 29.9032ZM160.849 32.2007C161.408 31.4278 161.968 30.6518 162.524 29.8759H162.751C162.715 30.0554 162.685 30.2319 162.645 30.4023C161.623 34.7052 158.911 37.9581 154.847 40.3865C154.659 40.4991 154.472 40.6117 154.284 40.7212C155.793 38.4724 157.305 36.2236 158.805 33.9687C159.709 32.6115 160.589 31.2422 161.475 29.8759H162.219L160.625 32.0881C160.698 32.1247 160.77 32.1612 160.843 32.1977L160.849 32.2007ZM148.46 42.544C147.783 42.5044 146.878 40.9647 146.903 39.7535C146.978 39.0141 147.444 38.3872 148.481 38.372C149.518 38.3568 150.017 38.9593 150.102 39.8479C150.108 39.927 150.102 40.0091 150.096 40.0913C149.987 41.2994 149.131 42.5866 148.46 42.547V42.544ZM149.896 42.5683C149.79 42.9852 149.685 43.393 149.582 43.8038C149.539 43.8373 149.497 43.8647 149.455 43.8981C149.482 43.5817 149.509 43.2652 149.536 42.9487C149.609 42.8848 149.682 42.8239 149.751 42.7479C149.806 42.6901 149.851 42.6292 149.899 42.5683H149.896ZM149.319 43.1191C149.295 43.4295 149.267 43.7399 149.243 44.0503C148.768 44.3637 148.321 44.3789 147.831 44.0016C147.783 43.9651 147.734 43.9316 147.686 43.8951C147.649 43.6273 147.613 43.3626 147.577 43.0978C148.121 43.5178 148.744 43.5178 149.319 43.1191ZM147.426 43.7034C147.426 43.7034 147.426 43.7034 147.423 43.7034C147.335 43.3626 147.247 43.0217 147.16 42.6748C147.187 42.7083 147.211 42.7448 147.238 42.7753C147.256 42.7966 147.275 42.8087 147.293 42.83C147.338 43.1222 147.38 43.4143 147.426 43.7064V43.7034ZM137.583 29.8972H138.983C140.945 33.9261 142.911 37.9612 144.883 42.0054C144.692 41.8897 144.502 41.7741 144.311 41.6585C142.073 37.736 139.83 33.8166 137.583 29.8972ZM143.924 41.4211C143.634 41.2446 143.34 41.0681 143.05 40.8916C140.616 37.2248 138.181 33.5579 135.738 29.8972H137.28C139.225 33.2871 141.166 36.677 143.117 40.0639C143.38 40.5204 143.655 40.9677 143.924 41.4211ZM139.273 29.8941H140.579C142.288 34.1026 143.994 38.3111 145.702 42.5196C145.566 42.4314 145.427 42.3462 145.291 42.261L139.276 29.8972L139.273 29.8941ZM140.864 29.8941H142.101C143.537 34.2578 144.97 38.6215 146.407 42.9852C146.301 42.9152 146.195 42.8422 146.089 42.7722C144.347 38.4785 142.609 34.1878 140.867 29.8941H140.864ZM142.379 29.8941H143.558C144.399 33.1928 145.239 36.4945 146.08 39.7931C146.08 39.8053 146.077 39.8174 146.077 39.8296C146.092 40.5295 146.274 41.1959 146.594 41.8167C146.727 42.3401 146.86 42.8666 146.993 43.39C146.912 43.3321 146.83 43.2774 146.748 43.2195C145.291 38.7798 143.833 34.3369 142.379 29.8972V29.8941ZM143.836 29.8941H144.973C145.496 32.7576 146.023 35.6211 146.546 38.4846C146.407 38.658 146.298 38.8498 146.219 39.0597C145.412 35.971 144.58 32.8124 143.836 29.8941ZM150.395 41.8197C150.698 41.2324 150.861 40.5995 150.949 39.9392C150.952 39.857 150.94 39.7779 150.933 39.6988C151.768 36.4275 152.6 33.1562 153.431 29.885H154.611C153.138 34.3735 151.665 38.865 150.193 43.3534C150.114 43.4113 150.035 43.4691 149.957 43.5269C150.102 42.9578 150.247 42.3858 150.392 41.8167L150.395 41.8197ZM150.447 38.4663C150.97 35.6059 151.493 32.7485 152.019 29.888H153.156C152.412 32.8033 151.599 35.9619 150.803 39.0536C150.719 38.8406 150.592 38.6459 150.447 38.4694V38.4663ZM154.892 29.885H156.132C154.375 34.2152 152.618 38.5454 150.864 42.8757C150.758 42.9487 150.655 43.0217 150.552 43.0948C152.001 38.6915 153.449 34.2883 154.895 29.885H154.892ZM156.419 29.885H157.725L151.662 42.3462C151.523 42.4344 151.387 42.5257 151.251 42.617C152.972 38.372 154.695 34.127 156.416 29.8819L156.419 29.885ZM158.016 29.885H159.419C157.157 33.8288 154.898 37.7756 152.645 41.7254C152.458 41.841 152.264 41.9567 152.08 42.0754C154.063 38.0038 156.041 33.9413 158.019 29.885H158.016ZM153.873 40.0731C155.826 36.6801 157.774 33.281 159.721 29.8819H161.266C158.805 33.5701 156.352 37.2613 153.9 40.9586C153.61 41.132 153.319 41.3085 153.032 41.485C153.313 41.0133 153.601 40.5478 153.873 40.0731ZM149.334 29.0025L149.325 20.902C149.331 20.8685 149.334 20.8381 149.34 20.8046C149.576 20.3512 150.178 19.4961 151.593 18.6866L161.886 28.9873L149.331 28.9995L149.334 29.0025ZM150.347 29.8941L149.473 37.6782C149.567 37.7117 149.654 37.7512 149.742 37.803C150.038 35.1677 150.335 32.5294 150.628 29.8941H151.735C151.23 32.6602 150.725 35.4294 150.223 38.1985C150.244 38.2259 150.259 38.2533 150.28 38.2807C149.851 37.8638 149.252 37.596 148.572 37.5778C147.798 37.5565 147.093 37.8821 146.627 38.4024C146.664 38.3355 146.706 38.2685 146.763 38.1985C146.258 35.4324 145.756 32.6663 145.251 29.9002H146.358C146.655 32.5355 146.948 35.1677 147.244 37.803C147.332 37.7543 147.42 37.7117 147.513 37.6782L146.639 29.8972H150.344L150.347 29.8941ZM148.088 29.0056L135.635 29.0177L140.147 24.5019L145.95 18.7049C147.178 19.4626 147.722 20.2356 147.946 20.6646C147.997 20.7742 148.043 20.8868 148.088 21.0024V29.0056ZM135.629 38.0738C136.763 39.6622 138.157 41.0286 139.73 42.2427C141.792 44.3394 143.851 46.433 145.914 48.5296C145.953 48.6848 145.986 48.8431 146.017 49.0013C138.892 42.6414 131.768 36.2814 124.643 29.9185H127.604C130.28 32.6359 132.953 35.3533 135.629 38.0738ZM141.106 43.2408C141.493 43.5025 141.886 43.7612 142.288 44.0107C142.736 44.2907 143.141 44.5828 143.507 44.8871C144.087 45.5596 144.668 46.2352 145.248 46.9077C145.445 47.2455 145.608 47.5954 145.735 47.9545C144.193 46.3812 142.648 44.811 141.106 43.2408ZM146.08 49.4304C146.092 49.5399 146.101 49.6495 146.11 49.759C138.816 44.0503 131.52 38.3416 124.226 32.6298L123.071 30.4601C123.071 30.4601 122.862 30.0158 123.21 29.9185H124.22C131.508 36.4214 138.795 42.9244 146.08 49.4273V49.4304ZM146.107 50.6841C146.104 50.7541 146.095 50.821 146.089 50.891L128.378 40.4352L126.842 37.5504C133.264 41.9293 139.684 46.3052 146.107 50.6841ZM146.065 51.1831C146.05 51.2988 146.029 51.4175 146.007 51.5361C145.4 51.1618 144.804 50.7602 144.172 50.4406C139.4 48.0184 134.622 45.6053 129.847 43.1922L128.629 40.9008C134.429 44.3211 140.238 47.7445 146.065 51.1831ZM141.36 49.3056C142.896 50.0785 144.456 50.7997 146.007 51.5422C145.989 51.6487 145.974 51.7552 145.95 51.8617C145.917 51.8404 145.88 51.8191 145.844 51.8039C140.93 49.7012 136.01 47.6076 131.087 45.5201L130.074 43.6151C133.836 45.514 137.595 47.4128 141.36 49.3056ZM133.385 46.7525C137.516 48.5053 141.774 50.2976 145.911 52.0413C145.841 52.3395 145.756 52.6408 145.657 52.942L132.605 48.3714L131.251 45.8274C131.961 46.1378 132.672 46.4512 133.388 46.7555L133.385 46.7525ZM144.368 70.4638L144.045 69.8582C144.804 68.7627 145.566 67.6672 146.328 66.5717C146.361 66.73 146.398 66.8882 146.431 67.0434C145.741 68.1815 145.055 69.3226 144.365 70.4638H144.368ZM146.5 67.3538C146.546 67.5729 146.6 67.795 146.646 68.0141C146.056 69.1492 145.469 70.2873 144.88 71.4254L144.511 70.7316C144.798 70.2538 145.088 69.773 145.375 69.2953C145.76 68.6532 146.128 68.005 146.5 67.3538ZM143.906 69.5935L143.616 69.0457C144.468 67.9746 145.318 66.9065 146.171 65.8353C146.198 65.9631 146.225 66.0909 146.255 66.2157L143.909 69.5904L143.906 69.5935ZM143.473 68.781L143.201 68.2667L146.023 65.1598C146.05 65.2693 146.071 65.3789 146.095 65.4884C145.221 66.5839 144.347 67.6824 143.476 68.7779L143.473 68.781ZM143.068 68.0172L142.811 67.5333C143.836 66.5413 144.861 65.5523 145.887 64.5603C145.908 64.6546 145.932 64.749 145.953 64.8433C144.991 65.8992 144.03 66.9582 143.068 68.0141V68.0172ZM142.675 67.2777L142.43 66.8182C143.537 65.8779 144.647 64.9376 145.753 64.0004C145.772 64.0825 145.793 64.1647 145.811 64.2469C144.765 65.2572 143.718 66.2674 142.675 67.2777ZM142.297 66.5687L142.064 66.1305C143.256 65.248 144.447 64.3655 145.636 63.4861C145.651 63.5591 145.669 63.6291 145.684 63.7022C144.553 64.6577 143.425 65.6162 142.297 66.5717V66.5687ZM144.87 58.2125C144.87 58.2795 144.873 58.3464 144.877 58.4164C142.881 58.9976 140.882 59.5819 138.886 60.1631L138.59 59.6093C140.682 59.1437 142.778 58.6781 144.87 58.2125ZM138.454 59.3537L138.148 58.7785C140.386 58.4347 142.627 58.0908 144.864 57.747C144.864 57.8109 144.864 57.8717 144.864 57.9356C142.726 58.4103 140.589 58.882 138.454 59.3567V59.3537ZM144.892 58.6994C144.895 58.7725 144.898 58.8425 144.904 58.9155C143.038 59.5941 141.172 60.2727 139.303 60.9513L139.016 60.4127C140.973 59.8406 142.932 59.2685 144.889 58.6964L144.892 58.6994ZM144.925 59.1894C144.931 59.2654 144.94 59.3385 144.946 59.4145C143.201 60.1814 141.456 60.9513 139.715 61.7181L139.433 61.1917C141.263 60.5252 143.095 59.8558 144.925 59.1894ZM144.973 59.7036C144.982 59.7827 144.991 59.8619 145 59.941L140.12 62.4819L139.845 61.9646C141.553 61.213 143.265 60.4583 144.973 59.7067V59.7036ZM145.037 60.2179C145.052 60.3244 145.064 60.434 145.079 60.5405C144.786 60.6865 144.495 60.8387 144.217 61.006C142.987 61.7485 141.759 62.4971 140.528 63.2427L140.247 62.7162C141.843 61.8855 143.44 61.0517 145.037 60.2209V60.2179ZM141.762 62.7953C142.887 62.1107 143.994 61.3986 145.1 60.6865C145.118 60.8174 145.14 60.9452 145.161 61.076C143.755 62.0589 142.348 63.0418 140.942 64.0278L140.646 63.4739C141.018 63.2488 141.39 63.0236 141.759 62.7984L141.762 62.7953ZM145.194 61.289C145.3 61.9159 145.427 62.5428 145.566 63.1696L141.922 65.8688L141.042 64.2164C142.427 63.2427 143.809 62.2659 145.194 61.2921V61.289ZM145.521 53.3772C141.511 52.2604 137.501 51.1436 133.488 50.0268L132.805 48.7457C137.06 50.2368 141.314 51.7279 145.569 53.2159C145.551 53.2707 145.536 53.3224 145.518 53.3772H145.521ZM132.805 50.6567L133.839 52.5708L117.008 52.8112C117.631 51.8891 118.45 51.1527 119.502 50.6567H132.805ZM133.673 50.3707C137.595 51.4601 141.517 52.5464 145.439 53.6358C145.421 53.6906 145.403 53.7484 145.388 53.8032C141.68 53.0303 137.973 52.2573 134.268 51.4844L133.676 50.3707H133.673ZM145.315 54.074C145.3 54.1318 145.285 54.1927 145.27 54.2505C141.834 53.7636 138.396 53.2798 134.961 52.7929L134.438 51.807C138.064 52.5616 141.689 53.3163 145.315 54.074ZM145.206 54.5092C145.194 54.57 145.179 54.6279 145.167 54.6887C141.974 54.4514 138.783 54.211 135.59 53.9736L135.118 53.0881C138.481 53.5628 141.843 54.0345 145.206 54.5092ZM145.115 54.9626C145.103 55.0234 145.091 55.0843 145.082 55.1452L136.174 55.063L135.747 54.2627C138.871 54.497 141.995 54.7283 145.118 54.9626H145.115ZM145.034 55.4099C145.016 55.5164 145.007 55.6229 144.991 55.7325C144.408 55.7112 143.824 55.6838 143.247 55.7142C141.069 55.8329 138.892 55.9577 136.715 56.0794L136.319 55.3338C139.222 55.3582 142.125 55.3856 145.037 55.4099H145.034ZM140.247 56.1402C141.828 56.0459 143.407 55.909 144.985 55.7812C144.97 55.8907 144.952 56.0003 144.943 56.1098C142.373 56.4202 139.802 56.7367 137.235 57.0532L136.851 56.335C137.982 56.2711 139.116 56.2072 140.247 56.1402ZM144.928 56.3046C144.895 56.6849 144.873 57.0653 144.867 57.4427L138.006 58.4986L137.347 57.257C139.875 56.9406 142.403 56.6241 144.931 56.3046H144.928ZM138.493 61.1917L148.121 79.039C147.656 80.1832 147.138 80.8709 146.307 81.51L132.131 67.652L138.49 61.1917H138.493ZM145.007 71.6445C145.575 70.5399 146.144 69.4322 146.709 68.3276C147.299 71.3158 147.758 74.3223 148.182 77.3349C148.194 77.4171 148.197 77.4901 148.2 77.5601C148.179 77.551 148.161 77.5419 148.139 77.5297L145.007 71.6445ZM147.039 65.7836C146.63 63.617 145.983 61.4929 145.681 59.3019C145.493 57.9295 145.636 56.6302 145.986 55.3156C146.443 53.6115 146.824 51.9013 146.887 50.1363C146.975 47.5589 145.756 45.5718 143.555 44.0046C141.656 42.6535 139.799 41.272 138.103 39.7109C134.752 36.6314 134.87 34.4465 134.519 32.8915C135.191 34.9395 137.486 38.3537 139.823 39.787C142.609 41.4941 145.521 43.0826 147.958 45.2158C148.318 45.5292 148.672 45.514 149.034 45.1975C151.641 42.9244 154.931 41.4576 157.713 39.3914C159.222 38.2716 161.802 35.5116 163.047 31.6226C162.633 36.2906 159.376 39.5162 157.523 41.0499C156.386 41.9932 155.155 42.8605 153.891 43.6699C150.755 45.6753 149.694 48.3988 150.244 51.6913C150.465 53.0181 150.692 54.3418 151.139 55.6351C151.708 57.2692 151.511 58.9429 151.172 60.5983C150.392 64.4021 149.597 68.2058 148.799 72.0096C148.753 72.2318 148.593 73.6833 148.436 72.7095C147.961 70.3755 147.471 68.0841 147.036 65.7836H147.039ZM166.192 30.0311L163.156 33.5518C163.407 32.3681 163.498 31.1478 163.432 29.8728L169.304 29.8667C166.658 32.5598 164.012 35.2559 161.366 37.949C162.131 36.7227 162.676 35.4629 163.02 34.1574C164.154 32.8428 165.285 31.5282 166.419 30.2136C166.344 30.1528 166.271 30.0919 166.195 30.028L166.192 30.0311ZM169.712 29.8667H172.691C165.476 36.3058 158.258 42.7479 151.042 49.19C151.064 49.05 151.088 48.91 151.115 48.7761C153.725 46.1256 156.331 43.4721 158.941 40.8216C159.328 40.4656 159.697 40.0913 160.045 39.6988C163.268 36.4214 166.492 33.1471 169.715 29.8698C169.715 29.8698 169.715 29.8698 169.712 29.8698V29.8667ZM168.231 37.8577C169.104 37.2187 169.981 36.5766 170.855 35.9376L170.03 37.4865C163.679 41.8167 157.329 46.1469 150.979 50.4741C150.976 50.395 150.979 50.3189 150.976 50.2398C157.979 44.7654 164.98 39.294 171.983 33.8196L171.022 35.6211C170.057 36.3271 169.092 37.03 168.131 37.736C168.164 37.7756 168.197 37.8151 168.231 37.8547V37.8577ZM151.327 52.9542C151.269 52.6864 151.221 52.4186 151.178 52.1478C155.327 50.398 159.754 48.5053 163.897 46.7434C164.417 46.5212 164.934 46.296 165.452 46.0709L164.181 48.4505L151.327 52.9542ZM163.979 48.8309L163.308 50.0907C159.349 51.1923 155.391 52.2969 151.429 53.3985C151.417 53.3467 151.405 53.292 151.393 53.2402C155.587 51.7705 159.785 50.3007 163.979 48.8309ZM151.439 51.7948C151.402 51.81 151.206 51.883 151.139 51.9135C151.124 51.8131 151.109 51.7126 151.097 51.6122C152.612 50.8941 154.562 49.9842 155.923 49.2995C159.485 47.5102 163.041 45.7118 166.601 43.9164L165.618 45.7605C160.888 47.7658 156.162 49.7773 151.439 51.7978V51.7948ZM153.111 50.4315C152.63 50.675 151.759 51.1558 151.088 51.5453C151.076 51.454 151.064 51.3627 151.054 51.2714C156.724 47.9302 162.37 44.6011 168.01 41.272L166.827 43.4904C162.255 45.8 157.68 48.1097 153.111 50.4285V50.4315ZM151.018 50.9884C151.018 50.9884 151.015 50.9671 151.015 50.958C151.009 50.9032 151.009 50.8515 151.003 50.7967C157.251 46.5364 163.501 42.2762 169.749 38.016L168.258 40.8125L151.018 50.9914V50.9884ZM150.979 49.9051C150.982 49.8047 150.991 49.7042 151 49.6038C158.372 43.0248 165.745 36.4427 173.12 29.8637H173.686C173.686 29.8637 173.967 29.9732 173.861 30.3049L172.313 33.208C165.201 38.7737 158.091 44.3394 150.979 49.9051ZM151.254 48.2466C151.336 47.9788 151.435 47.7171 151.55 47.4646C152.418 46.4604 153.283 45.4531 154.151 44.4489C154.272 44.3607 154.39 44.2724 154.517 44.1872C155.318 43.6395 156.114 43.0887 156.885 42.5136C155.007 44.4246 153.129 46.3356 151.254 48.2466ZM152.294 57.9113C152.294 57.8291 152.291 57.747 152.288 57.6678C154.278 58.2977 156.271 58.9277 158.261 59.5576L157.961 60.1205L152.294 57.9113ZM157.828 60.367L157.532 60.9208C155.784 60.1053 154.036 59.2898 152.288 58.4742C152.291 58.386 152.288 58.2977 152.288 58.2095C154.133 58.9277 155.98 59.6489 157.825 60.367H157.828ZM152.27 57.3757C152.264 57.3027 152.264 57.2266 152.258 57.1536C154.405 57.68 156.552 58.2065 158.702 58.7329L158.397 59.308L152.273 57.3757H152.27ZM152.273 58.7603C153.985 59.5606 155.696 60.3579 157.405 61.1582L157.111 61.7059C155.491 60.8174 153.873 59.9258 152.252 59.0372C152.261 58.9429 152.267 58.8516 152.273 58.7572V58.7603ZM156.981 61.9524L156.688 62.5002L152.185 59.6306C152.198 59.5332 152.213 59.4358 152.225 59.3385L156.981 61.9494V61.9524ZM156.564 62.7375L156.262 63.3005C154.931 62.3267 153.604 61.3499 152.273 60.3761C152.213 60.3335 152.149 60.297 152.089 60.2544C152.11 60.1418 152.131 60.0292 152.149 59.9166C153.622 60.8569 155.094 61.7942 156.564 62.7345V62.7375ZM154.562 62.3754C155.088 62.7619 155.615 63.1483 156.138 63.5348L155.817 64.1343C154.532 63.054 153.247 61.9768 151.962 60.8995C151.974 60.8417 151.986 60.7839 152.001 60.7261C152.019 60.6378 152.034 60.5526 152.049 60.4674C152.881 61.1095 153.716 61.7546 154.562 62.3785V62.3754ZM155.717 64.326L155.243 65.2146L151.729 61.9555C151.792 61.6755 151.853 61.3956 151.913 61.1126C153.18 62.1837 154.447 63.2518 155.714 64.3229L155.717 64.326ZM155.101 65.4793L154.862 65.9297C153.779 64.7855 152.693 63.6413 151.611 62.4971C151.626 62.4271 151.641 62.3571 151.656 62.2872C152.805 63.3522 153.951 64.4173 155.101 65.4793ZM154.723 66.1853L154.465 66.6661C153.471 65.4671 152.476 64.2682 151.481 63.0692C151.499 62.984 151.517 62.9018 151.535 62.8166C152.597 63.9395 153.658 65.0624 154.72 66.1853H154.723ZM150.803 66.1944C150.843 66.0088 150.885 65.8201 150.924 65.6345C151.614 66.9034 152.3 68.1724 152.99 69.4383L152.624 70.126C152.019 68.8145 151.411 67.506 150.803 66.1944ZM152.47 70.4151L152.04 71.2184C151.547 69.9343 151.051 68.6532 150.556 67.369C150.61 67.1012 150.667 66.8334 150.722 66.5687C150.973 67.1408 151.221 67.7129 151.484 68.2819C151.81 68.994 152.14 69.7061 152.467 70.4151H152.47ZM151.012 65.2389C151.042 65.0928 151.073 64.9498 151.106 64.8037C151.892 66.0514 152.681 67.299 153.468 68.5467L153.144 69.1553L151.015 65.2359L151.012 65.2389ZM151.191 64.4203C151.218 64.3016 151.242 64.1799 151.269 64.0612C152.152 65.2785 153.032 66.4926 153.915 67.7098L153.619 68.2667C152.811 66.9856 152.001 65.7014 151.194 64.4203H151.191ZM151.345 63.7174C151.366 63.617 151.39 63.5165 151.411 63.4161C152.385 64.5877 153.356 65.7623 154.329 66.9339L154.054 67.4481C153.15 66.2035 152.249 64.9589 151.345 63.7174ZM148.91 76.9911C149.282 73.8841 149.848 70.8046 150.483 67.7372C150.958 68.9818 151.432 70.2264 151.91 71.471L148.898 77.1219C148.904 77.0763 148.907 77.0398 148.91 76.9941V76.9911ZM158.596 60.7078L165.666 67.8863L151.299 81.7717C150.226 81.0261 149.431 80.025 148.989 78.6891C148.977 78.6526 148.956 78.6161 148.938 78.5795L158.596 60.7048V60.7078ZM152.228 56.8462C152.207 56.6667 152.185 56.4871 152.155 56.3076C154.605 56.615 157.054 56.9253 159.503 57.2327L158.844 58.4682L152.225 56.8462H152.228ZM152.119 56.1098C152.098 56.0003 152.08 55.8877 152.055 55.7781C153.637 55.9059 155.218 56.0429 156.803 56.1372C157.864 56.2011 158.929 56.2589 159.99 56.3198L159.612 57.0258C157.114 56.7184 154.617 56.4111 152.116 56.1068L152.119 56.1098ZM153.803 55.7112C153.22 55.6807 152.633 55.7051 152.043 55.7294C152.019 55.6229 151.992 55.5164 151.965 55.4069C154.822 55.3825 157.668 55.3582 160.516 55.3308L160.126 56.0642C158.019 55.9455 155.911 55.8238 153.8 55.7112H153.803ZM151.895 55.1421C151.88 55.0843 151.865 55.0235 151.847 54.9656C154.925 54.7344 158.004 54.5061 161.079 54.2749L160.659 55.06L151.892 55.1421H151.895ZM151.774 54.6918C151.759 54.6339 151.744 54.5761 151.726 54.5213C155.049 54.0527 158.375 53.5841 161.699 53.1155L161.236 53.9827C158.082 54.217 154.928 54.4544 151.774 54.6918ZM151.653 54.2627C151.638 54.2079 151.62 54.1501 151.605 54.0953C155.194 53.3467 158.784 52.6012 162.37 51.8526L161.853 52.8203C158.451 53.3011 155.049 53.7819 151.65 54.2627H151.653ZM151.535 53.8245C151.52 53.7697 151.511 53.7149 151.496 53.6602C155.373 52.5829 159.249 51.5088 163.126 50.4315L162.542 51.527C158.874 52.2908 155.203 53.0577 151.535 53.8215V53.8245ZM164.03 50.6506H177.656C177.656 50.6506 177.665 50.6567 177.668 50.6567C177.665 50.6567 177.662 50.6567 177.656 50.6567C177.656 50.6567 177.662 50.6567 177.671 50.6597C178.134 50.9123 178.588 51.1771 178.99 51.5027C179.108 51.597 179.22 51.6944 179.328 51.7978C179.519 52.0078 179.716 52.2573 179.909 52.5525L162.869 52.7899L164.024 50.6537L164.03 50.6506ZM181.279 28.9995C181.521 30.6671 181.733 32.3377 181.962 34.1148C180.632 32.6115 178.412 30.4693 175.745 29.3099L180.94 19.3105C180.224 22.5422 180.81 25.7708 181.282 28.9995H181.279ZM170.462 17.4329C170.541 17.4481 170.616 17.4603 170.695 17.4755C173.716 18.0294 176.734 18.571 179.758 17.5546C180.106 17.439 180.444 17.2899 180.804 17.1286L174.542 28.9721H169.873C171.255 23.7107 166.694 18.9088 164.281 16.803C166.114 16.9004 168.164 17.1043 170.465 17.436L170.462 17.4329ZM162.267 16.733C169.761 22.7217 168.884 27.5601 168.4 28.9782L163.425 28.9843L152.739 18.1298C154.683 17.3142 157.677 16.6691 162.267 16.733ZM136.255 15.458C136.255 15.458 147.362 8.36165 148.632 2.91159C149.458 8.35557 160.879 15.6984 161.079 15.8262C160.997 15.8262 160.919 15.8262 160.837 15.8262C159.812 15.8079 158.787 15.7653 157.771 15.8536C154.84 16.1062 151.947 16.5535 149.821 18.924C149.533 19.2435 149.155 19.7791 148.968 20.1412C148.838 20.3938 148.699 20.9567 148.408 20.3755C146.975 17.6155 144.48 16.5991 141.701 16.1427C139.724 15.7684 137.761 15.6558 135.929 15.6984C136.034 15.6193 136.14 15.5402 136.249 15.461L136.255 15.458ZM134.776 16.5991C139.748 16.5018 142.884 17.223 144.852 18.1085L134.12 29.0086L129.104 29.0147C128.94 28.6921 126.452 23.4186 134.776 16.6022V16.5991ZM116.028 16.8517C119.369 18.288 122.786 17.9259 126.216 17.3903C128.665 17.0191 130.842 16.7908 132.781 16.6783C130.247 18.9575 125.913 23.7868 127.585 29.0147L122.463 29.0208L116.028 16.8517ZM116.013 28.6952C116.46 25.8773 116.947 23.0625 116.515 20.2234L121.426 29.6781C118.707 30.9135 116.469 33.1471 115.193 34.623C115.459 32.6541 115.698 30.6701 116.013 28.6952ZM115.175 36.5797C117.782 33.3054 120.168 31.6469 122.139 30.8557L132.17 49.4486L120.098 49.4547C117.612 48.7153 116.261 46.3599 115.577 43.4843C115.544 43.2987 115.511 43.1069 115.484 42.9183C115.199 40.989 115.145 39.0171 115.112 37.0635C115.112 36.9113 115.133 36.747 115.175 36.5827V36.5797ZM114.322 62.5093C113.521 61.286 110.736 57.1749 107.57 54.0558C106.179 52.4095 104.498 51.0858 102.296 50.2489C104.368 49.4851 105.886 48.204 107.183 46.7129C110.954 43.0065 114.186 37.8821 114.186 37.8821C114.241 37.806 114.298 37.7269 114.353 37.6508C114.371 37.8638 114.386 38.0738 114.401 38.2868C114.35 46.5943 117.661 49.123 119.04 49.8168C119.121 49.8716 119.203 49.9233 119.285 49.9781L118.88 50.3524C117.993 50.9032 117.304 51.5544 116.76 52.2786C116.59 52.5099 116.206 53.0729 115.837 53.8793H115.828C115.828 53.8793 114.362 56.8097 114.322 62.5093ZM115.224 63.4618C115.184 60.2301 115.378 56.9466 116.091 54.6552C116.17 54.4392 116.255 54.2292 116.342 54.0253L134.562 53.9006L134.568 53.8945L137.97 60.1996L128.042 70.1108C128.042 70.1108 124.937 71.7662 120.367 68.7658C119.968 68.4828 119.578 68.1815 119.191 67.8742C118.529 67.3416 117.9 66.7635 117.286 66.1701C116.624 65.4854 115.943 64.7003 115.248 63.7995C115.239 63.687 115.233 63.5744 115.224 63.4648V63.4618ZM131.916 83.494C130.195 83.2384 128.517 82.995 126.845 82.712C123.745 82.1855 120.652 81.726 117.54 82.6024C117.104 82.7241 116.681 82.8824 116.119 83.068C117.543 79.5198 116.993 76.0995 116.333 72.6943C116.049 70.8837 115.701 68.4584 115.447 65.9966C117.473 68.3702 122.2 72.9986 127.416 71.7662C126.291 76.8602 130.619 81.4765 133.004 83.5732L131.916 83.491V83.494ZM135.067 83.6888C126.146 76.5437 128.816 71.042 128.816 71.042L131.208 68.6014L145.124 82.3133C144.063 82.8337 142.675 83.2415 141.414 83.4332C139.467 83.7314 137.459 83.6553 135.478 83.7131C135.351 83.7162 135.209 83.7101 135.07 83.6888H135.067ZM148.656 97.1633C147.383 91.7132 136.279 84.6169 136.279 84.6169C136.261 84.6047 136.246 84.5926 136.228 84.5773C136.334 84.5682 136.44 84.556 136.549 84.5469C139.367 84.55 140.667 84.1422 140.667 84.1422C142.125 83.9383 143.528 83.6157 144.816 82.9858C145.817 82.4746 146.633 81.8112 146.866 81.6134C147.519 81.0201 148.124 80.2958 148.669 79.3951C149.273 80.7583 150.196 81.8112 151.36 82.5233C151.535 82.6359 154.057 84.5134 160.677 84.5287C158.569 85.9345 149.394 92.3036 148.656 97.1633ZM161.841 83.6949C161.363 83.7131 160.888 83.7283 160.411 83.7405C158.702 83.7314 157.06 83.6462 155.669 83.4423C154.62 83.2506 153.586 82.9463 152.572 82.4807L166.634 68.8631L168.424 70.6737C168.424 70.6737 171.345 76.3703 161.841 83.6949ZM173.09 82.8611C173.184 82.8489 173.278 82.8367 173.371 82.8246C173.329 82.8306 173.235 82.8428 173.09 82.8611ZM180.949 73.0321C180.559 75.6978 180.239 78.3665 180.961 81.0413C181.173 81.8295 181.479 82.5902 181.781 83.4879C178.572 81.8508 175.325 82.006 172.041 82.499C169.576 82.8702 167.109 83.2384 164.445 83.6371C164.242 83.6462 164.042 83.6584 163.84 83.6644C166.014 81.863 171.128 76.9576 169.987 71.4862C175.016 72.6395 179.583 68.3641 181.699 65.9418C181.554 67.8924 181.321 70.2569 180.949 73.0321ZM181.832 63.8513C174.753 72.7613 169.31 69.8765 169.31 69.8765L159.138 59.7188L162.21 54.0314L180.656 53.9127C181.194 55.1482 181.66 56.8462 181.893 59.1802C181.893 59.1802 181.99 60.7535 181.832 63.8513ZM182.797 62.5762C182.782 62.5945 182.77 62.6158 182.755 62.6341C182.755 62.6036 182.749 62.5762 182.749 62.5458C182.74 60.9452 182.631 59.2928 182.38 57.6648C182.159 56.1798 181.79 54.6431 181.173 53.3893L181.182 53.3802L181.125 53.2889C180.771 52.589 180.335 51.9835 179.803 51.527C179.57 51.2866 179.313 51.0553 179.029 50.8393C178.823 50.6811 178.6 50.538 178.367 50.392L177.998 50.0511C179.271 49.5369 182.924 47.212 182.791 37.4682C182.806 37.3617 182.821 37.2552 182.842 37.1487C182.948 37.2917 183.057 37.4378 183.163 37.5869C183.163 37.5869 188.948 46.7555 194.064 49.4365V49.4334C194.463 49.6464 194.835 49.902 195.238 50.1242C189.825 51.4357 182.794 62.5732 182.794 62.5732L182.797 62.5762Z" fill="url(#paint39_linear_669_3261)"/>
<defs>
<linearGradient id="paint0_linear_669_3261" x1="425.265" y1="126.836" x2="38.5386" y2="125.928" gradientUnits="userSpaceOnUse">
<stop stop-color="#A27D69"/>
<stop offset="0.62" stop-color="#995D43"/>
<stop offset="0.71" stop-color="#945A41"/>
<stop offset="0.81" stop-color="#88533C"/>
<stop offset="0.9" stop-color="#734833"/>
<stop offset="1" stop-color="#573928"/>
</linearGradient>
<linearGradient id="paint1_linear_669_3261" x1="425.265" y1="126.8" x2="38.539" y2="125.896" gradientUnits="userSpaceOnUse">
<stop stop-color="#A27D69"/>
<stop offset="0.62" stop-color="#995D43"/>
<stop offset="0.71" stop-color="#945A41"/>
<stop offset="0.81" stop-color="#88533C"/>
<stop offset="0.9" stop-color="#734833"/>
<stop offset="1" stop-color="#573928"/>
</linearGradient>
<linearGradient id="paint2_linear_669_3261" x1="425.265" y1="126.758" x2="38.5384" y2="125.855" gradientUnits="userSpaceOnUse">
<stop stop-color="#A27D69"/>
<stop offset="0.62" stop-color="#995D43"/>
<stop offset="0.71" stop-color="#945A41"/>
<stop offset="0.81" stop-color="#88533C"/>
<stop offset="0.9" stop-color="#734833"/>
<stop offset="1" stop-color="#573928"/>
</linearGradient>
<linearGradient id="paint3_linear_669_3261" x1="425.265" y1="126.715" x2="38.5387" y2="125.812" gradientUnits="userSpaceOnUse">
<stop stop-color="#A27D69"/>
<stop offset="0.62" stop-color="#995D43"/>
<stop offset="0.71" stop-color="#945A41"/>
<stop offset="0.81" stop-color="#88533C"/>
<stop offset="0.9" stop-color="#734833"/>
<stop offset="1" stop-color="#573928"/>
</linearGradient>
<linearGradient id="paint4_linear_669_3261" x1="425.265" y1="126.671" x2="38.539" y2="125.763" gradientUnits="userSpaceOnUse">
<stop stop-color="#A27D69"/>
<stop offset="0.62" stop-color="#995D43"/>
<stop offset="0.71" stop-color="#945A41"/>
<stop offset="0.81" stop-color="#88533C"/>
<stop offset="0.9" stop-color="#734833"/>
<stop offset="1" stop-color="#573928"/>
</linearGradient>
<linearGradient id="paint5_linear_669_3261" x1="425.264" y1="126.644" x2="38.5386" y2="125.74" gradientUnits="userSpaceOnUse">
<stop stop-color="#A27D69"/>
<stop offset="0.62" stop-color="#995D43"/>
<stop offset="0.71" stop-color="#945A41"/>
<stop offset="0.81" stop-color="#88533C"/>
<stop offset="0.9" stop-color="#734833"/>
<stop offset="1" stop-color="#573928"/>
</linearGradient>
<linearGradient id="paint6_linear_669_3261" x1="425.265" y1="126.616" x2="38.5389" y2="125.708" gradientUnits="userSpaceOnUse">
<stop stop-color="#A27D69"/>
<stop offset="0.62" stop-color="#995D43"/>
<stop offset="0.71" stop-color="#945A41"/>
<stop offset="0.81" stop-color="#88533C"/>
<stop offset="0.9" stop-color="#734833"/>
<stop offset="1" stop-color="#573928"/>
</linearGradient>
<linearGradient id="paint7_linear_669_3261" x1="425.265" y1="126.574" x2="38.5387" y2="125.666" gradientUnits="userSpaceOnUse">
<stop stop-color="#A27D69"/>
<stop offset="0.62" stop-color="#995D43"/>
<stop offset="0.71" stop-color="#945A41"/>
<stop offset="0.81" stop-color="#88533C"/>
<stop offset="0.9" stop-color="#734833"/>
<stop offset="1" stop-color="#573928"/>
</linearGradient>
<linearGradient id="paint8_linear_669_3261" x1="425.265" y1="126.528" x2="38.5387" y2="125.621" gradientUnits="userSpaceOnUse">
<stop stop-color="#A27D69"/>
<stop offset="0.62" stop-color="#995D43"/>
<stop offset="0.71" stop-color="#945A41"/>
<stop offset="0.81" stop-color="#88533C"/>
<stop offset="0.9" stop-color="#734833"/>
<stop offset="1" stop-color="#573928"/>
</linearGradient>
<linearGradient id="paint9_linear_669_3261" x1="425.265" y1="126.492" x2="38.539" y2="125.584" gradientUnits="userSpaceOnUse">
<stop stop-color="#A27D69"/>
<stop offset="0.62" stop-color="#995D43"/>
<stop offset="0.71" stop-color="#945A41"/>
<stop offset="0.81" stop-color="#88533C"/>
<stop offset="0.9" stop-color="#734833"/>
<stop offset="1" stop-color="#573928"/>
</linearGradient>
<linearGradient id="paint10_linear_669_3261" x1="425.265" y1="126.453" x2="38.5384" y2="125.549" gradientUnits="userSpaceOnUse">
<stop stop-color="#A27D69"/>
<stop offset="0.62" stop-color="#995D43"/>
<stop offset="0.71" stop-color="#945A41"/>
<stop offset="0.81" stop-color="#88533C"/>
<stop offset="0.9" stop-color="#734833"/>
<stop offset="1" stop-color="#573928"/>
</linearGradient>
<linearGradient id="paint11_linear_669_3261" x1="425.265" y1="126.4" x2="38.5389" y2="125.492" gradientUnits="userSpaceOnUse">
<stop stop-color="#A27D69"/>
<stop offset="0.62" stop-color="#995D43"/>
<stop offset="0.71" stop-color="#945A41"/>
<stop offset="0.81" stop-color="#88533C"/>
<stop offset="0.9" stop-color="#734833"/>
<stop offset="1" stop-color="#573928"/>
</linearGradient>
<linearGradient id="paint12_linear_669_3261" x1="425.265" y1="126.171" x2="38.5387" y2="125.263" gradientUnits="userSpaceOnUse">
<stop stop-color="#A27D69"/>
<stop offset="0.62" stop-color="#995D43"/>
<stop offset="0.71" stop-color="#945A41"/>
<stop offset="0.81" stop-color="#88533C"/>
<stop offset="0.9" stop-color="#734833"/>
<stop offset="1" stop-color="#573928"/>
</linearGradient>
<linearGradient id="paint13_linear_669_3261" x1="425.265" y1="126.317" x2="38.5386" y2="125.414" gradientUnits="userSpaceOnUse">
<stop stop-color="#A27D69"/>
<stop offset="0.62" stop-color="#995D43"/>
<stop offset="0.71" stop-color="#945A41"/>
<stop offset="0.81" stop-color="#88533C"/>
<stop offset="0.9" stop-color="#734833"/>
<stop offset="1" stop-color="#573928"/>
</linearGradient>
<linearGradient id="paint14_linear_669_3261" x1="425.265" y1="126.179" x2="38.5388" y2="125.272" gradientUnits="userSpaceOnUse">
<stop stop-color="#A27D69"/>
<stop offset="0.62" stop-color="#995D43"/>
<stop offset="0.71" stop-color="#945A41"/>
<stop offset="0.81" stop-color="#88533C"/>
<stop offset="0.9" stop-color="#734833"/>
<stop offset="1" stop-color="#573928"/>
</linearGradient>
<linearGradient id="paint15_linear_669_3261" x1="425.265" y1="126.355" x2="38.5384" y2="125.447" gradientUnits="userSpaceOnUse">
<stop stop-color="#A27D69"/>
<stop offset="0.62" stop-color="#995D43"/>
<stop offset="0.71" stop-color="#945A41"/>
<stop offset="0.81" stop-color="#88533C"/>
<stop offset="0.9" stop-color="#734833"/>
<stop offset="1" stop-color="#573928"/>
</linearGradient>
<linearGradient id="paint16_linear_669_3261" x1="425.264" y1="126.193" x2="38.5383" y2="125.289" gradientUnits="userSpaceOnUse">
<stop stop-color="#A27D69"/>
<stop offset="0.62" stop-color="#995D43"/>
<stop offset="0.71" stop-color="#945A41"/>
<stop offset="0.81" stop-color="#88533C"/>
<stop offset="0.9" stop-color="#734833"/>
<stop offset="1" stop-color="#573928"/>
</linearGradient>
<linearGradient id="paint17_linear_669_3261" x1="425.265" y1="126.161" x2="38.5389" y2="125.253" gradientUnits="userSpaceOnUse">
<stop stop-color="#A27D69"/>
<stop offset="0.62" stop-color="#995D43"/>
<stop offset="0.71" stop-color="#945A41"/>
<stop offset="0.81" stop-color="#88533C"/>
<stop offset="0.9" stop-color="#734833"/>
<stop offset="1" stop-color="#573928"/>
</linearGradient>
<linearGradient id="paint18_linear_669_3261" x1="425.051" y1="149.753" x2="38.3253" y2="148.845" gradientUnits="userSpaceOnUse">
<stop stop-color="#A27D69"/>
<stop offset="0.62" stop-color="#995D43"/>
<stop offset="0.71" stop-color="#945A41"/>
<stop offset="0.81" stop-color="#88533C"/>
<stop offset="0.9" stop-color="#734833"/>
<stop offset="1" stop-color="#573928"/>
</linearGradient>
<linearGradient id="paint19_linear_669_3261" x1="425.052" y1="149.726" x2="38.3253" y2="148.818" gradientUnits="userSpaceOnUse">
<stop stop-color="#A27D69"/>
<stop offset="0.62" stop-color="#995D43"/>
<stop offset="0.71" stop-color="#945A41"/>
<stop offset="0.81" stop-color="#88533C"/>
<stop offset="0.9" stop-color="#734833"/>
<stop offset="1" stop-color="#573928"/>
</linearGradient>
<linearGradient id="paint20_linear_669_3261" x1="425.051" y1="149.705" x2="38.3254" y2="148.802" gradientUnits="userSpaceOnUse">
<stop stop-color="#A27D69"/>
<stop offset="0.62" stop-color="#995D43"/>
<stop offset="0.71" stop-color="#945A41"/>
<stop offset="0.81" stop-color="#88533C"/>
<stop offset="0.9" stop-color="#734833"/>
<stop offset="1" stop-color="#573928"/>
</linearGradient>
<linearGradient id="paint21_linear_669_3261" x1="425.051" y1="149.674" x2="38.3251" y2="148.766" gradientUnits="userSpaceOnUse">
<stop stop-color="#A27D69"/>
<stop offset="0.62" stop-color="#995D43"/>
<stop offset="0.71" stop-color="#945A41"/>
<stop offset="0.81" stop-color="#88533C"/>
<stop offset="0.9" stop-color="#734833"/>
<stop offset="1" stop-color="#573928"/>
</linearGradient>
<linearGradient id="paint22_linear_669_3261" x1="425.051" y1="149.632" x2="38.3253" y2="148.724" gradientUnits="userSpaceOnUse">
<stop stop-color="#A27D69"/>
<stop offset="0.62" stop-color="#995D43"/>
<stop offset="0.71" stop-color="#945A41"/>
<stop offset="0.81" stop-color="#88533C"/>
<stop offset="0.9" stop-color="#734833"/>
<stop offset="1" stop-color="#573928"/>
</linearGradient>
<linearGradient id="paint23_linear_669_3261" x1="425.051" y1="149.634" x2="38.3251" y2="148.731" gradientUnits="userSpaceOnUse">
<stop stop-color="#A27D69"/>
<stop offset="0.62" stop-color="#995D43"/>
<stop offset="0.71" stop-color="#945A41"/>
<stop offset="0.81" stop-color="#88533C"/>
<stop offset="0.9" stop-color="#734833"/>
<stop offset="1" stop-color="#573928"/>
</linearGradient>
<linearGradient id="paint24_linear_669_3261" x1="425.051" y1="149.592" x2="38.3256" y2="148.688" gradientUnits="userSpaceOnUse">
<stop stop-color="#A27D69"/>
<stop offset="0.62" stop-color="#995D43"/>
<stop offset="0.71" stop-color="#945A41"/>
<stop offset="0.81" stop-color="#88533C"/>
<stop offset="0.9" stop-color="#734833"/>
<stop offset="1" stop-color="#573928"/>
</linearGradient>
<linearGradient id="paint25_linear_669_3261" x1="425.052" y1="149.551" x2="38.3253" y2="148.643" gradientUnits="userSpaceOnUse">
<stop stop-color="#A27D69"/>
<stop offset="0.62" stop-color="#995D43"/>
<stop offset="0.71" stop-color="#945A41"/>
<stop offset="0.81" stop-color="#88533C"/>
<stop offset="0.9" stop-color="#734833"/>
<stop offset="1" stop-color="#573928"/>
</linearGradient>
<linearGradient id="paint26_linear_669_3261" x1="425.051" y1="149.528" x2="38.325" y2="148.62" gradientUnits="userSpaceOnUse">
<stop stop-color="#A27D69"/>
<stop offset="0.62" stop-color="#995D43"/>
<stop offset="0.71" stop-color="#945A41"/>
<stop offset="0.81" stop-color="#88533C"/>
<stop offset="0.9" stop-color="#734833"/>
<stop offset="1" stop-color="#573928"/>
</linearGradient>
<linearGradient id="paint27_linear_669_3261" x1="425.051" y1="149.51" x2="38.3259" y2="148.602" gradientUnits="userSpaceOnUse">
<stop stop-color="#A27D69"/>
<stop offset="0.62" stop-color="#995D43"/>
<stop offset="0.71" stop-color="#945A41"/>
<stop offset="0.81" stop-color="#88533C"/>
<stop offset="0.9" stop-color="#734833"/>
<stop offset="1" stop-color="#573928"/>
</linearGradient>
<linearGradient id="paint28_linear_669_3261" x1="425.051" y1="149.487" x2="38.3258" y2="148.584" gradientUnits="userSpaceOnUse">
<stop stop-color="#A27D69"/>
<stop offset="0.62" stop-color="#995D43"/>
<stop offset="0.71" stop-color="#945A41"/>
<stop offset="0.81" stop-color="#88533C"/>
<stop offset="0.9" stop-color="#734833"/>
<stop offset="1" stop-color="#573928"/>
</linearGradient>
<linearGradient id="paint29_linear_669_3261" x1="425.051" y1="149.458" x2="38.3254" y2="148.555" gradientUnits="userSpaceOnUse">
<stop stop-color="#A27D69"/>
<stop offset="0.62" stop-color="#995D43"/>
<stop offset="0.71" stop-color="#945A41"/>
<stop offset="0.81" stop-color="#88533C"/>
<stop offset="0.9" stop-color="#734833"/>
<stop offset="1" stop-color="#573928"/>
</linearGradient>
<linearGradient id="paint30_linear_669_3261" x1="425.051" y1="149.436" x2="38.3248" y2="148.533" gradientUnits="userSpaceOnUse">
<stop stop-color="#A27D69"/>
<stop offset="0.62" stop-color="#995D43"/>
<stop offset="0.71" stop-color="#945A41"/>
<stop offset="0.81" stop-color="#88533C"/>
<stop offset="0.9" stop-color="#734833"/>
<stop offset="1" stop-color="#573928"/>
</linearGradient>
<linearGradient id="paint31_linear_669_3261" x1="425.051" y1="149.408" x2="38.3254" y2="148.504" gradientUnits="userSpaceOnUse">
<stop stop-color="#A27D69"/>
<stop offset="0.62" stop-color="#995D43"/>
<stop offset="0.71" stop-color="#945A41"/>
<stop offset="0.81" stop-color="#88533C"/>
<stop offset="0.9" stop-color="#734833"/>
<stop offset="1" stop-color="#573928"/>
</linearGradient>
<linearGradient id="paint32_linear_669_3261" x1="425.051" y1="149.389" x2="38.3256" y2="148.482" gradientUnits="userSpaceOnUse">
<stop stop-color="#A27D69"/>
<stop offset="0.62" stop-color="#995D43"/>
<stop offset="0.71" stop-color="#945A41"/>
<stop offset="0.81" stop-color="#88533C"/>
<stop offset="0.9" stop-color="#734833"/>
<stop offset="1" stop-color="#573928"/>
</linearGradient>
<linearGradient id="paint33_linear_669_3261" x1="425.052" y1="149.348" x2="38.3255" y2="148.445" gradientUnits="userSpaceOnUse">
<stop stop-color="#A27D69"/>
<stop offset="0.62" stop-color="#995D43"/>
<stop offset="0.71" stop-color="#945A41"/>
<stop offset="0.81" stop-color="#88533C"/>
<stop offset="0.9" stop-color="#734833"/>
<stop offset="1" stop-color="#573928"/>
</linearGradient>
<linearGradient id="paint34_linear_669_3261" x1="425.051" y1="149.335" x2="38.3256" y2="148.428" gradientUnits="userSpaceOnUse">
<stop stop-color="#A27D69"/>
<stop offset="0.62" stop-color="#995D43"/>
<stop offset="0.71" stop-color="#945A41"/>
<stop offset="0.81" stop-color="#88533C"/>
<stop offset="0.9" stop-color="#734833"/>
<stop offset="1" stop-color="#573928"/>
</linearGradient>
<linearGradient id="paint35_linear_669_3261" x1="425.051" y1="149.311" x2="38.3254" y2="148.403" gradientUnits="userSpaceOnUse">
<stop stop-color="#A27D69"/>
<stop offset="0.62" stop-color="#995D43"/>
<stop offset="0.71" stop-color="#945A41"/>
<stop offset="0.81" stop-color="#88533C"/>
<stop offset="0.9" stop-color="#734833"/>
<stop offset="1" stop-color="#573928"/>
</linearGradient>
<linearGradient id="paint36_linear_669_3261" x1="425.051" y1="149.285" x2="38.3251" y2="148.382" gradientUnits="userSpaceOnUse">
<stop stop-color="#A27D69"/>
<stop offset="0.62" stop-color="#995D43"/>
<stop offset="0.71" stop-color="#945A41"/>
<stop offset="0.81" stop-color="#88533C"/>
<stop offset="0.9" stop-color="#734833"/>
<stop offset="1" stop-color="#573928"/>
</linearGradient>
<linearGradient id="paint37_linear_669_3261" x1="425.05" y1="149.267" x2="38.3266" y2="148.359" gradientUnits="userSpaceOnUse">
<stop stop-color="#A27D69"/>
<stop offset="0.62" stop-color="#995D43"/>
<stop offset="0.71" stop-color="#945A41"/>
<stop offset="0.81" stop-color="#88533C"/>
<stop offset="0.9" stop-color="#734833"/>
<stop offset="1" stop-color="#573928"/>
</linearGradient>
<linearGradient id="paint38_linear_669_3261" x1="425.051" y1="149.221" x2="38.3254" y2="148.318" gradientUnits="userSpaceOnUse">
<stop stop-color="#A27D69"/>
<stop offset="0.62" stop-color="#995D43"/>
<stop offset="0.71" stop-color="#945A41"/>
<stop offset="0.81" stop-color="#88533C"/>
<stop offset="0.9" stop-color="#734833"/>
<stop offset="1" stop-color="#573928"/>
</linearGradient>
<linearGradient id="paint39_linear_669_3261" x1="231.304" y1="102.985" x2="95.066" y2="16.9394" gradientUnits="userSpaceOnUse">
<stop stop-color="#A27D69"/>
<stop offset="0.21" stop-color="#9C6A5A"/>
<stop offset="0.43" stop-color="#995D50"/>
<stop offset="0.65" stop-color="#784B3C"/>
<stop offset="0.87" stop-color="#603D2D"/>
<stop offset="1" stop-color="#573928"/>
</linearGradient>
<clipPath id="clip0_669_3261">
<rect width="296" height="43" fill="white" transform="translate(0 113)"/>
</clipPath>
</defs>
</svg>
